<svg xmlns="http://www.w3.org/2000/svg" width="1655" height="2048" viewBox="0 0 1655 2048" version="1.1"><path d="M 486 533.024 C 457.948 534.107, 440.590 535.497, 431.695 537.373 C 427.738 538.207, 418.650 539.841, 411.500 541.004 C 387.834 544.854, 374.564 548.265, 364.679 553.041 C 362.449 554.118, 360.214 555, 359.713 555 C 357.333 555, 346.237 560.554, 331.197 569.273 C 321.665 574.799, 320.932 575.442, 321.396 577.873 C 321.671 579.318, 322.395 589.275, 323.005 600 C 323.615 610.725, 324.968 630.525, 326.012 644 C 328.979 682.298, 330.004 697.108, 331.028 716.500 C 331.551 726.400, 332.661 741.700, 333.494 750.500 C 334.328 759.300, 335.447 773.925, 335.982 783 C 337.837 814.469, 339.110 833.626, 341.001 858.500 C 342.046 872.250, 343.403 891.375, 344.016 901 C 345.155 918.907, 346.964 934.080, 349.438 946.500 C 350.205 950.350, 351.580 959.125, 352.493 966 C 355.361 987.586, 361.462 1022.942, 363.624 1030.500 C 364.411 1033.250, 365.498 1039.775, 366.040 1045 C 367.667 1060.681, 369.959 1073.849, 373.175 1086 C 374.849 1092.325, 376.631 1099.300, 377.135 1101.500 C 378.187 1106.091, 384.353 1124.565, 386.813 1130.500 C 388.145 1133.712, 400.511 1158.500, 411.048 1179.078 C 412.056 1181.046, 413.582 1183.238, 414.440 1183.950 C 415.298 1184.662, 416.029 1185.752, 416.064 1186.372 C 416.098 1186.993, 418.327 1190.200, 421.016 1193.500 C 423.705 1196.800, 428.053 1203.100, 430.678 1207.500 C 433.304 1211.900, 437.487 1218.358, 439.976 1221.851 C 442.464 1225.344, 445.175 1229.225, 446 1230.475 C 449.920 1236.416, 454.868 1243.137, 460.212 1249.783 C 463.434 1253.789, 466.841 1258.324, 467.785 1259.862 C 468.728 1261.400, 476.025 1269.518, 484 1277.902 C 516.372 1311.935, 559.766 1341.489, 598.500 1355.885 C 607.300 1359.156, 616.379 1362.381, 618.675 1363.052 C 622.661 1364.216, 622.875 1364.480, 623.400 1368.886 C 623.703 1371.424, 624.432 1394.875, 625.021 1421 C 625.610 1447.125, 627.175 1500.450, 628.500 1539.500 C 629.824 1578.550, 631.121 1618.938, 631.383 1629.250 C 631.928 1650.749, 632.650 1649.439, 622.194 1645.908 L 616 1643.816 616 1553.851 L 616 1463.885 611.750 1464.193 L 607.500 1464.500 607.205 1471.812 C 606.911 1479.108, 606.904 1479.123, 604.205 1478.812 C 601.574 1478.509, 601.492 1478.302, 601.206 1471.250 L 600.912 1464 597 1464 L 593.088 1464 592.794 1471.250 C 592.507 1478.332, 592.436 1478.507, 589.750 1478.816 L 587 1479.133 587 1471.566 L 587 1464 582.500 1464 L 578 1464 578 1471.566 L 578 1479.133 575.250 1478.816 C 572.307 1478.478, 572.300 1478.454, 572.099 1468.750 L 572 1464 567.500 1464 L 563 1464 563 1471.500 C 563 1478.833, 562.944 1479, 560.500 1479 C 558.056 1479, 558 1478.833, 558 1471.500 L 558 1464 553.544 1464 L 549.088 1464 548.794 1471.250 C 548.507 1478.332, 548.436 1478.507, 545.750 1478.816 L 543 1479.133 543 1471.566 C 543 1464.667, 542.824 1464, 541 1464 C 539.017 1464, 539 1464.667, 539 1544.500 C 539 1588.775, 538.663 1624.994, 538.250 1624.986 C 537.837 1624.979, 536.487 1624.701, 535.250 1624.370 L 533 1623.767 533 1575.883 L 533 1528 529.500 1528 L 526 1528 526 1535 C 526 1541.333, 525.810 1542, 524 1542 C 522.190 1542, 522 1541.333, 522 1535 L 522 1528 518.044 1528 L 514.088 1528 513.794 1535.250 C 513.531 1541.735, 513.289 1542.500, 511.500 1542.500 C 509.711 1542.500, 509.469 1541.735, 509.206 1535.250 L 508.912 1528 504.956 1528 L 501 1528 501 1535.566 L 501 1543.133 498.250 1542.816 C 495.564 1542.507, 495.493 1542.332, 495.206 1535.250 L 494.912 1528 491.456 1528 L 488 1528 488 1535.500 C 488 1542.833, 487.944 1543, 485.500 1543 C 483.056 1543, 483 1542.833, 483 1535.500 L 483 1528 479 1528 L 475 1528 475 1572 L 475 1616 472.500 1616 L 470 1616 470 1564.500 L 470 1513 467.555 1513 C 465.347 1513, 465.080 1513.461, 464.805 1517.750 C 464.513 1522.293, 464.370 1522.500, 461.500 1522.500 C 458.721 1522.500, 458.476 1522.206, 458.176 1518.500 C 457.997 1516.300, 457.210 1514.140, 456.426 1513.700 C 455.218 1513.023, 455 1504.345, 455 1456.950 L 455 1401 452 1401 L 449 1401 449 1408.500 L 449 1416 446.044 1416 L 443.088 1416 442.794 1408.750 C 442.520 1402, 442.338 1401.477, 440.148 1401.167 C 435.841 1400.557, 432.850 1401.870, 433.044 1404.286 C 433.141 1405.504, 433.172 1408.638, 433.111 1411.250 C 433 1415.991, 432.993 1416, 429.500 1416 L 426 1416 426 1409.107 C 426 1401.516, 425.581 1401, 419.418 1401 L 416 1401 416 1408.500 L 416 1416 412.544 1416 L 409.088 1416 408.794 1408.750 L 408.500 1401.500 404 1401.500 L 399.500 1401.500 399.206 1408.750 L 398.912 1416 394.956 1416 L 391 1416 391 1408.622 L 391 1401.244 386.750 1401.372 L 382.500 1401.500 382.206 1408.750 C 381.926 1415.665, 381.801 1416, 379.500 1416 C 377.199 1416, 377.074 1415.665, 376.794 1408.750 L 376.500 1401.500 372 1401.500 L 367.500 1401.500 367.206 1408.750 C 366.926 1415.665, 366.801 1416, 364.500 1416 C 362.199 1416, 362.074 1415.665, 361.794 1408.750 L 361.500 1401.500 357.250 1401.193 L 353 1400.885 352.891 1455.693 C 352.832 1485.837, 352.494 1513.200, 352.141 1516.500 L 351.500 1522.500 347.076 1522.500 L 342.652 1522.500 342.576 1518 C 342.511 1514.128, 342.187 1513.456, 340.259 1513.182 L 338.018 1512.863 337.759 1565.182 L 337.500 1617.500 335.250 1617.820 L 333 1618.139 333 1573.070 L 333 1528 329 1528 L 325 1528 325 1535 C 325 1541.333, 324.810 1542, 323 1542 C 321.190 1542, 321 1541.333, 321 1535 L 321 1528 316.931 1528 L 312.862 1528 313.010 1534.250 C 313.214 1542.909, 313.260 1542.740, 310.750 1542.613 C 308.663 1542.508, 308.479 1541.975, 308.206 1535.250 L 307.912 1528 303.866 1528 L 299.820 1528 300.160 1535.250 L 300.500 1542.500 297.750 1542.816 L 295 1543.133 295 1535.566 L 295 1528 291 1528 L 287 1528 287 1535.500 C 287 1542.833, 286.944 1543, 284.500 1543 C 282.056 1543, 282 1542.833, 282 1535.500 L 282 1528 278.500 1528 L 275 1528 274.959 1534.750 C 274.936 1538.463, 274.953 1559.980, 274.998 1582.566 C 275.042 1605.152, 274.788 1624.389, 274.432 1625.316 C 274.076 1626.245, 272.714 1627, 271.393 1627 L 269 1627 269 1545.500 C 269 1472.201, 268.842 1464, 267.434 1464 C 264.479 1464, 261.937 1466.060, 262.126 1468.301 C 262.228 1469.511, 262.241 1472.862, 262.156 1475.750 C 262.011 1480.642, 261.829 1481, 259.500 1481 C 257.044 1481, 257 1480.860, 257 1473.107 C 257 1464.833, 256.535 1464, 251.918 1464 C 250.187 1464, 250 1464.780, 250 1472 L 250 1480 246 1480 L 242 1480 242 1472.607 C 242 1464.871, 241.486 1464, 236.918 1464 C 235.187 1464, 235 1464.780, 235 1472 L 235 1480 230.542 1480 L 226.084 1480 225.792 1472.250 C 225.505 1464.621, 225.457 1464.495, 222.750 1464.184 L 220 1463.867 220 1471.337 L 220 1478.807 214.999 1479.153 L 209.999 1479.500 209.999 1471.750 L 210 1464 206.500 1464 L 203 1464 203 1471.500 L 203 1479 199.500 1479 L 196 1479 196 1471.500 C 196 1464.667, 195.822 1464, 194 1464 C 192.016 1464, 191.999 1464.706, 191.882 1553.250 C 191.816 1602.338, 191.823 1642.856, 191.895 1643.291 C 192.249 1645.410, 189.696 1647.773, 185.809 1648.922 C 183.439 1649.623, 179.363 1651.108, 176.750 1652.221 L 172 1654.246 172 1661.604 C 172 1668.621, 171.884 1668.991, 169.497 1669.590 C 168.121 1669.936, 165.421 1669.944, 163.497 1669.609 C 161.574 1669.274, 158.453 1668.729, 156.563 1668.398 C 154.672 1668.067, 152.380 1666.972, 151.468 1665.965 C 149.914 1664.247, 149.997 1663.868, 152.815 1659.817 C 154.467 1657.443, 158.184 1653.475, 161.075 1651 C 170.361 1643.050, 172.475 1639.916, 173.549 1632.500 C 173.947 1629.750, 176.252 1621.650, 178.671 1614.500 C 189.864 1581.416, 189.168 1584.143, 188.461 1576.156 C 188.039 1571.386, 187.231 1568.218, 186.156 1567.117 C 185.245 1566.185, 183.044 1563.744, 181.264 1561.692 L 178.027 1557.961 172.514 1561.622 C 169.481 1563.636, 167 1565.639, 167 1566.074 C 167 1566.509, 166.209 1567.116, 165.242 1567.423 C 164.275 1567.730, 160.788 1570.419, 157.492 1573.400 C 154.045 1576.517, 149.164 1579.741, 146 1580.991 C 134.081 1585.699, 132.361 1586.496, 128.500 1589.107 C 123.864 1592.241, 121.602 1594.304, 117.646 1599.007 C 114.728 1602.477, 111.127 1603.546, 106.125 1602.429 C 103.931 1601.940, 103.806 1601.579, 104.487 1597.700 C 104.893 1595.390, 105.308 1587.425, 105.411 1580 C 105.514 1572.575, 106.085 1565.375, 106.680 1564 C 111.070 1553.856, 147.908 1498.541, 164.618 1477 C 188.596 1446.093, 191.081 1443.329, 202.485 1434.889 C 207.976 1430.825, 219.001 1422.309, 226.985 1415.965 C 240.282 1405.397, 252.799 1396.656, 268.500 1386.973 C 271.800 1384.937, 280.350 1379.550, 287.500 1375.001 C 294.650 1370.452, 301.708 1366.004, 303.185 1365.115 C 304.662 1364.227, 309.837 1361.118, 314.685 1358.206 C 331.338 1348.206, 335.729 1345.426, 357 1331.420 C 366.075 1325.445, 378 1317.817, 383.500 1314.470 C 398.478 1305.354, 411.449 1296.093, 409.882 1295.633 C 398.541 1292.310, 380.490 1288, 377.911 1288 C 376.332 1288, 373.344 1288.603, 371.270 1289.340 C 363.429 1292.127, 357.367 1293.879, 353.500 1294.475 C 337.468 1296.947, 324.538 1299.420, 319 1301.074 C 315.425 1302.142, 308.545 1304.170, 303.710 1305.581 C 294.948 1308.137, 290.858 1309.777, 276.222 1316.599 C 258.786 1324.727, 249.417 1329.347, 248 1330.517 C 247.175 1331.198, 241.920 1334.079, 236.323 1336.919 C 227.459 1341.417, 218.875 1346.906, 210 1353.753 C 208.625 1354.814, 200.300 1360.521, 191.500 1366.435 C 182.700 1372.350, 174.772 1377.934, 173.882 1378.844 C 172.992 1379.755, 167.410 1384.550, 161.477 1389.500 C 155.544 1394.450, 148.797 1400.300, 146.483 1402.500 C 144.169 1404.700, 139.401 1409.106, 135.888 1412.292 C 132.375 1415.477, 128.375 1419.113, 127 1420.371 C 125.625 1421.629, 122.925 1423.913, 121 1425.446 C 119.075 1426.979, 115.025 1430.496, 112 1433.261 C 75.640 1466.495, 73.447 1468.704, 61.144 1484.500 C 55.575 1491.650, 50.402 1498.175, 49.650 1499 C 48.897 1499.825, 46.564 1502.975, 44.465 1506 C 42.366 1509.025, 39.659 1512.625, 38.450 1514 C 35.858 1516.948, 29.663 1525.853, 28.711 1528 C 28.345 1528.825, 26.694 1531.750, 25.042 1534.500 C 23.390 1537.250, 21.088 1541.525, 19.926 1544 C 18.763 1546.475, 16.948 1550.176, 15.891 1552.224 C 14.835 1554.272, 12.244 1561.697, 10.133 1568.724 C 8.023 1575.751, 4.992 1585.775, 3.398 1591 C 0.563 1600.294, 0.504 1600.956, 0.662 1621.500 C 0.846 1645.229, 2.086 1652.894, 6.675 1658.669 C 8.229 1660.625, 10.167 1663.187, 10.982 1664.362 C 11.798 1665.538, 12.967 1666.822, 13.581 1667.215 C 14.196 1667.609, 16.903 1669.774, 19.599 1672.028 C 22.295 1674.282, 27.875 1677.850, 32 1679.956 C 36.125 1682.062, 41.300 1684.718, 43.500 1685.858 C 56.939 1692.823, 70.337 1698.311, 77 1699.581 C 81.125 1700.368, 88.325 1701.896, 93 1702.977 C 106.999 1706.214, 125.078 1709.882, 132 1710.890 C 135.575 1711.410, 145.025 1712.984, 153 1714.388 C 178.189 1718.822, 259.730 1723.986, 304.500 1723.984 C 334.602 1723.982, 352.711 1722.865, 369.532 1719.973 C 390.367 1716.390, 398.128 1714.355, 409.706 1709.436 C 418.076 1705.881, 423.777 1697.134, 422.356 1690.029 C 421.907 1687.786, 422.136 1686.522, 423.105 1685.898 C 423.872 1685.403, 432.938 1685.032, 443.250 1685.073 C 464.457 1685.158, 463.723 1684.807, 460.086 1693.123 C 459.033 1695.530, 458.020 1698.834, 457.836 1700.464 C 457.526 1703.200, 457.884 1703.571, 462.500 1705.302 C 467.642 1707.230, 487.157 1712.570, 499.429 1715.407 C 509.633 1717.766, 539.001 1721.724, 559 1723.436 C 587.148 1725.845, 620.445 1726.349, 664 1725.025 L 704.500 1723.794 714 1718.372 C 727.079 1710.907, 726.441 1711.331, 736.500 1703.442 C 741.450 1699.559, 746.453 1695.734, 747.618 1694.942 C 759.056 1687.158, 766.859 1681.603, 774.127 1676.069 C 788.989 1664.753, 794.739 1662.113, 825.500 1652.483 C 841.026 1647.622, 857.017 1641.715, 860.500 1639.554 C 861.600 1638.871, 866.100 1636.927, 870.500 1635.233 C 897.553 1624.818, 907.780 1618.484, 914.520 1607.969 C 920.650 1598.406, 921.937 1595.049, 924.096 1583 C 927.960 1561.438, 925.734 1544.684, 917.388 1532.500 C 915.699 1530.035, 895.807 1510, 895.048 1510 C 894.327 1510, 880.481 1514.476, 875.955 1516.172 C 874.006 1516.903, 871.081 1518.390, 869.455 1519.476 C 867.830 1520.562, 864.925 1522.297, 863 1523.331 C 861.075 1524.365, 858.571 1526.063, 857.436 1527.105 C 856.300 1528.147, 854.819 1529, 854.145 1529 C 853.471 1529, 851.608 1529.969, 850.006 1531.153 C 847.704 1532.856, 847.293 1533.680, 848.047 1535.088 C 848.571 1536.067, 849 1537.798, 849 1538.934 C 849 1540.971, 848.607 1541.001, 821.250 1541.064 L 793.500 1541.127 804.704 1543.502 C 810.867 1544.808, 819.417 1546.799, 823.704 1547.925 C 842.585 1552.884, 866.492 1554.498, 876.429 1551.483 C 881.104 1550.065, 881.469 1550.092, 883.509 1552.009 C 887.876 1556.111, 890 1562.167, 890 1570.518 C 890 1577.528, 889.582 1579.236, 885.862 1587.408 C 880.588 1598.998, 876.060 1605.048, 863.199 1617.693 C 852.201 1628.506, 849.106 1630.552, 837.761 1634.516 L 830.633 1637.006 825.433 1635.061 C 819.583 1632.872, 805.640 1625.753, 799.333 1621.735 C 797.041 1620.274, 790.737 1615.517, 785.323 1611.162 C 776.876 1604.368, 775.298 1602.625, 774.194 1598.873 C 773.487 1596.468, 772.669 1593.946, 772.377 1593.269 C 772.085 1592.593, 775.784 1594.511, 780.596 1597.532 C 794.319 1606.148, 805.087 1608.589, 825.574 1607.730 C 835.648 1607.308, 839.911 1606.692, 843.856 1605.090 C 846.685 1603.940, 851.363 1602.050, 854.250 1600.890 C 857.138 1599.729, 860.210 1598.154, 861.079 1597.390 C 861.947 1596.625, 862.940 1596, 863.284 1596 C 864.917 1596, 874.957 1588.092, 874.043 1587.526 C 872.944 1586.847, 865.181 1585.990, 837.936 1583.537 C 828.825 1582.717, 818.925 1581.319, 815.936 1580.431 C 796.032 1574.517, 788.736 1570.362, 783.600 1562.014 C 780.267 1556.595, 776.667 1546.667, 777.671 1545.662 C 777.952 1545.381, 777.886 1544.217, 777.524 1543.075 C 776.871 1541.020, 776.479 1541, 736.230 1541 L 695.594 1541 699.147 1544.750 C 703.494 1549.339, 713.285 1561.733, 717.908 1568.500 C 719.786 1571.250, 723.188 1576.200, 725.466 1579.500 C 727.745 1582.800, 731.062 1587.975, 732.838 1591 C 734.613 1594.025, 736.614 1597.389, 737.283 1598.476 C 745.253 1611.414, 745.165 1611.198, 746.253 1620.490 C 746.945 1626.406, 747.002 1631.926, 746.413 1636.044 C 745.501 1642.418, 745.490 1642.436, 738 1648.764 C 730.280 1655.286, 719.756 1660.983, 707.500 1665.274 C 700.309 1667.792, 681.647 1669.767, 679.374 1668.251 C 678.643 1667.763, 677.840 1658.563, 677.082 1642 C 676.440 1627.975, 675.488 1607.725, 674.965 1597 C 674.313 1583.615, 674.375 1569.396, 675.162 1551.658 C 676.406 1523.630, 676.158 1518.483, 671.349 1472.500 C 668.280 1443.163, 667.325 1429.642, 666.082 1397.937 C 665.112 1373.188, 665.368 1367.078, 668.522 1339.655 C 671.188 1316.483, 669.947 1295.599, 665.379 1286.765 C 655.461 1267.586, 642.377 1259.230, 616.500 1255.550 C 598.132 1252.938, 592.749 1251.919, 590.013 1250.537 C 588.631 1249.839, 585.025 1248.703, 582 1248.012 C 578.975 1247.321, 575.095 1245.909, 573.377 1244.875 C 571.659 1243.840, 565.674 1240.742, 560.076 1237.989 C 554.479 1235.237, 548.684 1232.134, 547.199 1231.094 C 545.715 1230.054, 541.332 1227.179, 537.461 1224.704 C 516.575 1211.357, 486.772 1177.424, 470.093 1148 C 467.755 1143.875, 463.434 1136.450, 460.492 1131.500 C 454.822 1121.962, 454.657 1121.671, 448.296 1110 C 444.347 1102.755, 433.923 1079.765, 432.575 1075.331 C 431.763 1072.656, 433.926 1071.795, 441.338 1071.843 C 446.386 1071.877, 446.628 1072.017, 452.261 1078.189 C 464.800 1091.924, 475.050 1103.925, 481.725 1112.683 C 490.286 1123.915, 510.049 1145.023, 515.500 1148.755 C 517.700 1150.262, 519.725 1151.739, 520 1152.037 C 520.275 1152.336, 523.683 1154.657, 527.574 1157.195 C 537.678 1163.788, 553.121 1168, 567.184 1168 C 570.933 1168, 573.982 1167.662, 573.960 1167.250 C 573.938 1166.838, 571.628 1164.700, 568.826 1162.500 C 557.212 1153.380, 545.985 1139.614, 543.296 1131.197 C 542.364 1128.281, 540.063 1124.097, 538.182 1121.899 C 534.545 1117.651, 529.010 1104.313, 529.004 1099.785 C 529.002 1098.292, 528.356 1095.142, 527.570 1092.785 C 526.783 1090.428, 525.818 1086.700, 525.425 1084.500 C 525.033 1082.300, 523.601 1078.057, 522.245 1075.071 C 518.101 1065.953, 518.150 1060.103, 522.459 1049.091 C 524.484 1043.915, 527.325 1038.065, 528.771 1036.091 C 537.704 1023.893, 551.431 1009.833, 567 996.935 C 570.575 993.974, 574.850 990.336, 576.500 988.851 C 578.150 987.366, 580.625 985.185, 582 984.003 C 592.573 974.918, 616.145 952.317, 618.936 948.589 C 620.826 946.065, 622.765 944, 623.245 944 C 623.725 944, 623.854 943.572, 623.531 943.050 C 622.724 941.744, 607.281 942.582, 597.500 944.462 C 588.134 946.262, 588 946.271, 588 945.109 C 588 944.157, 592.611 942.145, 602.425 938.815 C 610.009 936.241, 611.480 935.001, 606.950 934.998 C 603.071 934.995, 590.789 930.868, 590.301 929.403 C 590.127 928.880, 592.800 925.087, 596.243 920.976 C 599.685 916.864, 603.401 912.412, 604.501 911.082 C 605.600 909.752, 608.194 906.770, 610.264 904.455 C 613.627 900.694, 620.158 890.428, 626.030 879.673 C 627.179 877.569, 627.980 874.983, 627.809 873.928 C 627.516 872.109, 627.344 872.093, 624.500 873.622 C 622.850 874.509, 617 877.563, 611.500 880.409 C 606 883.256, 599.700 886.737, 597.500 888.146 C 595.300 889.554, 588.977 893.585, 583.448 897.103 C 577.919 900.621, 572.519 904.065, 571.448 904.756 C 570.377 905.447, 568.825 906.301, 568 906.654 C 567.175 907.007, 565.150 908.272, 563.500 909.465 C 561.850 910.658, 556.900 913.404, 552.500 915.567 C 545.132 919.189, 543.842 919.500, 536.169 919.500 C 529.181 919.500, 527.618 919.198, 526.469 917.627 C 524.006 914.258, 527.639 903.218, 532.635 898.890 C 536.836 895.251, 549.827 881.386, 563.456 865.999 C 575.725 852.145, 577.389 850.409, 585.047 843.458 C 587.496 841.235, 591.843 836.471, 594.707 832.871 C 600.912 825.070, 609.806 816.707, 619.804 809.272 L 627.109 803.841 626.926 793.671 C 626.825 788.077, 626.525 782.038, 626.258 780.250 C 625.787 777.094, 625.631 777, 620.901 777 C 618.221 777, 614.110 776.557, 611.764 776.016 C 609.419 775.475, 606.271 774.793, 604.768 774.501 C 601.354 773.838, 595 768.368, 595 766.091 C 595 763.483, 604.476 752.618, 616.700 741.211 C 623.349 735.005, 628.772 728.998, 630.363 726.075 C 632.757 721.676, 632.999 720.229, 632.985 710.365 C 632.976 704.389, 632.556 698.846, 632.050 698.046 C 630.835 696.126, 627.543 697.833, 621.716 703.407 C 619.397 705.625, 613.675 710.633, 609 714.537 C 595.906 725.469, 562 758.403, 562 760.190 C 562 760.636, 561.378 761, 560.619 761 C 559.859 761, 557.960 762.688, 556.399 764.750 C 554.838 766.813, 552.532 769.322, 551.275 770.327 C 550.018 771.332, 548.429 772.711, 547.745 773.392 C 547.060 774.074, 543.355 776.739, 539.511 779.316 C 532.619 783.935, 532.408 784, 524.416 784 C 517.500 784, 516.036 783.697, 514.445 781.939 C 512.955 780.293, 512.847 779.713, 513.906 779.058 C 514.942 778.418, 515.080 776.078, 514.535 768.369 C 513.856 758.749, 513.917 758.324, 516.983 751.500 C 520.650 743.338, 524.618 736.828, 530.953 728.581 C 533.454 725.326, 537.525 719.643, 540 715.953 C 547.278 705.101, 591.208 652.136, 598.869 644.976 C 603.002 641.113, 631.687 608.374, 634.677 604.107 C 635.273 603.256, 638.430 606.819, 651.272 622.835 C 676.859 654.747, 683.567 663.546, 687.854 670.816 C 692.009 677.863, 699.915 689.771, 717.673 715.729 C 722.274 722.454, 727.474 730.104, 729.229 732.729 C 730.983 735.353, 732.774 737.650, 733.209 737.833 C 733.644 738.017, 734 738.514, 734 738.939 C 734 739.364, 739.890 748.439, 747.089 759.106 C 776.407 802.544, 791.556 828.094, 810.531 866.103 C 820.412 885.895, 823.596 893.295, 827.050 904.500 C 828.237 908.350, 830.257 913.975, 831.539 917 C 832.821 920.025, 834.540 925.200, 835.359 928.500 C 846.497 973.351, 847.059 1009.381, 836.994 1033.337 C 833.656 1041.281, 833.445 1042.536, 835.250 1043.723 C 835.938 1044.175, 838.716 1046.879, 841.424 1049.733 L 846.347 1054.921 838.871 1062.211 C 832.835 1068.096, 830.839 1070.848, 828.505 1076.500 C 826.915 1080.350, 823.001 1089.021, 819.807 1095.769 C 816.613 1102.517, 814 1108.644, 814 1109.384 C 814 1110.124, 813.100 1111.874, 812 1113.273 C 810.900 1114.671, 810 1116.113, 810 1116.478 C 810 1116.842, 808.538 1119.236, 806.750 1121.798 C 804.962 1124.360, 803.275 1127.011, 803 1127.688 C 801.620 1131.087, 789.750 1143.283, 784.250 1146.953 L 778 1151.123 778 1175.561 L 778 1200 784.590 1200 C 790.177 1200, 791.584 1199.630, 793.840 1197.565 C 798.610 1193.198, 811.594 1182.638, 820.138 1176.177 C 834.718 1165.152, 854.469 1151.024, 855.320 1151.012 C 855.771 1151.005, 858.180 1149.597, 860.673 1147.881 C 867.547 1143.151, 889.352 1132.341, 897.907 1129.420 C 902.083 1127.995, 906.533 1126.169, 907.795 1125.362 C 909.056 1124.555, 916.256 1122.327, 923.795 1120.410 C 936.274 1117.236, 938.842 1116.915, 952.500 1116.824 C 966.573 1116.730, 994.926 1119.571, 1003.500 1121.933 C 1007.317 1122.984, 1021.267 1128.524, 1026.500 1131.066 C 1037.561 1136.439, 1057.715 1152.051, 1061.838 1158.441 C 1063.634 1161.223, 1067.090 1166.200, 1069.518 1169.500 C 1071.946 1172.800, 1074.451 1177.075, 1075.084 1179 C 1075.718 1180.925, 1078.017 1186.294, 1080.195 1190.932 C 1083.748 1198.497, 1086.344 1207.650, 1089.151 1222.500 C 1090.932 1231.927, 1090.352 1258.420, 1088.081 1271.349 C 1086.937 1277.867, 1086 1284.457, 1086 1285.994 C 1086 1288.683, 1083.814 1296.976, 1080.332 1307.500 C 1077.943 1314.722, 1073.473 1323.699, 1066.888 1334.500 C 1065.205 1337.260, 1064.319 1338.856, 1059.671 1347.500 C 1058.784 1349.150, 1055.682 1353.142, 1052.779 1356.372 C 1049.875 1359.602, 1047.050 1362.758, 1046.500 1363.386 C 1045.950 1364.013, 1043.938 1366.771, 1042.030 1369.513 C 1040.121 1372.256, 1038.200 1374.950, 1037.760 1375.500 C 1034.276 1379.860, 1016.605 1404.657, 1009.577 1415.050 C 1004.740 1422.202, 1004.055 1423.307, 1002.481 1426.500 C 1001.667 1428.150, 999.879 1431.300, 998.507 1433.500 C 997.136 1435.700, 995.712 1438.175, 995.344 1439 C 994.976 1439.825, 993.911 1441.625, 992.979 1443 C 992.046 1444.375, 989.127 1449.550, 986.493 1454.500 C 983.858 1459.450, 981.375 1463.950, 980.975 1464.500 C 980.574 1465.050, 978.348 1470, 976.027 1475.500 C 973.707 1481, 971.187 1486.955, 970.428 1488.734 C 969.147 1491.736, 968.848 1491.893, 966.276 1490.915 C 964.751 1490.335, 962.787 1489.213, 961.912 1488.420 C 961.037 1487.628, 955.411 1484.778, 949.410 1482.086 C 925.621 1471.416, 898.786 1453.673, 883.490 1438.500 C 875.212 1430.289, 872.710 1427.069, 869.506 1420.500 C 865.661 1412.619, 865.597 1412.300, 865.195 1399 L 864.788 1385.500 821.644 1386 L 778.500 1386.500 778.586 1390 C 778.633 1391.925, 779.030 1411.826, 779.467 1434.224 C 780.219 1472.735, 780.364 1474.981, 782.131 1475.542 C 783.159 1475.868, 784 1476.554, 784 1477.067 C 784 1477.580, 784.472 1478, 785.049 1478 C 785.625 1478, 788.807 1479.800, 792.119 1482 C 795.431 1484.200, 798.522 1486, 798.987 1486 C 799.453 1486, 799.983 1486.341, 800.167 1486.757 C 800.350 1487.174, 802.525 1489.080, 805 1490.993 C 807.475 1492.906, 810.095 1495.040, 810.821 1495.736 C 811.548 1496.431, 812.345 1497, 812.592 1497 C 813.180 1497, 809.659 1490.323, 807.056 1486.500 C 804.104 1482.165, 804.204 1473.034, 807.250 1468.769 C 814.028 1459.278, 816.826 1456.260, 826.905 1447.569 C 832.182 1443.019, 838.027 1437.864, 839.894 1436.113 C 841.760 1434.362, 843.641 1433.058, 844.074 1433.215 C 844.506 1433.372, 847.254 1435.783, 850.180 1438.574 C 856.128 1444.247, 862.685 1450.063, 871.517 1457.500 C 874.783 1460.250, 879.715 1464.546, 882.477 1467.048 C 887.515 1471.609, 897.808 1480.360, 906.077 1487.111 C 912.342 1492.227, 938.443 1511.756, 944.457 1515.829 C 947.231 1517.707, 952.364 1520.771, 955.866 1522.639 L 962.231 1526.034 986.866 1525.767 L 1011.500 1525.500 1012.039 1516 C 1012.335 1510.775, 1013.176 1503.575, 1013.907 1500 C 1015.269 1493.338, 1018.753 1482.287, 1020.054 1480.500 C 1020.455 1479.950, 1021.491 1477.475, 1022.358 1475 C 1026.455 1463.300, 1027.430 1460.881, 1031.622 1452 C 1034.089 1446.775, 1038.221 1439.127, 1040.804 1435.005 C 1046.054 1426.626, 1046.017 1426.687, 1051.320 1417.859 C 1053.421 1414.362, 1058.689 1406.100, 1063.027 1399.500 C 1087.916 1361.635, 1097.549 1345.660, 1106.327 1327.693 C 1116.348 1307.181, 1118.740 1299.972, 1123.645 1275.500 C 1126.052 1263.485, 1126.446 1259.160, 1126.422 1245 C 1126.394 1228.608, 1126.364 1228.386, 1121.769 1211 C 1115.641 1187.813, 1107.797 1170.378, 1097.822 1157.774 C 1094.895 1154.075, 1090.383 1148.225, 1087.795 1144.774 C 1079.866 1134.199, 1069.194 1124.607, 1054.147 1114.529 C 1029.748 1098.189, 1011.215 1090.349, 991.496 1088.027 C 987.098 1087.509, 980.800 1086.563, 977.500 1085.925 C 974.200 1085.286, 964.525 1084.705, 956 1084.632 C 940.183 1084.497, 936.323 1085.048, 918 1090.051 C 914.425 1091.027, 908.575 1092.565, 905 1093.469 C 901.425 1094.373, 892.875 1096.888, 886 1099.057 C 879.125 1101.226, 872.234 1103.281, 870.686 1103.625 L 867.873 1104.249 868.440 1098.374 C 868.752 1095.143, 869.926 1080.125, 871.049 1065 C 872.171 1049.875, 873.519 1035.055, 874.045 1032.066 C 875.524 1023.650, 875.178 984.596, 873.468 967.141 C 870.576 937.610, 868.930 927.497, 864.086 909.500 C 858.507 888.772, 854.952 878.352, 848.904 865 C 842.826 851.581, 832.430 831.656, 827.513 824 C 825.217 820.425, 821.238 814.223, 818.669 810.219 C 816.101 806.214, 814 802.702, 814 802.414 C 814 802.126, 812.264 799.327, 810.142 796.195 C 808.021 793.063, 802.989 785.100, 798.960 778.500 C 792.848 768.487, 776.861 743.518, 762.464 721.500 C 758.531 715.486, 757.030 712.862, 746.412 693.443 C 741.884 685.162, 735.776 674.288, 732.839 669.280 C 717.074 642.393, 713.968 636.757, 709.267 626.500 C 703.476 613.863, 672.952 553.378, 666.505 541.762 L 661.655 533.024 653.077 533.158 C 648.360 533.232, 613.675 533.045, 576 532.743 C 538.325 532.441, 497.825 532.567, 486 533.024 M 397.672 594.125 C 397.868 597.081, 398.447 606.862, 398.958 615.860 C 399.469 624.859, 400.120 632.453, 400.404 632.738 C 401.263 633.596, 409.209 634.908, 414 634.983 C 417.206 635.033, 420.590 636.162, 425.771 638.912 L 433.042 642.772 436.021 639.158 C 437.660 637.171, 439 635.120, 439 634.601 C 439 634.082, 439.634 632.947, 440.408 632.079 C 441.182 631.210, 443.679 626.951, 445.955 622.612 C 449.498 615.863, 450.052 613.987, 449.797 609.612 L 449.500 604.500 444.500 603.962 C 441.750 603.666, 438.474 602.856, 437.220 602.161 C 435.966 601.466, 432.325 600.062, 429.128 599.041 C 425.931 598.020, 420.005 595.517, 415.959 593.479 C 411.075 591.020, 406.704 589.602, 402.958 589.262 L 397.315 588.751 397.672 594.125 M 389.679 794.633 C 388.608 798.409, 387.960 802.866, 386.068 819.500 C 384.268 835.317, 384.233 837.677, 385.560 853.410 C 386.344 862.710, 387.202 870.536, 387.467 870.801 C 388.318 871.652, 402.968 856.815, 411.462 846.500 C 415.991 841, 421.586 833.493, 423.895 829.817 C 428.700 822.171, 434.477 809.174, 435.393 803.949 C 436.016 800.399, 436.014 800.398, 431.258 799.281 C 428.641 798.666, 423.800 797.156, 420.500 795.924 C 415.911 794.211, 411.644 793.576, 402.355 793.225 C 391.135 792.801, 390.169 792.908, 389.679 794.633 M 486.500 838.715 C 484.300 840.143, 480.143 842.867, 477.262 844.769 C 472.313 848.036, 460.192 861.308, 456.288 867.734 C 455.305 869.353, 453.153 872.663, 451.506 875.089 C 448.938 878.873, 442.682 896.823, 443.572 897.856 C 444.385 898.801, 454.111 894.217, 459 890.586 C 466.999 884.643, 485 866.457, 485 864.317 C 485 863.954, 485.695 862.889, 486.545 861.950 C 489.539 858.642, 493.678 835.865, 491.250 836.060 C 490.837 836.093, 488.700 837.288, 486.500 838.715 M 510.325 943.589 C 506.021 948.312, 502.194 952.991, 501.820 953.986 C 501.446 954.981, 500.691 956.073, 500.143 956.412 C 499.595 956.751, 498.630 958.709, 498 960.764 C 497.370 962.819, 495.363 968.550, 493.540 973.500 C 490.207 982.550, 487 992.892, 487 994.588 C 487 995.974, 503.013 995.383, 507.034 993.848 C 508.977 993.107, 512.368 990.475, 514.569 988 C 518.317 983.785, 519.752 981.060, 524.839 968.500 C 526.304 964.885, 527.021 963.985, 527.432 965.250 C 527.744 966.212, 528.236 967.739, 528.524 968.643 C 528.811 969.547, 529.334 970, 529.684 969.650 C 530.034 969.299, 529.526 966.197, 528.554 962.756 C 527.582 959.315, 525.929 953.350, 524.879 949.500 C 521.509 937.134, 520.705 935, 519.415 935 C 518.720 935, 514.629 938.865, 510.325 943.589 M 414.560 943.934 C 407.617 951.606, 408.835 979.135, 416.482 987.387 C 418.422 989.479, 419.379 989.867, 420.769 989.123 C 424.142 987.318, 446.053 964.586, 448.586 960.263 C 450.314 957.315, 451.019 954.813, 450.809 952.381 L 450.500 948.818 441.224 948.429 C 431.633 948.028, 422.724 946.017, 419.406 943.506 C 416.917 941.623, 416.628 941.648, 414.560 943.934 M 958.572 1200.500 C 959.257 1242.662, 959.348 1243.467, 964.196 1250.275 C 965.433 1252.012, 967.667 1256.017, 969.160 1259.174 C 972.707 1266.675, 976.436 1288.126, 975.663 1296.581 C 974.758 1306.473, 971.027 1323.247, 968.939 1326.807 C 967.873 1328.626, 967 1330.544, 967 1331.069 C 967 1331.594, 965.417 1335.314, 963.482 1339.336 L 959.965 1346.647 960.232 1371.996 L 960.500 1397.345 966.124 1389.922 C 969.216 1385.840, 972.762 1381.375, 974.003 1380 C 975.244 1378.625, 978.281 1374.350, 980.752 1370.500 C 983.223 1366.650, 986.744 1361.648, 988.578 1359.385 C 990.412 1357.122, 992.967 1353.297, 994.255 1350.885 C 995.542 1348.473, 998.191 1344.014, 1000.141 1340.976 C 1006.895 1330.452, 1016.770 1308.792, 1019.044 1299.515 C 1021.236 1290.576, 1021.238 1290.469, 1019.491 1278.515 C 1018.525 1271.907, 1017.027 1264.704, 1016.163 1262.510 C 1014.249 1257.651, 1004.357 1244.473, 994.013 1233 C 986.375 1224.529, 978 1213.898, 978 1212.674 C 978 1212.320, 976.647 1209.831, 974.993 1207.144 C 970.928 1200.537, 963.816 1181.132, 961.013 1169 C 960.314 1165.975, 959.333 1162.825, 958.833 1162 C 958.283 1161.094, 958.180 1176.343, 958.572 1200.500 M 84.978 1613.080 C 83.964 1616.847, 84.070 1617.445, 86.139 1619.648 C 88.254 1621.899, 89.024 1622.051, 96.953 1621.786 L 105.490 1621.500 107.301 1617.648 C 108.297 1615.529, 108.974 1612.829, 108.806 1611.648 C 108.517 1609.617, 107.892 1609.485, 97.297 1609.218 L 86.094 1608.935 84.978 1613.080 M 45 1617.134 C 41.975 1618.762, 37.639 1621.780, 35.364 1623.839 C 31.969 1626.914, 31.015 1628.612, 30.037 1633.320 C 27.975 1643.257, 30.228 1655.206, 35.257 1661 C 35.973 1661.825, 39.326 1663.963, 42.709 1665.750 C 48.236 1668.671, 49.709 1669, 57.263 1669 C 66.052 1669, 67.675 1668.518, 65.937 1666.424 C 64.610 1664.825, 59 1648.415, 59 1646.132 C 59 1645.191, 58.394 1641.963, 57.654 1638.960 C 56.913 1635.957, 55.240 1629.112, 53.935 1623.750 C 52.630 1618.388, 51.324 1614.039, 51.031 1614.087 C 50.739 1614.135, 48.025 1615.506, 45 1617.134" stroke="none" fill="#050505" fill-rule="evenodd"/><path d="M 420 2.693 C 417.525 4.257, 412.350 6.581, 408.500 7.857 C 404.650 9.134, 400.600 10.579, 399.500 11.069 C 398.400 11.558, 396.375 12.424, 395 12.994 C 389.385 15.318, 364.330 32.021, 359.027 36.975 C 357.246 38.639, 355.561 40, 355.283 40 C 354.402 40, 344.675 48.304, 340 53.048 C 333.555 59.588, 322.233 69.549, 312.207 77.500 C 309.841 79.377, 300.104 88.536, 284.925 103.164 C 277.481 110.337, 268.633 121.183, 261.808 131.500 C 256.252 139.901, 247 157.424, 247 159.548 C 247 160.383, 245.875 163.287, 244.500 166 C 243.125 168.713, 242 171.554, 242 172.313 C 242 173.072, 241.341 175.014, 240.535 176.630 C 239.729 178.245, 238.266 182.477, 237.285 186.033 C 235.729 191.669, 235.524 196.418, 235.691 223 C 235.893 255.359, 236.074 256.982, 241.990 279.500 C 244.158 287.750, 244.689 289.644, 247.455 299 C 248.350 302.025, 249.483 306.037, 249.973 307.917 C 250.463 309.796, 251.520 312.721, 252.321 314.417 C 260.470 331.664, 262.931 336.590, 266.847 343.500 C 282.643 371.367, 295.029 384.874, 320.919 402.463 C 329.318 408.170, 334.327 410.658, 344 413.932 C 347.575 415.141, 351.400 416.533, 352.500 417.025 C 356.363 418.751, 375.944 421.144, 387.661 421.321 C 399.831 421.505, 413.447 419.937, 420.500 417.538 C 422.700 416.790, 426.921 415.629, 429.881 414.958 C 437.439 413.244, 451.033 407.609, 458.382 403.145 C 461.801 401.068, 465.361 399.076, 466.292 398.718 C 467.223 398.361, 472.080 395.241, 477.085 391.784 C 482.090 388.328, 486.931 385.050, 487.842 384.500 C 488.754 383.950, 489.725 383.253, 490 382.952 C 490.275 382.650, 492.075 381.338, 494 380.036 C 498.074 377.281, 516.669 358.699, 522.500 351.557 C 524.700 348.862, 529.078 343.496, 532.230 339.632 C 535.381 335.767, 539.539 329.657, 541.470 326.053 C 543.401 322.449, 545.660 318.375, 546.489 317 C 547.318 315.625, 548.446 313.375, 548.996 312 C 549.986 309.523, 550.864 307.994, 554.250 302.850 C 557.952 297.226, 556.278 296.701, 548.794 301.140 C 541.973 305.185, 539.225 306.729, 529.500 311.979 C 525.100 314.354, 520.306 317.131, 518.846 318.149 C 517.386 319.167, 515.753 320, 515.218 320 C 514.683 320, 513.692 320.666, 513.017 321.479 C 512.342 322.293, 510.599 323.569, 509.145 324.316 C 507.690 325.062, 504.700 326.714, 502.500 327.986 C 500.300 329.258, 493.775 332.763, 488 335.775 C 482.225 338.787, 477.050 341.585, 476.500 341.993 C 474.765 343.280, 464.853 348.570, 455 353.466 C 449.775 356.062, 444.375 358.844, 443 359.648 C 441.625 360.452, 438.925 361.771, 437 362.580 C 435.075 363.389, 432.719 364.489, 431.764 365.025 C 430.809 365.561, 429.431 366, 428.701 366 C 427.972 366, 425.604 366.846, 423.438 367.880 C 419.886 369.577, 402.738 371.809, 397.742 371.226 C 396.775 371.113, 391.813 370.637, 386.714 370.169 C 379.251 369.483, 375.923 368.604, 369.633 365.658 C 365.337 363.646, 361.612 362, 361.356 362 C 359.732 362, 347.622 352.710, 343.191 348.065 C 338.150 342.781, 336.693 340.535, 331.475 330 C 325.120 317.168, 325.091 317.074, 318.051 286.500 C 315.391 274.949, 314.728 266.101, 315.255 249.207 C 315.559 239.468, 316.316 228.800, 316.938 225.500 C 323.515 190.587, 324.814 185.525, 330.154 174 C 336.925 159.386, 354.292 124.752, 357.483 119.500 C 358.820 117.300, 359.933 114.713, 359.957 113.750 C 359.980 112.787, 360.380 112, 360.845 112 C 361.693 112, 371 94.506, 371 92.912 C 371 92.445, 370.216 92.364, 369.258 92.731 C 367.591 93.371, 369.917 89.947, 376.952 81.408 C 378.354 79.707, 380.175 77.274, 381 76 C 383.892 71.535, 390.608 63.824, 400.041 54.136 C 406.247 47.762, 421.544 35.687, 430.856 29.811 C 441.310 23.216, 446.613 21.211, 456.997 19.931 C 461.124 19.423, 467.650 18.506, 471.500 17.894 C 475.350 17.283, 484.125 16.448, 491 16.041 C 497.875 15.633, 508.675 14.568, 515 13.675 C 521.325 12.781, 527.175 12.110, 528 12.183 C 532.319 12.564, 533.851 11.866, 534.824 9.074 C 535.385 7.465, 537.004 5.388, 538.422 4.459 C 539.840 3.530, 541 2.343, 541 1.821 C 541 1.231, 521.630 0.991, 489.750 1.186 C 461.563 1.359, 435.350 1.129, 431.500 0.675 C 424.838 -0.111, 424.283 -0.013, 420 2.693 M 768 221.011 C 754.525 221.347, 742.150 222.109, 740.500 222.706 C 733.334 225.296, 727.251 227.208, 723.951 227.907 C 721.999 228.320, 716.149 230.781, 710.951 233.375 C 702.447 237.619, 697.867 240.665, 689.948 247.347 C 688.544 248.531, 684.494 251.475, 680.948 253.889 C 677.401 256.303, 673.600 259.117, 672.500 260.140 C 671.400 261.164, 668.215 263.751, 665.423 265.887 C 662.631 268.024, 656.150 274.661, 651.021 280.636 C 645.893 286.611, 640.956 292.175, 640.051 293 C 639.147 293.825, 637.077 296.525, 635.453 299 C 633.829 301.475, 632 303.950, 631.389 304.500 C 630.778 305.050, 628.779 307.750, 626.947 310.500 C 625.115 313.250, 623.253 315.650, 622.808 315.833 C 622.364 316.017, 622 316.633, 622 317.203 C 622 317.772, 620.315 320.997, 618.254 324.369 C 613.110 332.789, 608.235 343.113, 601.098 360.699 C 598.915 366.079, 596 388.657, 596 400.190 C 596 407.966, 599.218 420.583, 603.603 430 C 606.764 436.789, 607.778 437.982, 614.297 442.587 C 622.493 448.376, 624.239 449.104, 636 451.638 C 648.174 454.261, 685.179 454.253, 699.500 451.625 C 716.714 448.465, 733.896 443.805, 742.777 439.887 C 745.129 438.849, 747.723 438, 748.540 438 C 749.358 438, 750.809 437.605, 751.764 437.123 C 754.069 435.958, 760.350 434, 761.781 434 C 762.407 434, 765.750 432.204, 769.210 430.010 C 772.669 427.815, 776.063 426.015, 776.750 426.010 C 777.438 426.004, 778 425.660, 778 425.244 C 778 424.828, 779.462 423.862, 781.250 423.096 C 783.038 422.330, 788.693 418.551, 793.817 414.699 C 800.710 409.517, 803.883 406.370, 806.017 402.598 C 807.603 399.794, 809.598 396.621, 810.450 395.547 C 811.303 394.472, 812 393.022, 812 392.323 C 812 391.625, 812.985 389.026, 814.189 386.549 C 815.392 384.071, 816.050 381.717, 815.650 381.317 C 815.251 380.917, 813.478 381.166, 811.712 381.869 C 807.609 383.503, 803.507 384.904, 787.500 390.135 C 780.350 392.471, 773.375 394.969, 772 395.686 C 770.625 396.402, 768.894 396.990, 768.154 396.994 C 767.414 396.997, 765.614 397.641, 764.154 398.425 C 762.694 399.209, 758.800 400.845, 755.500 402.060 C 752.200 403.276, 747.700 405.089, 745.500 406.088 C 733.318 411.622, 717.499 416.524, 699.500 420.341 C 693.246 421.667, 677.319 421.657, 665.500 420.318 C 658.100 419.480, 655.304 418.636, 649.770 415.569 C 636.652 408.298, 631 397.077, 631 378.306 C 631 362.009, 635.587 349.471, 644.695 340.872 C 649.196 336.624, 664.028 326, 665.459 326 C 665.795 326, 667.198 325.261, 668.576 324.358 C 669.954 323.455, 672.570 322.583, 674.389 322.420 C 676.208 322.256, 681.851 320.928, 686.928 319.467 C 700.800 315.476, 719.897 311.641, 738.500 309.110 C 750.599 307.464, 775.045 304.120, 779 303.570 C 790.035 302.036, 802.901 299.196, 806.143 297.579 C 807.703 296.800, 810.447 295.845, 812.240 295.456 C 814.033 295.068, 818.875 293.144, 823 291.182 C 835.575 285.199, 843.091 278.468, 848.323 268.500 C 851.365 262.706, 851.473 262.072, 851.486 250 C 851.501 236.933, 851.382 236.466, 845.262 225.500 C 844.648 224.400, 843.902 222.713, 843.604 221.750 C 843.105 220.137, 841.088 220.016, 817.781 220.201 C 803.877 220.312, 781.475 220.676, 768 221.011 M 765.500 256.949 L 750.500 257.500 744.482 261.181 C 741.172 263.206, 737.391 265.794, 736.079 266.931 C 734.767 268.069, 733.425 269.006, 733.097 269.013 C 732.769 269.019, 728.675 272.732, 724 277.263 L 715.500 285.500 747.307 285.764 C 774.415 285.989, 779.335 285.808, 780.606 284.536 C 781.427 283.716, 782.864 282.472, 783.799 281.772 C 785.361 280.604, 791 270.264, 791 268.570 C 791 268.168, 792.575 265.466, 794.500 262.566 C 796.425 259.666, 798 257.002, 798 256.646 C 798 255.967, 790.274 256.038, 765.500 256.949 M 989.250 299.105 C 986.362 300.788, 984 302.578, 984 303.083 C 984 303.587, 983.394 304, 982.654 304 C 981.307 304, 968.476 314.266, 964.261 318.716 C 963.029 320.016, 959.445 324.325, 956.297 328.290 C 953.149 332.256, 950.107 335.992, 949.537 336.593 C 948.966 337.193, 946.025 340.540, 943 344.030 C 938.023 349.772, 935.284 352.821, 925.065 364 C 922.111 367.232, 916.339 374.644, 911.500 381.421 C 910.400 382.961, 909.039 384.734, 908.475 385.361 C 907.911 385.987, 905.248 389.425, 902.557 393 C 895.858 401.899, 891.604 407.403, 890.963 408 C 888.128 410.641, 860.978 445.891, 860.192 447.952 C 859.867 448.803, 859.224 449.950, 858.764 450.500 C 857.979 451.438, 850.719 462.302, 848.488 465.878 C 845.988 469.883, 843.444 473.587, 842.513 474.574 C 841.956 475.165, 840.493 476.965, 839.263 478.574 C 838.032 480.183, 834.943 484.200, 832.398 487.500 C 826.356 495.335, 825 498.695, 825 505.833 C 825 512.738, 827.217 516.357, 832.901 518.732 C 834.862 519.551, 837.547 521.072, 838.868 522.111 C 840.992 523.781, 843.092 524, 856.999 524 L 872.728 524 883.614 518.322 C 889.601 515.199, 899.450 510.053, 905.500 506.886 C 918.562 500.048, 928.753 494.736, 947 485.252 C 954.425 481.393, 963.200 476.782, 966.500 475.006 C 975.877 469.960, 986.853 464.469, 994.500 461 C 998.350 459.253, 1003.795 456.738, 1006.600 455.412 C 1015.273 451.310, 1015.494 451.973, 1009.467 464 C 1002.248 478.405, 994 495.612, 994 496.267 C 994 496.650, 992.156 500.909, 989.902 505.731 C 987.648 510.554, 985.430 515.400, 984.972 516.500 C 984.515 517.600, 982.566 522.100, 980.641 526.500 C 978.717 530.900, 974.854 540.800, 972.058 548.500 C 964.517 569.265, 964.168 580.087, 970.574 594.570 C 971.821 597.391, 973.458 600.329, 974.212 601.099 C 974.965 601.870, 976.278 603.508, 977.128 604.740 C 979.098 607.594, 989.524 619.374, 993.656 623.414 C 998.542 628.191, 1000.950 630.221, 1008.500 635.928 C 1012.350 638.839, 1017.235 643.192, 1019.355 645.603 C 1023.163 649.933, 1031.772 656.115, 1041.500 661.506 C 1053.498 668.155, 1069.223 676, 1070.553 676 C 1071.349 676, 1072 676.352, 1072 676.782 C 1072 677.212, 1074.138 678.189, 1076.750 678.954 C 1079.362 679.719, 1082.850 681.091, 1084.500 682.004 C 1086.150 682.917, 1093.575 686.015, 1101 688.888 C 1108.425 691.761, 1116.698 694.986, 1119.383 696.056 C 1122.069 697.125, 1125.017 698, 1125.933 698 C 1126.850 698, 1128.028 698.399, 1128.550 698.886 C 1129.073 699.374, 1132.875 700.798, 1137 702.052 C 1141.125 703.306, 1144.950 704.638, 1145.500 705.013 C 1148.081 706.772, 1160.386 709.997, 1168.500 711.041 C 1173.450 711.678, 1178.805 712.604, 1180.399 713.099 C 1181.994 713.595, 1184.581 714, 1186.149 714 C 1187.717 714, 1189 714.472, 1189 715.048 C 1189 715.624, 1187.389 718.614, 1185.421 721.691 C 1183.452 724.769, 1181.421 728.235, 1180.906 729.393 C 1180.391 730.552, 1179.090 732.850, 1178.013 734.500 C 1175.685 738.070, 1173.081 742.456, 1168.666 750.245 C 1166.875 753.405, 1164.868 756.532, 1164.205 757.195 C 1163.542 757.858, 1163 758.881, 1163 759.468 C 1163 760.055, 1161.875 762.191, 1160.500 764.215 C 1159.125 766.238, 1158 768.791, 1158 769.888 C 1158 770.985, 1157.589 772.136, 1157.087 772.446 C 1155.577 773.379, 1147.932 788.866, 1146.348 794.200 C 1144.447 800.603, 1145.829 807.733, 1149.990 812.987 C 1151.616 815.040, 1152.621 817.080, 1152.223 817.520 C 1151.825 817.961, 1152.131 817.955, 1152.902 817.508 C 1153.767 817.006, 1154.724 817.245, 1155.402 818.134 C 1156.006 818.926, 1157.968 820.604, 1159.762 821.863 C 1161.556 823.123, 1162.790 824.530, 1162.506 824.991 C 1162.221 825.452, 1162.337 825.980, 1162.764 826.165 C 1163.191 826.349, 1165.240 828.975, 1167.318 832 C 1173.151 840.492, 1175.917 844.278, 1178.274 847 C 1180.842 849.967, 1182.225 859.446, 1181.409 868.500 C 1180.979 873.275, 1181.392 876.089, 1183.434 882.281 C 1184.845 886.560, 1186 891.017, 1186 892.185 C 1186 895.530, 1192.483 906.247, 1196.161 908.983 C 1197.998 910.349, 1202.425 913.463, 1206 915.904 C 1209.575 918.345, 1212.725 920.605, 1213 920.926 C 1213.275 921.247, 1217.998 923.719, 1223.495 926.420 C 1240.676 934.861, 1275.700 946.613, 1293.500 949.911 C 1300.100 951.134, 1307.863 952.626, 1310.752 953.227 C 1314.651 954.038, 1316.660 954.020, 1318.549 953.160 C 1319.949 952.522, 1322.448 952, 1324.102 952 C 1328.898 952, 1342.785 944.080, 1341.536 942.058 C 1339.954 939.498, 1319.821 931.278, 1312 929.998 C 1309.525 929.593, 1305.250 928.576, 1302.500 927.738 C 1295.056 925.468, 1285.120 922.956, 1279.712 921.976 C 1277.078 921.499, 1273.522 920.409, 1271.808 919.554 C 1270.095 918.699, 1267.974 918, 1267.096 917.999 C 1260.206 917.997, 1236.399 903.194, 1223.674 891 L 1215.848 883.500 1214.880 875.486 C 1213.720 865.875, 1215.439 856.696, 1219.337 851.693 C 1225.391 843.922, 1227.754 842.157, 1238.195 837.600 C 1247.605 833.493, 1250.128 832.830, 1259.195 832.080 C 1274.029 830.854, 1310.511 832.282, 1321 834.500 C 1330.694 836.549, 1343.404 840.202, 1348.226 842.324 C 1350.027 843.117, 1353.075 844.314, 1355 844.984 C 1356.925 845.654, 1359.625 846.667, 1361 847.235 C 1362.375 847.803, 1364.400 848.640, 1365.500 849.095 C 1366.600 849.550, 1369.975 850.680, 1373 851.605 C 1376.025 852.530, 1380.876 854.347, 1383.780 855.643 C 1386.683 856.940, 1389.502 858, 1390.043 858 C 1390.584 858, 1391.809 858.416, 1392.764 858.924 C 1393.719 859.432, 1399.450 861.765, 1405.500 864.109 C 1411.550 866.453, 1419.650 869.874, 1423.500 871.711 C 1430.058 874.841, 1430.938 875.009, 1437.452 874.377 C 1442.111 873.924, 1445.059 873.091, 1446.390 871.851 C 1447.483 870.833, 1448.951 870, 1449.653 870 C 1450.952 870, 1453 866.990, 1453 865.082 C 1453 862.359, 1434.772 845.944, 1423.441 838.462 C 1411.073 830.296, 1409.940 829.594, 1402.079 825.224 C 1399.560 823.823, 1393.956 820.462, 1389.624 817.753 C 1385.293 815.045, 1379.893 812.229, 1377.624 811.497 C 1375.356 810.765, 1369.675 808.752, 1365 807.024 C 1360.325 805.296, 1352.450 802.815, 1347.500 801.511 C 1342.550 800.206, 1336.504 798.423, 1334.064 797.548 C 1328.518 795.559, 1318.067 792.970, 1311.500 791.957 C 1308.750 791.532, 1303.575 790.688, 1300 790.080 C 1287.183 787.900, 1261.003 787.081, 1235.500 788.061 C 1221.750 788.590, 1208.588 789.290, 1206.250 789.616 L 1202 790.210 1202.024 783.855 C 1202.067 772.437, 1202.803 770.951, 1214.244 759.211 C 1230.252 742.784, 1236.324 736.247, 1244.167 727 C 1248.132 722.325, 1251.854 717.990, 1252.438 717.366 C 1253.022 716.742, 1258.450 710.279, 1264.500 703.002 C 1270.550 695.726, 1277.685 687.236, 1280.357 684.136 C 1285.019 678.726, 1300.375 656.910, 1306.378 647.170 C 1308.310 644.035, 1309.586 640.161, 1310.262 635.383 C 1311.207 628.703, 1311.107 627.915, 1308.648 622.542 C 1305.659 616.014, 1297.359 605.142, 1293.261 602.390 C 1290.205 600.336, 1288.920 599.606, 1281.205 595.536 L 1275.910 592.743 1241.268 592.929 C 1222.214 593.031, 1206.259 593.340, 1205.812 593.616 C 1205.366 593.892, 1205 596.762, 1205 599.994 C 1205 606.300, 1204.162 609.158, 1201.241 612.816 L 1199.393 615.131 1187.682 609.566 C 1181.242 606.504, 1175.748 604, 1175.475 604 C 1175.202 604, 1173.071 603.126, 1170.739 602.057 C 1164.535 599.213, 1145.289 592.970, 1139.500 591.924 C 1136.750 591.428, 1130.225 590.074, 1125 588.916 C 1119.775 587.758, 1111.450 585.928, 1106.500 584.848 C 1101.550 583.768, 1093.225 581.944, 1088 580.793 C 1075.342 578.007, 1058.960 577.970, 1046 580.700 C 1040.775 581.801, 1035.233 583.219, 1033.685 583.851 C 1032.137 584.483, 1027.064 585, 1022.413 585 C 1014.364 585, 1013.902 585.120, 1012.818 587.500 C 1009.215 595.407, 1009.823 582.359, 1013.579 571.171 C 1016.996 560.990, 1024.697 543.404, 1027.892 538.484 C 1032.235 531.796, 1032.867 530.724, 1036.080 524.604 C 1039.401 518.280, 1059.338 490.847, 1067.250 481.714 C 1068.213 480.603, 1069.012 479.425, 1069.027 479.097 C 1069.041 478.769, 1070.847 476.475, 1073.039 474 C 1078.518 467.814, 1078.548 467.774, 1080.934 463.391 C 1086.261 453.608, 1087.853 450.982, 1098.147 435 C 1105.658 423.339, 1117.326 399.016, 1119.886 389.683 C 1123.425 376.785, 1125.621 377.996, 1098.750 378.027 L 1075.500 378.055 1069.063 385.027 C 1065.522 388.862, 1062.274 392, 1061.846 392 C 1061.202 392, 1041.622 407.215, 1040 408.976 C 1039.225 409.817, 1030.793 415.304, 1028 416.784 C 1026.625 417.512, 1023.839 419.434, 1021.809 421.054 C 1019.778 422.674, 1017.641 424, 1017.059 424 C 1016.476 424, 1016 424.450, 1016 425 C 1016 425.550, 1015.553 426, 1015.006 426 C 1014.086 426, 1006.791 429.525, 986.500 439.773 C 976.600 444.773, 965.202 450, 964.197 450 C 963.784 450, 962.332 450.785, 960.973 451.744 C 958.584 453.428, 950.610 456.680, 946.500 457.646 C 943.335 458.390, 930.704 462.220, 928.500 463.104 C 920.795 466.194, 911.486 468, 903.265 468 C 890.440 468, 890.261 467.329, 900.299 456.864 C 907.951 448.886, 922.072 433.781, 938.464 416.038 C 942.295 411.892, 947.968 405.800, 951.071 402.500 C 954.174 399.200, 958.915 393.986, 961.607 390.914 C 964.298 387.842, 969.103 382.354, 972.284 378.719 C 983.260 366.175, 999.056 344.593, 1003.377 336.239 C 1006.088 330.995, 1006.315 324.216, 1004.093 314.798 C 1002.255 307.008, 997.002 295.961, 995.164 296.022 C 994.799 296.034, 992.138 297.421, 989.250 299.105 M 511 531.610 C 512.375 531.780, 540.950 532.050, 574.500 532.210 C 608.050 532.369, 630.550 532.220, 624.500 531.877 C 613.641 531.262, 506.157 531.009, 511 531.610 M 482.299 532.745 C 487.139 532.929, 494.789 532.928, 499.299 532.743 C 503.810 532.558, 499.850 532.408, 490.500 532.409 C 481.150 532.410, 477.460 532.562, 482.299 532.745 M 1355.585 563.034 C 1350.131 563.517, 1344.971 564.181, 1344.117 564.509 C 1343.263 564.836, 1339.375 565.509, 1335.477 566.003 C 1331.579 566.497, 1327.158 567.369, 1325.654 567.941 C 1323.217 568.868, 1323.048 569.220, 1324.095 571.178 C 1328.058 578.583, 1336.497 585.827, 1349.500 592.986 C 1361.776 599.744, 1365.611 601.602, 1370 602.914 C 1372.475 603.654, 1376.017 604.923, 1377.872 605.734 C 1388.772 610.503, 1397.190 612, 1413.112 612 C 1427.314 612, 1428.418 611.857, 1433.522 609.358 C 1442.499 604.962, 1442.564 604.819, 1444.453 585.143 C 1445.370 575.597, 1445.931 567.598, 1445.701 567.368 C 1445.471 567.138, 1439.257 566.477, 1431.891 565.899 C 1424.526 565.321, 1413.550 564.433, 1407.500 563.926 C 1390.261 562.481, 1366.443 562.072, 1355.585 563.034 M 623.384 617.750 C 620.711 620.913, 616.494 625.789, 614.012 628.586 C 609.751 633.389, 609.806 633.359, 615 628.051 C 620.979 621.940, 629.473 612, 628.715 612 C 628.455 612, 626.056 614.587, 623.384 617.750 M 1130.218 618.078 C 1126.762 618.523, 1122.531 619.587, 1120.814 620.443 C 1119.097 621.299, 1117.171 622, 1116.534 622 C 1115.896 622, 1113.042 623.125, 1110.192 624.500 C 1107.342 625.875, 1104.851 627, 1104.657 627 C 1103.772 627, 1080.989 642.699, 1076.750 646.229 C 1071.495 650.607, 1071.085 651.920, 1073.939 655.242 C 1075.006 656.484, 1076.815 658.625, 1077.959 660 C 1081.822 664.641, 1089.191 672, 1089.976 672 C 1090.404 672, 1091.343 672.708, 1092.061 673.573 C 1094.103 676.034, 1100.849 679.259, 1108.500 681.433 C 1114.647 683.179, 1119.215 683.462, 1146 683.754 C 1172.193 684.039, 1177.277 683.852, 1182 682.426 C 1187.619 680.731, 1199.099 676.016, 1200 675.034 C 1200.275 674.734, 1202.089 673.306, 1204.032 671.860 C 1209.255 667.972, 1215.594 658.195, 1216.407 652.771 L 1217.093 648.200 1211.296 644.891 C 1208.108 643.072, 1203.932 640.523, 1202.016 639.227 C 1200.100 637.932, 1197.175 636.279, 1195.516 635.554 C 1193.857 634.830, 1190.925 633.556, 1189 632.724 C 1187.075 631.892, 1183.475 630.319, 1181 629.229 C 1178.525 628.139, 1174.475 626.366, 1171.999 625.290 C 1157.816 619.123, 1142.567 616.491, 1130.218 618.078 M 602.939 640.750 C 599.921 643.913, 594.139 650.325, 590.089 655 C 583.254 662.892, 587.024 659.347, 596.471 649 C 598.731 646.525, 602.531 642.362, 604.917 639.750 C 611.004 633.084, 609.557 633.816, 602.939 640.750 M 327.365 669.500 C 327.368 675, 327.536 677.122, 327.738 674.216 C 327.941 671.311, 327.939 666.811, 327.734 664.216 C 327.528 661.622, 327.363 664, 327.365 669.500 M 633.168 716.500 C 633.046 719.687, 632.088 723.054, 630.526 725.786 C 629.178 728.143, 628.515 729.800, 629.052 729.468 C 631.568 727.913, 634.094 720.745, 633.732 716.187 L 633.360 711.500 633.168 716.500 M 607.365 750.250 C 598.176 759.803, 594.731 764.502, 595.302 766.703 C 595.728 768.345, 595.778 768.336, 595.884 766.594 C 596.037 764.089, 599.822 759.132, 608.365 750.250 C 612.200 746.263, 615.113 743, 614.838 743 C 614.563 743, 611.200 746.263, 607.365 750.250 M 335.124 781.583 C 335.193 786.487, 335.586 793.650, 335.998 797.500 C 336.455 801.771, 336.549 798.457, 336.239 789 C 335.689 772.204, 334.923 767.107, 335.124 781.583 M 601.875 824.750 C 599.373 827.362, 595.631 831.750, 593.559 834.500 L 589.794 839.500 593.647 835.008 C 595.766 832.538, 599.703 828.150, 602.395 825.258 C 605.087 822.366, 607.095 820, 606.857 820 C 606.620 820, 604.377 822.138, 601.875 824.750 M 408.081 849.403 C 404.221 854.024, 400.037 858.662, 398.782 859.708 C 397.527 860.755, 394.931 863.387, 393.013 865.556 C 391.096 867.725, 392.806 866.350, 396.815 862.500 C 403.737 855.852, 416.727 841, 415.619 841 C 415.333 841, 411.941 844.781, 408.081 849.403 M 342.365 885.500 C 342.368 891, 342.536 893.122, 342.738 890.216 C 342.941 887.311, 342.939 882.811, 342.734 880.216 C 342.528 877.622, 342.363 880, 342.365 885.500 M 510.325 943.579 C 506.021 948.297, 502.324 952.649, 502.110 953.250 C 501.895 953.850, 505.227 950.400, 509.513 945.582 C 513.800 940.764, 518.250 936.441, 519.403 935.974 C 520.999 935.329, 521.100 935.112, 519.825 935.063 C 518.904 935.029, 514.629 938.861, 510.325 943.579 M 1429.667 951.667 C 1428.544 952.789, 1428.924 956.446, 1430.379 958.527 C 1433.218 962.588, 1437.869 971.865, 1438.854 975.433 C 1440.186 980.257, 1438.679 989.750, 1436.240 991.899 C 1435.242 992.780, 1432.968 994.534, 1431.187 995.799 L 1427.949 998.098 1374.225 998.073 C 1332.876 998.054, 1318.542 998.370, 1312 999.444 C 1303.034 1000.917, 1295.072 1002.279, 1284.750 1004.107 C 1281.313 1004.715, 1276.227 1005.517, 1273.449 1005.887 C 1270.542 1006.275, 1264.389 1008.568, 1258.949 1011.290 C 1249.396 1016.071, 1246.898 1018.520, 1241.910 1028 C 1239.768 1032.071, 1240.296 1047.640, 1242.748 1052.715 C 1245.468 1058.344, 1258.336 1072.312, 1264.460 1076.284 C 1271.954 1081.143, 1272.977 1081.717, 1280 1085.008 C 1283.575 1086.683, 1287.400 1088.584, 1288.500 1089.232 C 1293.572 1092.219, 1306.198 1097.992, 1313 1100.433 C 1323.660 1104.259, 1336.805 1109.634, 1343.337 1112.837 L 1348.935 1115.582 1344.218 1116.937 C 1341.623 1117.681, 1339.050 1118.620, 1338.500 1119.022 C 1337.950 1119.424, 1334.237 1120.771, 1330.250 1122.016 C 1326.263 1123.260, 1323 1124.666, 1323 1125.139 C 1323 1125.613, 1322.182 1126, 1321.183 1126 C 1314.588 1126, 1274.429 1153.528, 1266.883 1163.220 C 1265.051 1165.574, 1263.293 1167.725, 1262.976 1168 C 1262.660 1168.275, 1260.510 1171.421, 1258.200 1174.992 C 1254.415 1180.843, 1254 1182.096, 1254 1187.692 C 1254 1202.448, 1257.886 1208.767, 1270.561 1214.624 C 1274.580 1216.481, 1278.263 1218, 1278.744 1218 C 1279.225 1218, 1281.699 1214.513, 1284.242 1210.250 C 1292.316 1196.717, 1299.560 1187.910, 1309.946 1179 C 1312.831 1176.525, 1315.821 1173.908, 1316.589 1173.186 C 1317.357 1172.463, 1322.152 1170.154, 1327.243 1168.056 C 1332.334 1165.958, 1338.621 1163.310, 1341.213 1162.172 C 1343.806 1161.034, 1352.581 1158.757, 1360.713 1157.113 C 1376.337 1153.955, 1404.961 1151.980, 1434.932 1151.994 C 1442.320 1151.997, 1452.445 1151.538, 1457.432 1150.973 C 1478.886 1148.543, 1491.307 1146.550, 1492.512 1145.345 C 1493.898 1143.959, 1495.672 1124.193, 1494.649 1121.528 C 1494.327 1120.687, 1492.918 1120, 1491.518 1120 C 1490.118 1120, 1488.191 1119.580, 1487.236 1119.066 C 1486.281 1118.553, 1483.345 1117.549, 1480.711 1116.837 C 1476.884 1115.801, 1475.818 1115.035, 1475.402 1113.020 C 1474.269 1107.539, 1474.338 1107.563, 1456.720 1106.500 C 1447.605 1105.950, 1439.815 1105.162, 1439.407 1104.750 C 1439 1104.338, 1437.729 1104.014, 1436.583 1104.032 C 1434.844 1104.058, 1424.423 1101.703, 1405 1096.894 C 1394.868 1094.385, 1380.581 1091.054, 1373.500 1089.549 C 1356.996 1086.042, 1353.895 1085.129, 1344.500 1081.018 C 1340.072 1079.080, 1330.835 1076, 1329.452 1076 C 1328.005 1076, 1325.530 1074.962, 1311.500 1068.474 C 1307.650 1066.694, 1303.825 1064.938, 1303 1064.571 C 1295.941 1061.438, 1284.004 1053.752, 1284.002 1052.340 C 1283.998 1049.789, 1292.079 1041.187, 1298.107 1037.327 L 1304.500 1033.233 1387.753 1032.632 L 1471.005 1032.031 1475.753 1029.585 C 1483.642 1025.520, 1489.953 1018.549, 1491.672 1012 C 1492.687 1008.137, 1492.617 1007.160, 1491.177 1005.099 C 1487.888 1000.391, 1485.779 996.511, 1485.414 994.498 C 1484.900 991.662, 1464.064 970.781, 1454.440 963.458 C 1444.310 955.749, 1442.077 954.365, 1436.808 952.530 C 1432.001 950.855, 1430.642 950.691, 1429.667 951.667 M 875.378 992 C 875.378 998.325, 875.541 1000.913, 875.739 997.750 C 875.937 994.587, 875.937 989.413, 875.739 986.250 C 875.541 983.087, 875.378 985.675, 875.378 992 M 688.310 1059.750 C 688.646 1077.213, 689.396 1124.350, 689.978 1164.500 C 690.559 1204.650, 691.302 1247.060, 691.628 1258.744 L 692.221 1279.988 773.360 1280.244 L 854.500 1280.500 854.500 1293.500 C 854.500 1300.650, 854.330 1307.087, 854.122 1307.805 C 853.914 1308.522, 852.789 1309.035, 851.622 1308.944 C 850.455 1308.853, 814.288 1308.828, 771.250 1308.889 L 693 1309 693.045 1424.750 L 693.090 1540.500 698.295 1544.935 L 703.500 1549.370 699.547 1545.185 L 695.594 1541 736.297 1541 C 764.278 1541, 777 1541.331, 777 1542.059 C 777 1542.671, 777.528 1542.777, 778.250 1542.309 C 778.938 1541.864, 782.650 1541.477, 786.500 1541.448 C 790.350 1541.420, 806.039 1541.308, 821.363 1541.198 L 849.227 1541 848.763 1538.250 C 848.111 1534.388, 847.587 1532.580, 846.953 1532 C 846.653 1531.725, 844.341 1528.800, 841.816 1525.500 C 839.291 1522.200, 831.887 1514.283, 825.363 1507.907 C 818.838 1501.531, 812.928 1495.456, 812.230 1494.407 C 811.094 1492.703, 811.072 1492.740, 812.015 1494.750 C 813.199 1497.275, 812.786 1497.616, 810.821 1495.736 C 810.095 1495.040, 807.475 1492.906, 805 1490.993 C 802.525 1489.080, 800.350 1487.174, 800.167 1486.757 C 799.983 1486.341, 799.453 1486, 798.987 1486 C 798.522 1486, 795.431 1484.200, 792.119 1482 C 788.807 1479.800, 785.625 1478, 785.049 1478 C 784.472 1478, 784 1477.580, 784 1477.067 C 784 1476.554, 783.159 1475.868, 782.131 1475.542 C 780.364 1474.981, 780.219 1472.735, 779.467 1434.224 C 779.030 1411.826, 778.633 1391.925, 778.586 1390 L 778.500 1386.500 821.750 1386 L 865.001 1385.500 865.215 1397.500 L 865.430 1409.500 865.747 1397.750 C 865.921 1391.287, 866.246 1386, 866.470 1386 C 867.510 1386, 879.341 1392.912, 887 1397.995 C 901.893 1407.878, 907.474 1411.489, 908.500 1411.906 C 909.050 1412.129, 913.420 1414.942, 918.212 1418.156 C 923.003 1421.370, 927.321 1424, 927.807 1424 C 928.293 1424, 929.505 1424.900, 930.500 1426 C 932.353 1428.048, 935.570 1428.689, 936.167 1427.129 C 936.350 1426.650, 940.372 1422.037, 945.105 1416.879 C 956.722 1404.218, 960 1400.382, 960 1399.447 C 960 1399.013, 960.788 1397.730, 961.750 1396.596 C 963.417 1394.633, 963.417 1394.599, 961.750 1395.890 C 960.093 1397.173, 960 1395.853, 960 1371.181 C 960 1354.885, 960.375 1344.886, 961 1344.500 C 961.550 1344.160, 961.993 1343.346, 961.985 1342.691 C 961.975 1341.964, 961.607 1342.073, 961.039 1342.971 C 960.527 1343.780, 959.899 1344.230, 959.642 1343.971 C 959.216 1343.542, 958.715 1245.491, 959.121 1242 C 959.216 1241.175, 958.979 1222.500, 958.592 1200.500 C 958.104 1172.708, 958.207 1160.958, 958.929 1162 C 959.566 1162.919, 959.975 1163.038, 959.985 1162.309 C 959.993 1161.654, 959.523 1160.823, 958.939 1160.462 C 958.321 1160.080, 957.933 1156.614, 958.010 1152.153 C 958.187 1141.850, 958.210 1142, 956.468 1142 C 951.748 1142, 927.497 1152.662, 919.880 1158.086 C 918.401 1159.138, 916.736 1160, 916.179 1160 C 915.622 1160, 915.017 1160.364, 914.833 1160.808 C 914.650 1161.253, 912.250 1163.138, 909.500 1164.997 C 900.914 1170.801, 885.851 1183.354, 877.229 1191.889 L 868.958 1200.077 823.479 1199.788 L 778 1199.500 778 1175.450 C 778 1157.595, 778.322 1151.053, 779.250 1150.053 C 780.250 1148.976, 780.250 1148.848, 779.250 1149.412 C 778.269 1149.966, 778.010 1146.077, 778.048 1131.309 L 778.096 1112.500 786.120 1106 C 790.533 1102.425, 794.899 1098.825, 795.822 1098 C 796.745 1097.175, 799.968 1094.475, 802.985 1092 C 806.001 1089.525, 809.566 1086.600, 810.906 1085.500 C 812.246 1084.400, 814.082 1082.825, 814.986 1082 C 815.890 1081.175, 818.625 1078.949, 821.065 1077.054 C 823.504 1075.158, 826.489 1072.683, 827.697 1071.554 C 828.905 1070.424, 830.255 1069.459, 830.697 1069.408 C 831.139 1069.358, 834.854 1066.091, 838.953 1062.149 L 846.407 1054.982 841.453 1049.763 C 838.729 1046.893, 835.938 1044.175, 835.250 1043.723 C 834.563 1043.271, 834 1042.248, 834 1041.450 C 834 1040.653, 833.582 1040, 833.071 1040 C 832.560 1040, 829.566 1037.300, 826.419 1034 L 820.696 1028 754.197 1028 L 687.699 1028 688.310 1059.750 M 941 1083.971 C 939.075 1084.361, 942.675 1084.465, 949 1084.203 C 955.325 1083.941, 960.688 1083.564, 960.917 1083.364 C 961.655 1082.719, 944.619 1083.239, 941 1083.971 M 496 1130.500 C 500.651 1135.175, 504.681 1139, 504.956 1139 C 505.231 1139, 501.651 1135.175, 497 1130.500 C 492.349 1125.825, 488.319 1122, 488.044 1122 C 487.769 1122, 491.349 1125.825, 496 1130.500 M 1070.278 1126.014 C 1072.786 1128.222, 1077.885 1133.284, 1081.608 1137.264 C 1085.332 1141.244, 1087.436 1143.150, 1086.284 1141.500 C 1083.829 1137.984, 1067.598 1122, 1066.481 1122 C 1066.062 1122, 1067.770 1123.806, 1070.278 1126.014 M 803.655 1124.829 C 802.745 1125.835, 802 1126.954, 802 1127.317 C 802 1128.008, 800.793 1129.595, 795 1136.522 C 793.075 1138.823, 794.087 1137.970, 797.250 1134.625 C 800.413 1131.280, 803 1128.119, 803 1127.600 C 803 1127.082, 803.745 1125.835, 804.655 1124.829 C 805.565 1123.823, 806.085 1123, 805.810 1123 C 805.535 1123, 804.565 1123.823, 803.655 1124.829 M 545.861 1137.250 C 549.296 1142.677, 557.421 1152.871, 558.748 1153.420 C 559.435 1153.704, 557.626 1151.138, 554.729 1147.718 C 551.832 1144.298, 548.421 1139.813, 547.149 1137.750 C 545.877 1135.688, 544.604 1134, 544.320 1134 C 544.036 1134, 544.729 1135.463, 545.861 1137.250 M 510.215 1200.897 C 511.739 1203.073, 528 1218.510, 528 1217.781 C 528 1217.566, 523.658 1213.193, 518.351 1208.063 C 513.045 1202.934, 509.383 1199.709, 510.215 1200.897 M 985.878 1223.500 C 987.565 1225.700, 991.480 1230.200, 994.578 1233.500 L 1000.211 1239.500 994.856 1233.161 C 991.910 1229.675, 987.995 1225.175, 986.155 1223.161 L 982.811 1219.500 985.878 1223.500 M 1268.755 1226.005 C 1260.425 1226.816, 1246.572 1231.996, 1240 1236.758 C 1236.002 1239.655, 1216 1259.938, 1216 1261.095 C 1216 1261.515, 1214.200 1264.569, 1212 1267.881 C 1209.800 1271.193, 1208 1274.150, 1208 1274.451 C 1208 1274.753, 1207.072 1275.928, 1205.938 1277.063 C 1201.589 1281.411, 1205.020 1282.371, 1216.500 1280.016 C 1219.800 1279.339, 1224.750 1278.401, 1227.500 1277.932 C 1230.250 1277.462, 1234.975 1276.592, 1238 1275.998 C 1257.480 1272.170, 1345.671 1268.967, 1368 1271.275 C 1380.867 1272.606, 1394.978 1273.887, 1409 1274.997 C 1430.487 1276.698, 1445.736 1277.988, 1456.500 1279.014 C 1462 1279.538, 1472.575 1280.431, 1480 1280.997 C 1487.425 1281.563, 1498.675 1282.456, 1505 1282.981 C 1511.325 1283.506, 1522.350 1284.388, 1529.500 1284.942 C 1536.650 1285.495, 1549.062 1286.477, 1557.083 1287.122 C 1574.122 1288.494, 1580.856 1287.772, 1602 1282.310 C 1609.425 1280.391, 1617.443 1278.420, 1619.817 1277.929 C 1622.191 1277.437, 1624.639 1276.723, 1625.256 1276.342 C 1625.874 1275.960, 1630.456 1275.390, 1635.439 1275.074 L 1644.500 1274.500 1645.425 1271.362 C 1645.934 1269.636, 1647.605 1267.483, 1649.139 1266.577 C 1654.405 1263.466, 1654.895 1262.447, 1654.691 1255.022 C 1654.415 1244.962, 1654.058 1244.733, 1637.250 1243.849 C 1629.688 1243.451, 1615.850 1242.619, 1606.500 1242.001 C 1597.150 1241.382, 1580.050 1240.495, 1568.500 1240.029 C 1548.750 1239.233, 1534.223 1238.431, 1493.500 1235.888 C 1484.150 1235.304, 1466.375 1234.429, 1454 1233.944 C 1441.625 1233.458, 1425.200 1232.634, 1417.500 1232.113 C 1409.800 1231.591, 1390.450 1230.470, 1374.500 1229.622 C 1358.550 1228.773, 1339.425 1227.622, 1332 1227.063 C 1313.569 1225.678, 1278.193 1225.086, 1268.755 1226.005 M 478.500 1273 C 483.979 1278.500, 488.687 1283, 488.962 1283 C 489.237 1283, 484.979 1278.500, 479.500 1273 C 474.021 1267.500, 469.313 1263, 469.038 1263 C 468.763 1263, 473.021 1267.500, 478.500 1273 M 667.576 1293.073 C 667.904 1294.958, 668.441 1297.175, 668.767 1298 C 669.094 1298.825, 669.649 1306.475, 670 1315 L 670.639 1330.500 670.819 1317.500 C 670.932 1309.372, 670.463 1301.932, 669.567 1297.650 C 668.091 1290.595, 666.512 1286.966, 667.576 1293.073 M 1274 1310.027 C 1269.325 1310.477, 1263.475 1311.340, 1261 1311.944 C 1258.525 1312.548, 1254.731 1313.328, 1252.569 1313.677 C 1250.407 1314.026, 1246.807 1315.542, 1244.569 1317.046 C 1242.331 1318.549, 1238.025 1321.109, 1235 1322.733 C 1222.968 1329.195, 1212.274 1351.087, 1213.309 1367.136 C 1214.010 1378.016, 1216.776 1388.241, 1221.252 1396.500 C 1227.023 1407.150, 1228.568 1409.703, 1230.022 1411 C 1230.947 1411.825, 1232.493 1414.033, 1233.458 1415.906 C 1235.777 1420.407, 1235.722 1420.345, 1249 1433.649 C 1270.044 1454.733, 1283.072 1464.511, 1300.117 1472.009 C 1305.278 1474.280, 1310.400 1476.541, 1311.500 1477.035 C 1327.538 1484.233, 1334.136 1485.964, 1345.601 1485.985 C 1353.173 1485.999, 1360 1484.653, 1360 1483.146 C 1360 1482.784, 1361.463 1481.852, 1363.250 1481.075 C 1365.037 1480.297, 1369.358 1477.937, 1372.852 1475.831 C 1376.346 1473.724, 1379.403 1472, 1379.645 1472 C 1379.888 1472, 1384.158 1469.188, 1389.135 1465.750 C 1394.113 1462.313, 1398.931 1459.050, 1399.842 1458.500 C 1400.754 1457.950, 1401.725 1457.227, 1402 1456.893 C 1402.275 1456.559, 1405.425 1453.884, 1409 1450.949 C 1417.518 1443.956, 1426.943 1434.320, 1427.890 1431.635 C 1428.304 1430.461, 1428.594 1421.175, 1428.535 1411 C 1428.438 1394.617, 1428.159 1391.642, 1426.092 1385 C 1420.266 1366.268, 1407.843 1347.407, 1396 1339.309 C 1393.525 1337.617, 1390.677 1335.318, 1389.671 1334.201 C 1388.665 1333.083, 1385.290 1331.146, 1382.171 1329.896 C 1379.052 1328.647, 1374.841 1326.543, 1372.813 1325.221 C 1370.785 1323.899, 1367.635 1322.444, 1365.813 1321.988 C 1363.991 1321.532, 1359.800 1320.254, 1356.500 1319.149 C 1344.480 1315.125, 1340.047 1314, 1336.211 1314 C 1334.059 1314, 1330.994 1313.602, 1329.399 1313.116 C 1319.573 1310.119, 1290.099 1308.476, 1274 1310.027 M 1271.625 1346.250 C 1269.129 1349.138, 1266.118 1352.625, 1264.935 1354 C 1262.622 1356.687, 1253.167 1370.922, 1251.024 1374.945 C 1250.071 1376.734, 1249.875 1380.305, 1250.294 1388.254 C 1250.823 1398.282, 1251.117 1399.518, 1254.113 1404.309 C 1266.799 1424.596, 1267 1424.841, 1277.240 1432.535 C 1282.705 1436.641, 1287.532 1440, 1287.966 1440 C 1288.400 1440, 1289.370 1440.741, 1290.122 1441.646 C 1291.602 1443.430, 1303.342 1449.089, 1309 1450.745 C 1310.925 1451.309, 1314.975 1452.243, 1318 1452.820 C 1321.025 1453.397, 1325.897 1454.349, 1328.826 1454.935 C 1336.375 1456.445, 1349.754 1456.231, 1354.658 1454.522 C 1356.945 1453.725, 1361.582 1452.628, 1364.963 1452.083 C 1373.508 1450.707, 1380.448 1447.029, 1388.260 1439.735 C 1395.479 1432.996, 1398.164 1427.863, 1399.463 1418.320 C 1400.121 1413.488, 1399.883 1412.615, 1395.915 1405.320 C 1393.576 1401.019, 1389.826 1395.079, 1387.581 1392.120 C 1382.959 1386.027, 1380.363 1382.507, 1377.567 1378.537 C 1376.504 1377.028, 1372.926 1373.252, 1369.616 1370.146 C 1366.306 1367.041, 1362.543 1363.487, 1361.253 1362.250 C 1359.964 1361.013, 1358.592 1359.997, 1358.205 1359.993 C 1357.817 1359.989, 1355.700 1358.211, 1353.500 1356.042 C 1351.300 1353.873, 1349.119 1352.076, 1348.654 1352.049 C 1348.189 1352.022, 1346.517 1351.080, 1344.938 1349.956 C 1340.897 1347.079, 1332.314 1346.427, 1328.883 1348.738 C 1325.959 1350.706, 1321.915 1355.326, 1320.106 1358.765 C 1318.477 1361.859, 1311.662 1366, 1308.198 1366 C 1302.207 1366, 1296.076 1362.980, 1292.465 1358.250 C 1290.559 1355.754, 1289 1353.084, 1289 1352.316 C 1289 1349.878, 1284.767 1345.081, 1280.785 1343.005 C 1278.669 1341.902, 1276.764 1341, 1276.551 1341 C 1276.339 1341, 1274.122 1343.362, 1271.625 1346.250 M 623.389 1381.500 C 623.390 1388.650, 623.550 1391.444, 623.742 1387.708 C 623.935 1383.973, 623.934 1378.123, 623.739 1374.708 C 623.545 1371.294, 623.387 1374.350, 623.389 1381.500 M 352.459 1401.250 C 352.196 1401.938, 352.101 1427.250, 352.249 1457.500 L 352.517 1512.500 352.759 1456.820 L 353 1401.139 355.250 1400.706 L 357.500 1400.272 355.219 1400.136 C 353.964 1400.061, 352.722 1400.563, 352.459 1401.250 M 366.667 1400.667 C 366.300 1401.033, 366 1404.408, 366 1408.167 C 366 1413.574, 365.687 1415, 364.500 1415 C 363.322 1415, 363 1413.618, 363 1408.559 C 363 1405.016, 362.663 1401.908, 362.250 1401.651 C 361.837 1401.394, 361.648 1404.518, 361.829 1408.592 C 362.142 1415.633, 362.276 1416, 364.535 1416 C 366.791 1416, 366.927 1415.632, 367.206 1408.792 C 367.480 1402.065, 367.667 1401.538, 370 1400.892 L 372.500 1400.199 369.917 1400.100 C 368.496 1400.045, 367.033 1400.300, 366.667 1400.667 M 389.415 1401.138 C 388.963 1401.869, 389.124 1402.041, 389.845 1401.595 C 390.679 1401.080, 391 1402.982, 391 1408.441 L 391 1416 395.250 1415.832 L 399.500 1415.664 395.750 1415.272 L 392 1414.879 392 1407.999 C 392 1401.409, 390.957 1398.642, 389.415 1401.138 M 452.750 1400.656 L 455 1401.139 455 1457.020 C 455 1504.354, 455.218 1513.023, 456.426 1513.700 C 457.210 1514.140, 457.997 1516.300, 458.176 1518.500 C 458.476 1522.206, 458.721 1522.500, 461.500 1522.500 C 464.400 1522.500, 464.503 1522.341, 464.592 1517.744 L 464.684 1512.987 464.287 1517.494 C 463.935 1521.499, 463.618 1522, 461.445 1522 C 459.214 1522, 459 1521.606, 459 1517.500 C 459 1514.178, 458.610 1513, 457.508 1513 C 456.207 1513, 455.984 1505.828, 455.758 1456.750 L 455.500 1400.500 453 1400.336 C 450.797 1400.192, 450.767 1400.230, 452.750 1400.656 M 624.389 1412.500 C 624.390 1419.650, 624.550 1422.444, 624.742 1418.708 C 624.935 1414.973, 624.934 1409.123, 624.739 1405.708 C 624.545 1402.294, 624.387 1405.350, 624.389 1412.500 M 381 1407.930 C 381 1414.323, 380.825 1414.895, 378.750 1415.294 C 376.765 1415.677, 376.815 1415.744, 379.171 1415.864 C 381.813 1415.999, 381.846 1415.919, 382.171 1408.498 C 382.352 1404.371, 382.163 1400.996, 381.750 1400.998 C 381.337 1400.999, 381 1404.119, 381 1407.930 M 415 1407.937 L 415 1414.873 411.750 1415.277 C 408.550 1415.674, 408.558 1415.682, 412.250 1415.840 L 416 1416 416 1408.500 C 416 1404.375, 415.775 1401, 415.500 1401 C 415.225 1401, 415 1404.121, 415 1407.937 M 448 1407.934 C 448 1414.730, 447.946 1414.875, 445.250 1415.284 C 442.690 1415.671, 442.725 1415.711, 445.750 1415.850 L 449 1416 449 1408.500 C 449 1404.375, 448.775 1401, 448.500 1401 C 448.225 1401, 448 1404.120, 448 1407.934 M 873.553 1427.500 C 875.773 1431.405, 879.528 1435.439, 884.500 1439.260 C 886.949 1441.142, 885.952 1439.846, 881.929 1435.917 C 878.315 1432.388, 874.568 1428.375, 873.603 1427 C 871.905 1424.581, 871.903 1424.597, 873.553 1427.500 M 110.500 1433.513 C 106.650 1437.063, 103.214 1439.976, 102.865 1439.984 C 102.516 1439.993, 101.431 1441.237, 100.455 1442.750 C 99.229 1444.649, 100.354 1443.963, 104.090 1440.536 C 113.350 1432.040, 118.520 1427.023, 118 1427.040 C 117.725 1427.049, 114.350 1429.962, 110.500 1433.513 M 625.370 1446 C 625.370 1451.775, 625.535 1454.138, 625.737 1451.250 C 625.939 1448.362, 625.939 1443.638, 625.737 1440.750 C 625.535 1437.862, 625.370 1440.225, 625.370 1446 M 538.667 1463.667 C 538.300 1464.033, 538 1500.221, 538 1544.083 C 538 1606.948, 537.735 1623.940, 536.750 1624.338 C 536.003 1624.639, 536.205 1624.874, 537.250 1624.921 C 538.903 1624.996, 539 1620.534, 539 1544.573 C 539 1468.817, 539.102 1464.120, 540.750 1463.689 C 542.152 1463.323, 542.185 1463.209, 540.917 1463.116 C 540.046 1463.052, 539.033 1463.300, 538.667 1463.667 M 548.713 1463.621 C 548.321 1464.013, 548 1467.461, 548 1471.283 C 548 1478.157, 547.973 1478.228, 545.500 1477.755 C 544.125 1477.492, 543 1477.695, 543 1478.205 C 543 1478.715, 544.237 1478.990, 545.750 1478.816 C 548.436 1478.507, 548.507 1478.332, 548.794 1471.250 L 549.088 1464 553.544 1464 L 558 1464 558 1471.500 C 558 1478.833, 558.056 1479, 560.500 1479 C 562.969 1479, 562.998 1478.903, 562.801 1471.250 L 562.603 1463.500 562.257 1470.750 C 562 1476.165, 561.555 1478, 560.500 1478 C 559.440 1478, 559.014 1476.189, 558.794 1470.750 L 558.500 1463.500 553.963 1463.204 C 551.467 1463.041, 549.105 1463.229, 548.713 1463.621 M 567.940 1463.707 C 571.822 1464.102, 571.902 1464.192, 572.290 1468.561 L 572.684 1473.013 572.592 1468.256 L 572.500 1463.500 568.243 1463.402 L 563.985 1463.304 567.940 1463.707 M 577.667 1463.667 C 577.300 1464.033, 577 1467.408, 577 1471.167 C 577 1477.251, 576.788 1478, 575.070 1478 C 573.951 1478, 572.949 1477.153, 572.686 1475.985 C 572.310 1474.308, 572.256 1474.350, 572.367 1476.235 C 572.466 1477.921, 573.203 1478.581, 575.250 1478.816 L 578 1479.133 578 1471.624 L 578 1464.115 582.250 1463.732 L 586.500 1463.349 582.417 1463.175 C 580.171 1463.079, 578.033 1463.300, 577.667 1463.667 M 592.714 1463.620 C 592.321 1464.012, 592 1467.408, 592 1471.167 C 592 1477.282, 591.795 1478, 590.044 1478 C 588.314 1478, 588.048 1477.162, 587.743 1470.750 L 587.397 1463.500 587.199 1471.316 L 587 1479.133 589.750 1478.816 C 592.436 1478.507, 592.507 1478.332, 592.794 1471.250 L 593.088 1464 597 1464 L 600.912 1464 601.206 1471.250 C 601.496 1478.395, 601.540 1478.502, 604.262 1478.622 C 606.706 1478.730, 606.739 1478.693, 604.555 1478.309 C 602.232 1477.901, 602.068 1477.448, 601.793 1470.688 L 601.500 1463.500 597.464 1463.203 C 595.244 1463.040, 593.106 1463.227, 592.714 1463.620 M 607.687 1463.697 C 607.414 1464.139, 609.173 1464.342, 611.595 1464.149 L 616 1463.799 616 1553.792 C 616 1634.932, 616.156 1643.846, 617.582 1644.393 C 620.090 1645.355, 620.523 1645.104, 618.690 1643.750 C 617.126 1642.595, 616.980 1635.733, 616.749 1553 L 616.500 1463.500 612.342 1463.197 C 610.055 1463.030, 607.960 1463.255, 607.687 1463.697 M 191.479 1553 C 191.479 1602.225, 191.601 1622.362, 191.750 1597.750 C 191.899 1573.137, 191.899 1532.862, 191.750 1508.250 C 191.601 1483.638, 191.479 1503.775, 191.479 1553 M 225.826 1472.092 L 226.152 1480 230.826 1479.825 L 235.500 1479.651 231.250 1479.268 L 227 1478.885 227 1472.002 C 227 1468.216, 226.662 1464.908, 226.250 1464.651 C 225.838 1464.394, 225.647 1467.743, 225.826 1472.092 M 269.477 1545.500 C 269.477 1590.600, 269.600 1608.904, 269.750 1586.175 C 269.900 1563.447, 269.900 1526.547, 269.750 1504.175 C 269.600 1481.804, 269.477 1500.400, 269.477 1545.500 M 904.058 1518.500 C 908.678 1523.175, 912.717 1527, 913.035 1527 C 913.352 1527, 909.847 1523.175, 905.245 1518.500 C 900.643 1513.825, 896.604 1510, 896.269 1510 C 895.934 1510, 899.439 1513.825, 904.058 1518.500 M 337.241 1564.680 L 337 1616.861 334.750 1617.294 L 332.500 1617.728 334.781 1617.864 C 336.036 1617.939, 337.278 1617.438, 337.541 1616.750 C 337.805 1616.063, 337.899 1592.325, 337.751 1564 L 337.481 1512.500 337.241 1564.680 M 351.168 1517.351 L 351 1522.201 346.595 1521.851 C 344.173 1521.658, 342.400 1521.838, 342.654 1522.250 C 342.909 1522.662, 344.906 1523, 347.090 1523 C 351.624 1523, 352.319 1522.005, 351.735 1516.355 C 351.364 1512.770, 351.324 1512.840, 351.168 1517.351 M 676.389 1530.500 C 676.390 1537.650, 676.550 1540.444, 676.742 1536.708 C 676.935 1532.973, 676.934 1527.123, 676.739 1523.708 C 676.545 1520.294, 676.387 1523.350, 676.389 1530.500 M 274.196 1534.250 L 274.392 1541.500 274.742 1534.750 L 275.091 1528 278.546 1528 L 282 1528 282 1535.500 L 282 1543 284.750 1542.864 C 287.108 1542.747, 287.179 1542.666, 285.250 1542.294 C 283.157 1541.891, 283 1541.341, 283 1534.430 L 283 1527 278.500 1527 L 274 1527 274.196 1534.250 M 290.704 1527.730 L 294.907 1528.110 295.261 1534.305 L 295.615 1540.500 295.807 1533.750 L 296 1527 291.250 1527.175 L 286.500 1527.349 290.704 1527.730 M 303.707 1527.730 L 307.915 1528.111 308.207 1535.225 C 308.404 1540, 308.919 1542.424, 309.775 1542.595 C 310.476 1542.735, 310.589 1542.621, 310.025 1542.342 C 309.461 1542.062, 309 1538.496, 309 1534.417 L 309 1527 304.250 1527.175 L 299.500 1527.349 303.707 1527.730 M 316.707 1527.730 L 320.915 1528.111 321.259 1535.305 L 321.603 1542.500 321.801 1534.750 L 322 1527 317.250 1527.175 L 312.500 1527.349 316.707 1527.730 M 474.239 1571.750 L 474.479 1616.500 474.750 1572.307 L 475.021 1528.114 479.260 1527.732 L 483.500 1527.349 478.750 1527.175 L 474 1527 474.239 1571.750 M 487 1534.430 C 487 1541.341, 486.843 1541.891, 484.750 1542.294 C 482.821 1542.666, 482.892 1542.747, 485.250 1542.864 L 488 1543 488 1535.500 L 488 1528 491.456 1528 L 494.912 1528 495.206 1535.250 C 495.493 1542.332, 495.564 1542.507, 498.250 1542.816 C 500.575 1543.084, 500.982 1542.775, 500.884 1540.816 C 500.799 1539.122, 500.645 1538.970, 500.311 1540.250 C 500.059 1541.213, 498.986 1542, 497.927 1542 C 496.196 1542, 496 1541.238, 496 1534.500 L 496 1527 491.500 1527 L 487 1527 487 1534.430 M 513 1534.617 C 513 1541.912, 512.909 1542.210, 510.856 1541.673 C 509.325 1541.272, 509.020 1541.420, 509.789 1542.189 C 510.381 1542.781, 511.571 1542.995, 512.433 1542.664 C 513.648 1542.198, 514 1540.498, 514 1535.089 L 514 1528.115 518.250 1527.732 L 522.500 1527.349 517.750 1527.175 L 513 1527 513 1534.617 M 525.199 1534.750 L 525.397 1542.500 525.743 1535.250 L 526.088 1528 529.534 1528 L 532.981 1528 533.250 1576.250 L 533.520 1624.500 533.760 1575.750 L 534 1527 529.500 1527 L 525 1527 525.199 1534.750 M 628.360 1549 C 628.360 1554.225, 628.529 1556.362, 628.735 1553.750 C 628.941 1551.138, 628.941 1546.862, 628.735 1544.250 C 628.529 1541.638, 628.360 1543.775, 628.360 1549 M 274.457 1584.500 C 274.456 1607.050, 274.588 1616.418, 274.749 1605.317 C 274.909 1594.216, 274.910 1575.766, 274.749 1564.317 C 274.589 1552.868, 274.457 1561.950, 274.457 1584.500 M 675.365 1553.500 C 675.368 1559, 675.536 1561.122, 675.738 1558.216 C 675.941 1555.311, 675.939 1550.811, 675.734 1548.216 C 675.528 1545.622, 675.363 1548, 675.365 1553.500 M 1153.900 1549.305 C 1136.570 1561.340, 1124.017 1576.021, 1120.460 1588.415 C 1118.329 1595.841, 1118.833 1607.747, 1121.524 1613.500 C 1124.682 1620.253, 1134.519 1629.675, 1140.917 1632.076 C 1151.811 1636.163, 1166.801 1633.578, 1187.500 1624.042 C 1194.679 1620.735, 1202.418 1618.054, 1206.647 1617.409 C 1220.557 1615.289, 1230.773 1629.715, 1225.972 1644.695 C 1223.526 1652.325, 1215.489 1660.710, 1206.513 1664.994 C 1197.946 1669.082, 1192.054 1669.051, 1183.390 1664.873 C 1177.127 1661.852, 1176.858 1661.810, 1175.485 1663.623 C 1174.703 1664.655, 1174.049 1665.791, 1174.032 1666.146 C 1174.014 1666.501, 1176.362 1669.039, 1179.250 1671.785 C 1195.715 1687.443, 1196.521 1687.862, 1202.346 1683.800 C 1228.466 1665.584, 1242.149 1646.136, 1242.140 1627.239 C 1242.138 1621.612, 1241.571 1618.744, 1239.623 1614.487 C 1236.224 1607.062, 1228.204 1598.768, 1221.702 1595.952 C 1215.529 1593.278, 1205.159 1592.846, 1197.500 1594.943 C 1192.566 1596.294, 1177.861 1602.023, 1173 1604.488 C 1171.625 1605.186, 1169.375 1606.205, 1168 1606.754 C 1166.625 1607.302, 1164.212 1608.270, 1162.638 1608.905 C 1157.737 1610.881, 1149.139 1611.160, 1145.553 1609.458 C 1140.278 1606.955, 1135.878 1601.658, 1134.427 1596.065 C 1133.303 1591.733, 1133.333 1590.242, 1134.630 1585.873 C 1136.272 1580.346, 1136.369 1580.193, 1142.848 1572.947 C 1148.628 1566.481, 1153.917 1564, 1161.920 1564 C 1166.654 1564, 1169.455 1564.626, 1173.244 1566.529 C 1177.986 1568.911, 1178.387 1568.960, 1180.139 1567.374 C 1181.163 1566.448, 1182 1565.266, 1182 1564.748 C 1182 1564.230, 1179.749 1561.782, 1176.999 1559.309 C 1174.248 1556.836, 1172.293 1554.335, 1172.653 1553.752 C 1173.014 1553.168, 1172.864 1552.966, 1172.319 1553.303 C 1171.775 1553.639, 1169.343 1552.146, 1166.915 1549.985 C 1164.487 1547.825, 1161.600 1546.069, 1160.500 1546.083 C 1159.400 1546.098, 1156.430 1547.548, 1153.900 1549.305 M 846 1553.101 C 847.375 1553.486, 853.900 1553.793, 860.500 1553.784 C 867.100 1553.775, 871.825 1553.619, 871 1553.437 C 867.914 1552.757, 843.603 1552.430, 846 1553.101 M 926.355 1564.500 C 926.352 1569.450, 926.521 1571.601, 926.731 1569.280 C 926.940 1566.959, 926.943 1562.909, 926.736 1560.280 C 926.530 1557.651, 926.358 1559.550, 926.355 1564.500 M 172 1560.970 C 168.975 1563.094, 164.925 1566.247, 163 1567.976 L 159.500 1571.120 162.989 1568.810 C 164.907 1567.540, 166.932 1566, 167.489 1565.389 C 168.045 1564.778, 170.634 1562.846, 173.243 1561.096 L 177.986 1557.914 181.243 1561.590 C 183.034 1563.612, 184.860 1565.881, 185.300 1566.633 C 185.740 1567.385, 186.589 1568, 187.187 1568 C 188.129 1568, 179.413 1557.830, 178.019 1557.304 C 177.734 1557.196, 175.025 1558.846, 172 1560.970 M 629.382 1578.500 C 629.384 1585.100, 629.546 1587.670, 629.741 1584.211 C 629.937 1580.752, 629.936 1575.352, 629.738 1572.211 C 629.540 1569.070, 629.380 1571.900, 629.382 1578.500 M 674.360 1576 C 674.360 1581.225, 674.529 1583.362, 674.735 1580.750 C 674.941 1578.138, 674.941 1573.862, 674.735 1571.250 C 674.529 1568.638, 674.360 1570.775, 674.360 1576 M 630.426 1615.500 C 630.427 1627.600, 630.571 1632.413, 630.747 1626.195 C 630.923 1619.977, 630.922 1610.077, 630.746 1604.195 C 630.569 1598.313, 630.425 1603.400, 630.426 1615.500 M 1090.435 1609.750 C 1089.366 1610.713, 1085.794 1613.524, 1082.496 1615.997 C 1079.198 1618.471, 1076.275 1620.745, 1076 1621.050 C 1075.725 1621.356, 1072.575 1623.607, 1069 1626.053 C 1065.425 1628.499, 1061.910 1631.058, 1061.188 1631.741 C 1060.466 1632.423, 1056.416 1635.533, 1052.188 1638.653 C 1043.353 1645.171, 1024 1663.812, 1024 1665.804 C 1024 1666.540, 1024.722 1667.865, 1025.604 1668.747 C 1026.983 1670.126, 1027.509 1670.160, 1029.354 1668.992 C 1035.170 1665.307, 1036.827 1664.845, 1039.378 1666.197 C 1040.730 1666.914, 1044.052 1670.425, 1046.759 1674 C 1051.214 1679.885, 1077.605 1715.444, 1083.866 1724 C 1085.275 1725.925, 1086.894 1728.007, 1087.464 1728.627 C 1088.034 1729.248, 1089.175 1730.755, 1090 1731.978 C 1092.174 1735.201, 1101.014 1747.057, 1104.430 1751.333 C 1107.480 1755.151, 1109.929 1755.903, 1112.179 1753.714 C 1112.905 1753.007, 1115.730 1750.870, 1118.455 1748.964 C 1121.181 1747.059, 1124.106 1744.951, 1124.955 1744.279 C 1131.470 1739.131, 1144.267 1730, 1144.969 1730 C 1145.444 1730, 1145.983 1729.662, 1146.167 1729.250 C 1146.480 1728.544, 1156.345 1720.911, 1162.644 1716.500 C 1167.292 1713.245, 1171 1709.268, 1171 1707.539 C 1171 1705.178, 1161.508 1684.626, 1158.335 1680.115 C 1158.186 1679.904, 1156.676 1680.306, 1154.980 1681.008 C 1152.780 1681.920, 1152.074 1682.746, 1152.517 1683.893 C 1153.617 1686.739, 1155.001 1695.167, 1154.978 1698.886 C 1154.941 1704.926, 1151.746 1710.313, 1144.854 1715.956 C 1136.744 1722.597, 1136.215 1723.002, 1131.743 1726 C 1129.692 1727.375, 1128.011 1728.838, 1128.007 1729.250 C 1128.003 1729.662, 1127.395 1730, 1126.655 1730 C 1125.915 1730, 1124.495 1730.900, 1123.500 1732 C 1122.505 1733.100, 1120.920 1734, 1119.979 1734 C 1118.930 1734, 1113.605 1727.716, 1106.208 1717.750 C 1099.574 1708.813, 1093.170 1700.251, 1091.976 1698.724 C 1089.340 1695.354, 1089.863 1693.635, 1094.199 1691.413 C 1096.014 1690.482, 1097.725 1689.413, 1098 1689.037 C 1098.275 1688.661, 1104.463 1684.379, 1111.750 1679.521 C 1120.071 1673.974, 1125 1670.057, 1125 1668.992 C 1125 1666.309, 1120.638 1660.530, 1118.363 1660.200 C 1116.709 1659.960, 1106.878 1666.868, 1103 1670.995 C 1102.574 1671.449, 1096.317 1676.618, 1089.681 1682 C 1088.664 1682.825, 1086.884 1684.302, 1085.725 1685.282 C 1083.680 1687.013, 1083.550 1686.985, 1081.196 1684.282 C 1079.863 1682.752, 1078.037 1680.375, 1077.139 1679 C 1073.698 1673.735, 1057.611 1652.484, 1056.825 1652.167 C 1054.748 1651.328, 1056.467 1648.198, 1060.761 1645 C 1063.346 1643.075, 1066.145 1640.956, 1066.981 1640.290 C 1079.538 1630.294, 1086.934 1626, 1091.596 1626 C 1094.387 1626, 1103.880 1630.945, 1106.005 1633.506 C 1107.677 1635.521, 1109.341 1635.386, 1111.441 1633.065 C 1113.122 1631.207, 1113.059 1630.960, 1109.846 1626.810 C 1101.698 1616.288, 1094.485 1608, 1093.474 1608 C 1092.871 1608, 1091.503 1608.787, 1090.435 1609.750 M 676.374 1620.500 C 676.376 1626.550, 676.541 1628.896, 676.740 1625.713 C 676.939 1622.531, 676.937 1617.581, 676.736 1614.713 C 676.535 1611.846, 676.372 1614.450, 676.374 1620.500 M 84.079 1616.076 C 84.036 1616.942, 85.042 1618.630, 86.314 1619.826 C 88.292 1621.683, 89.792 1622, 96.614 1622 C 104.293 1622, 107.043 1621.084, 106.970 1618.550 C 106.953 1617.973, 106.481 1618.287, 105.920 1619.250 C 105.079 1620.694, 103.451 1621, 96.605 1621 C 88.111 1621, 86.262 1620.223, 84.709 1616 C 84.237 1614.715, 84.147 1614.726, 84.079 1616.076 M 677.370 1642 C 677.370 1647.775, 677.535 1650.138, 677.737 1647.250 C 677.939 1644.362, 677.939 1639.638, 677.737 1636.750 C 677.535 1633.862, 677.370 1636.225, 677.370 1642 M 971.978 1650.250 C 971.950 1653.113, 968.632 1660.480, 966.854 1661.627 C 966.109 1662.107, 960.005 1662.742, 953.289 1663.039 C 942.314 1663.523, 940.830 1663.811, 938.620 1665.887 C 934.615 1669.650, 932.202 1676.622, 931.833 1685.500 L 931.500 1693.500 934.682 1693.808 C 937.785 1694.109, 937.906 1693.967, 939.563 1688.060 C 942.322 1678.227, 942.710 1678, 956.762 1678 C 968.562 1678, 968.845 1677.947, 971.795 1675.192 C 975.482 1671.748, 979 1661.104, 979 1653.395 L 979 1648 975.500 1648 C 972.544 1648, 971.997 1648.349, 971.978 1650.250 M 173.750 1652.299 C 171.041 1653.370, 171.003 1653.507, 171.201 1661.443 L 171.402 1669.500 171.740 1661.913 C 172.070 1654.501, 172.152 1654.289, 175.289 1652.727 C 178.914 1650.922, 177.928 1650.648, 173.750 1652.299 M 63.002 1662.027 C 63.001 1662.868, 63.701 1664.555, 64.557 1665.777 L 66.113 1668 57.507 1668 C 51.748 1668, 47.924 1667.495, 45.950 1666.474 C 44.328 1665.635, 43 1665.174, 43 1665.449 C 43 1665.724, 44.328 1666.635, 45.950 1667.474 C 49.040 1669.072, 65.536 1669.702, 66.251 1668.250 C 66.454 1667.838, 65.806 1665.925, 64.812 1664 C 63.817 1662.075, 63.002 1661.187, 63.002 1662.027 M 774.625 1675.603 C 769.881 1679.235, 766 1682.440, 766 1682.726 C 766 1683.011, 766.563 1682.808, 767.250 1682.273 C 767.938 1681.738, 771.650 1678.902, 775.500 1675.969 C 783.829 1669.625, 784.575 1669, 783.825 1669 C 783.509 1669, 779.369 1671.971, 774.625 1675.603 M 432.250 1685.745 C 437.063 1685.928, 444.938 1685.928, 449.750 1685.745 C 454.563 1685.561, 450.625 1685.411, 441 1685.411 C 431.375 1685.411, 427.438 1685.561, 432.250 1685.745 M 959.750 1690.677 C 956.038 1693.207, 953 1695.981, 953 1696.841 C 953 1697.701, 954.347 1699.794, 955.993 1701.492 C 958.834 1704.424, 959.039 1705.210, 960.041 1717.040 C 962.330 1744.069, 963.020 1751.884, 963.968 1761.500 C 968.151 1803.951, 969.939 1824.147, 969.971 1829.281 C 969.989 1832.310, 970.487 1834.249, 971.328 1834.572 C 973.225 1835.300, 976.980 1833.617, 980.783 1830.334 L 984.067 1827.500 982.482 1817.500 C 981.610 1812, 980.485 1803.450, 979.982 1798.500 C 979.480 1793.550, 978.768 1786.938, 978.400 1783.807 L 977.732 1778.114 983.616 1775.224 C 986.852 1773.634, 991.188 1771.358, 993.250 1770.166 C 1000.278 1766.106, 1004.495 1763.732, 1009.705 1760.901 C 1012.568 1759.345, 1015.800 1757.518, 1016.886 1756.839 C 1018.554 1755.798, 1019.143 1755.924, 1020.680 1757.655 C 1021.681 1758.782, 1025.411 1762.133, 1028.968 1765.102 C 1032.526 1768.071, 1036.126 1771.221, 1036.968 1772.102 C 1037.811 1772.983, 1041.424 1776.133, 1044.999 1779.102 C 1048.573 1782.071, 1052.173 1785.176, 1052.999 1786.002 C 1056.988 1789.993, 1057.724 1790.222, 1060.683 1788.393 C 1075.700 1779.111, 1076.672 1778.009, 1072.797 1774.655 C 1071.428 1773.470, 1067.673 1770.250, 1064.455 1767.500 C 1057.429 1761.498, 1050.926 1755.871, 1049.431 1754.500 C 1043.737 1749.280, 1023.135 1731.355, 1017.166 1726.427 C 1012.242 1722.363, 1010.357 1720.711, 1006 1716.645 C 1003.525 1714.335, 1000.150 1711.407, 998.500 1710.137 C 996.850 1708.867, 992.800 1705.455, 989.500 1702.555 C 973.239 1688.263, 970.366 1686.003, 968.507 1686.038 C 967.403 1686.059, 963.462 1688.146, 959.750 1690.677 M 969.031 1714.128 C 969.048 1714.883, 969.516 1718.875, 970.071 1723 C 971.570 1734.133, 972.751 1743.428, 973.947 1753.500 C 974.535 1758.450, 975.265 1763.702, 975.570 1765.172 L 976.125 1767.844 983.812 1763.725 C 1014.131 1747.480, 1011.220 1749.642, 1007.330 1746.258 C 1000.371 1740.203, 991.354 1732.288, 987.046 1728.453 C 974.205 1717.023, 969.003 1712.887, 969.031 1714.128 M 584.280 1725.736 C 586.909 1725.943, 590.959 1725.940, 593.280 1725.731 C 595.601 1725.521, 593.450 1725.352, 588.500 1725.355 C 583.550 1725.358, 581.651 1725.530, 584.280 1725.736 M 652.250 1725.739 C 655.413 1725.937, 660.587 1725.937, 663.750 1725.739 C 666.913 1725.541, 664.325 1725.378, 658 1725.378 C 651.675 1725.378, 649.087 1725.541, 652.250 1725.739 M 615.750 1726.740 C 619.188 1726.936, 624.813 1726.936, 628.250 1726.740 C 631.688 1726.545, 628.875 1726.385, 622 1726.385 C 615.125 1726.385, 612.313 1726.545, 615.750 1726.740 M 867 1733.951 C 858.613 1735.512, 843.654 1740.849, 830.500 1746.974 C 827.200 1748.510, 823.825 1750.043, 823 1750.380 C 818.035 1752.409, 807.456 1758.947, 807.221 1760.132 C 807.068 1760.906, 807.542 1762.359, 808.275 1763.361 C 809.457 1764.978, 810.095 1765.052, 813.938 1764.017 C 821.560 1761.964, 822.298 1762.610, 827.345 1775.748 C 829.829 1782.211, 832.546 1789.525, 833.384 1792 C 835.034 1796.871, 842.412 1817.317, 844.571 1823 C 845.303 1824.925, 847.763 1831.675, 850.040 1838 C 854.128 1849.360, 859.625 1864.436, 861.982 1870.750 C 863.257 1874.164, 866.101 1875.017, 869.764 1873.083 C 870.719 1872.579, 872.950 1871.630, 874.723 1870.973 C 876.495 1870.317, 879.085 1868.724, 880.477 1867.434 C 882.878 1865.208, 882.936 1864.917, 881.584 1861.794 C 879.745 1857.542, 877.128 1850.384, 871.973 1835.500 C 869.687 1828.900, 867.006 1821.475, 866.015 1819 C 864.178 1814.413, 856.840 1794.306, 849.775 1774.500 C 842.149 1753.124, 842.127 1752.935, 847.072 1751.092 C 848.682 1750.491, 851.462 1749.438, 853.250 1748.750 C 858.342 1746.792, 871.810 1747.163, 876 1749.378 C 882.322 1752.719, 887.037 1759.415, 888.998 1767.835 C 891.577 1778.910, 888.034 1787.643, 878.056 1794.810 C 874.464 1797.390, 870.282 1800.041, 868.763 1800.702 C 865.687 1802.040, 865.108 1805.015, 867.532 1807.026 C 868.729 1808.020, 869.900 1808.047, 872.898 1807.149 C 875.007 1806.517, 877.773 1806, 879.045 1806 C 880.317 1806, 882.740 1805.509, 884.429 1804.908 C 886.956 1804.010, 888.334 1804.178, 892.210 1805.856 C 897.271 1808.047, 899.685 1810.799, 914.500 1831.269 C 925.033 1845.823, 928.336 1848.480, 935.822 1848.425 C 940.359 1848.391, 942.907 1847.649, 948.500 1844.733 C 958.650 1839.442, 958.309 1839.773, 956.865 1836.603 C 955.745 1834.145, 955.269 1833.948, 951.855 1834.524 C 946.538 1835.423, 943.771 1833.420, 935.500 1822.684 C 915.123 1796.235, 912.997 1794.391, 901.651 1793.332 L 895.069 1792.717 899.621 1787.654 C 905.943 1780.623, 909.163 1773.844, 909.769 1766.289 C 910.544 1756.630, 907.098 1746.224, 901.342 1740.844 C 895.355 1735.250, 891.193 1733.729, 881 1733.410 C 875.775 1733.246, 869.475 1733.490, 867 1733.951 M 747 1766.910 C 746.175 1767.403, 743.099 1768.590, 740.164 1769.547 C 737.229 1770.504, 734.579 1771.934, 734.275 1772.725 C 733.972 1773.516, 734.638 1775.814, 735.756 1777.832 C 737.886 1781.677, 737.754 1783.480, 733.624 1807 C 730.495 1824.823, 721.699 1877.699, 719.569 1891.500 C 718.635 1897.550, 717.505 1904.153, 717.059 1906.173 C 716.066 1910.668, 717.221 1912.132, 720.860 1910.992 C 722.312 1910.538, 724.625 1909.907, 726 1909.592 C 730.629 1908.529, 731.153 1907.558, 732.046 1898.385 C 733.817 1880.205, 736.672 1859.932, 737.571 1859.153 C 738.477 1858.367, 743.428 1856.838, 751.500 1854.850 C 753.700 1854.308, 756.850 1853.487, 758.500 1853.025 C 760.150 1852.564, 763.975 1851.629, 767 1850.948 C 770.025 1850.266, 774.570 1849.144, 777.100 1848.453 C 779.630 1847.762, 782.137 1847.490, 782.671 1847.848 C 783.205 1848.207, 788.974 1856.375, 795.491 1866 C 812.657 1891.353, 810.753 1889.216, 815.475 1888.430 C 820.667 1887.567, 830.298 1884.014, 831.195 1882.631 C 832.002 1881.387, 830.249 1878.393, 820.285 1864 C 816.287 1858.225, 812.549 1852.825, 811.979 1852 C 811.408 1851.175, 807.435 1845.325, 803.149 1839 C 788.432 1817.280, 780.388 1805.492, 776.878 1800.500 C 774.944 1797.750, 771.050 1792.125, 768.223 1788 C 754.608 1768.132, 753.309 1766.501, 750.899 1766.257 C 749.580 1766.123, 747.825 1766.417, 747 1766.910 M 653.785 1786.915 C 649.542 1787.787, 645.618 1788.959, 645.065 1789.520 C 644.391 1790.205, 644.514 1792.261, 645.439 1795.768 C 646.961 1801.537, 647.127 1800.670, 640.415 1822 C 638.598 1827.775, 635.476 1837.900, 633.477 1844.500 C 631.479 1851.100, 627.854 1862.857, 625.422 1870.627 C 622.990 1878.398, 620.967 1885.373, 620.926 1886.127 C 620.885 1886.882, 620.055 1889.300, 619.081 1891.500 L 617.310 1895.500 615.019 1891 C 606.529 1874.323, 594.321 1850.704, 592.017 1846.500 C 590.510 1843.750, 584.247 1831.529, 578.100 1819.342 C 571.953 1807.155, 566.251 1796.927, 565.429 1796.611 C 564.608 1796.296, 561.241 1796.667, 557.948 1797.435 C 544.435 1800.587, 544.313 1800.729, 548.571 1808.348 C 550.945 1812.596, 551.095 1813.581, 550.524 1821.224 C 545.786 1884.642, 542.751 1932.084, 543.391 1932.724 C 543.677 1933.011, 546.969 1932.852, 550.706 1932.372 L 557.500 1931.500 558.116 1900 C 558.455 1882.675, 558.792 1859.973, 558.866 1849.550 C 558.941 1838.904, 559.377 1831.016, 559.859 1831.550 C 560.332 1832.073, 567.496 1845.775, 575.780 1862 C 584.063 1878.225, 594.699 1898.925, 599.415 1908 C 604.130 1917.075, 607.991 1924.896, 607.994 1925.379 C 608.002 1926.631, 620.258 1925.115, 621.684 1923.686 C 622.335 1923.034, 624 1918.225, 625.383 1913 C 630.024 1895.470, 638.218 1866.278, 642.365 1852.500 C 643.193 1849.750, 645.261 1842.325, 646.961 1836 C 648.661 1829.675, 650.333 1823.825, 650.675 1823 C 651.350 1821.372, 653.023 1827.585, 658.479 1852 C 660.385 1860.525, 662.379 1869.075, 662.910 1871 C 663.442 1872.925, 665.280 1880.575, 666.994 1888 C 672.591 1912.242, 673.983 1917.372, 675.164 1918.102 C 676.864 1919.152, 682.633 1918.268, 692.773 1915.405 C 694.976 1914.782, 695.248 1912.212, 693.686 1906.770 C 692.854 1903.871, 690.718 1895.200, 688.939 1887.500 C 687.160 1879.800, 684.234 1867.425, 682.437 1860 C 680.640 1852.575, 678.876 1844.925, 678.517 1843 C 678.158 1841.075, 676.578 1834.100, 675.006 1827.500 C 664.499 1783.389, 665.324 1786.317, 663.242 1785.780 C 662.284 1785.532, 658.028 1786.043, 653.785 1786.915 M 744.506 1798.671 C 744.138 1802.427, 742.936 1811.785, 741.834 1819.466 C 740.732 1827.147, 739.990 1835.097, 740.184 1837.132 C 740.378 1839.167, 740.191 1840.618, 739.768 1840.357 C 739.346 1840.096, 739 1841.536, 739 1843.558 C 739 1846.900, 739.204 1847.173, 741.250 1846.566 C 742.487 1846.199, 746.650 1845.299, 750.500 1844.566 C 766.147 1841.588, 776.118 1838.750, 775.608 1837.421 C 775.333 1836.703, 772.923 1832.827, 770.253 1828.808 C 765.454 1821.583, 745.969 1792.807, 745.447 1792.171 C 745.298 1791.991, 744.875 1794.916, 744.506 1798.671 M 264.500 1794.677 C 248.998 1798.123, 235.881 1803.028, 233.051 1806.438 C 232.338 1807.297, 231.231 1808, 230.590 1808 C 229.404 1808, 222.421 1814.922, 217.797 1820.682 C 214.421 1824.889, 209.066 1837.882, 207.363 1846 C 205.494 1854.912, 205.620 1871.350, 207.617 1879.169 C 208.507 1882.651, 210.581 1888.172, 212.226 1891.437 C 215.218 1897.375, 222.683 1907.996, 223.870 1908.005 C 224.217 1908.007, 225.938 1909.357, 227.696 1911.005 C 229.453 1912.652, 231.328 1914, 231.862 1914 C 232.396 1914, 232.983 1914.348, 233.167 1914.774 C 233.684 1915.974, 247.030 1922.667, 251.500 1923.967 C 261.541 1926.888, 269.487 1928.110, 282 1928.658 C 294.217 1929.194, 312.380 1927.954, 313.849 1926.484 C 314.540 1925.794, 319.840 1871.762, 319.313 1870.787 C 318.384 1869.068, 310.568 1868.011, 298.750 1868.006 L 286 1868 286 1871.031 C 286 1874.241, 286.345 1874.486, 292.242 1875.466 C 295.131 1875.946, 296.125 1876.650, 296.603 1878.555 C 297.153 1880.744, 296.123 1896.574, 294.339 1913.367 L 293.715 1919.233 285.608 1918.556 C 272.083 1917.426, 262.322 1914.243, 252.767 1907.846 C 244.881 1902.567, 240.586 1897.720, 236.505 1889.500 C 231.639 1879.697, 230 1872.328, 230 1860.248 C 230 1835.887, 238.369 1817.612, 253.207 1809.571 C 260.595 1805.568, 267.141 1804.026, 276.807 1804.012 C 295.141 1803.986, 308.784 1810.707, 314.084 1822.377 C 315.114 1824.645, 315.966 1827.737, 315.978 1829.250 C 315.998 1831.706, 316.363 1832, 319.395 1832 C 322.655 1832, 322.807 1831.831, 323.221 1827.750 C 323.458 1825.412, 323.618 1818.779, 323.576 1813.008 L 323.500 1802.517 319.500 1801.177 C 314.876 1799.629, 305.905 1797.593, 294.500 1795.503 C 287.086 1794.144, 269.120 1793.649, 264.500 1794.677 M 361.500 1802.024 C 346.465 1803.528, 340.917 1804.325, 340.472 1805.045 C 340.217 1805.457, 340.284 1807.169, 340.620 1808.849 C 341.195 1811.723, 341.532 1811.921, 346.333 1812.202 C 354.878 1812.701, 354.602 1810.698, 353.155 1861.718 C 351.853 1907.605, 352.028 1911.223, 355.920 1918.836 C 357.984 1922.874, 364.104 1928.859, 368 1930.649 C 375.261 1933.987, 378.034 1934.494, 389 1934.492 C 403.475 1934.490, 410.747 1932.894, 423.687 1926.877 C 427.090 1925.295, 430.352 1924, 430.937 1924 C 431.546 1924, 432 1926.136, 432 1929 C 432 1933.054, 432.331 1934.020, 433.750 1934.108 C 437.835 1934.359, 451.540 1933.782, 451.988 1933.340 C 452.256 1933.074, 452.813 1919.277, 453.225 1902.679 C 453.638 1886.080, 454.393 1857.651, 454.904 1839.501 C 455.547 1816.642, 455.510 1806.114, 454.783 1805.239 C 453.645 1803.867, 438.957 1804.525, 435.911 1806.084 C 434.537 1806.788, 434.233 1810.916, 433.657 1836.699 C 433.291 1853.089, 432.696 1876.986, 432.336 1889.803 L 431.681 1913.107 428.565 1914.408 C 415.781 1919.750, 412.574 1920.469, 402.140 1920.335 C 390.248 1920.182, 385.372 1918.368, 379.560 1911.935 C 373.539 1905.270, 373.058 1897.256, 375.061 1837.010 C 375.829 1813.920, 375.820 1804.531, 375.026 1803.049 C 373.849 1800.850, 373.498 1800.823, 361.500 1802.024 M 496.500 1802.087 C 492.650 1802.524, 487.479 1803.317, 485.009 1803.850 C 482.538 1804.383, 480.207 1804.628, 479.828 1804.394 C 479.448 1804.159, 478.856 1804.425, 478.510 1804.984 C 478.165 1805.543, 476.980 1806, 475.878 1806 C 474.219 1806, 473.927 1806.560, 474.187 1809.250 C 474.469 1812.176, 474.849 1812.527, 478 1812.770 C 484.053 1813.237, 485.625 1813.883, 486.757 1816.366 C 487.362 1817.694, 488.352 1830.642, 488.958 1845.140 C 489.563 1859.638, 490.495 1880.950, 491.029 1892.500 C 491.564 1904.050, 492.001 1917.607, 492 1922.628 C 492 1928.743, 492.413 1932.077, 493.250 1932.731 C 494.063 1933.365, 497.566 1933.365, 503.262 1932.730 C 510.955 1931.873, 512.089 1931.494, 512.559 1929.621 C 513.084 1927.529, 512.038 1887.483, 509.983 1831.043 C 509.241 1810.669, 508.599 1802.364, 507.723 1801.808 C 506.381 1800.955, 506.516 1800.951, 496.500 1802.087" stroke="none" fill="#c32530" fill-rule="evenodd"/></svg>