<svg id="Camada_1" data-name="Camada 1" xmlns="http://www.w3.org/2000/svg" viewBox="0 0 2305.86 2405.12"><defs><style>.cls-1{fill:#040404;}.cls-1,.cls-2{fill-rule:evenodd;}.cls-2{fill:#c3252e;}</style></defs><path class="cls-1" d="M681.5,742c-24.89.69-33.73,1.28-60.7,4-8.34.84-42.25,6.42-78.8,13-12,2.14-48.23,15.78-63,23.69-11.09,5.94-29.68,17.23-30.79,18.69-.51.67.72,23.67,2.91,54.65,6.6,93.15,20.73,295.06,23.35,333.5,3.1,45.55,5.34,77.6,6.11,87.5.32,4.13,2.32,18.3,4.45,31.5s6.61,42,10,64,7.66,46.75,9.58,55,4.82,25.23,6.46,37.74c3.54,27,7.69,48,11.76,59.76,1.63,4.68,3.72,11.94,4.64,16.13,3,13.57,13.22,38.62,27,66.13,15.41,30.76,22.83,43.57,32.52,56.24,3.79,5,9.92,14,13.63,20,8.91,14.54,22.36,33.83,35.35,50.72,5.81,7.55,12.81,17,15.56,21a76.22,76.22,0,0,0,9.42,11.28c2.43,2.18,10.75,10.76,18.5,19.07,24.55,26.36,63.8,56.79,100.24,77.7,28.49,16.36,41.58,22.14,80.05,35.35l8.2,2.81.5,5c.28,2.75,1.21,31.79,2.07,64.51s3.37,119.32,5.55,192.45,3.64,133.25,3.22,133.62-7.5,1.67-15.75,2.89-19.72,3.34-25.5,4.7a559.67,559.67,0,0,1-57,9.87c-23.57,2.48-79.69,5.47-102.64,5.47H656.22l-4.06,9.25c-5.61,12.8-14,35.83-14.73,40.48l-.62,3.86,14.85,4.69c51,16.09,100.87,23.21,180.52,25.76,31.93,1,48.91.8,128.82-1.68l20.5-.63,9.5-5.05c12-6.37,28-16.64,34.48-22.18,5-4.23,16.63-12.76,30-22,3.85-2.65,12.2-8.75,18.57-13.54,16.88-12.73,27.91-19.56,37.74-23.37,9.09-3.52,42.24-14.52,57.69-19.14a254.29,254.29,0,0,0,24-9.42c8.25-3.71,22-9.5,30.58-12.87,17-6.7,25.78-11.19,37.06-19,6.4-4.42,8.25-6.45,14-15.39,8.21-12.77,10.25-18.27,13.38-36.11,4.91-28,2-51.17-8.27-66.68-5.4-8.12-30.15-33-32.83-33-5.66,0-18,3.79-27.92,8.61-8.68,4.19-37.18,20.73-39.19,22.75-.24.23.5,2.15,1.63,4.27,4.24,7.9,7,7.36-38.19,7.49-36.39.11-39.52.25-32.6,1.41,4.2.71,15,3.1,24,5.3s25.35,5.67,36.35,7.7c17.82,3.29,21.2,3.63,31,3.15A85.73,85.73,0,0,0,1221,2162l7.47-2.19,3.78,4.37c6.58,7.63,7.27,9.88,7.27,23.87v12.5l-6.66,13.5c-7.85,15.93-16.41,26.82-33.6,42.74-12.34,11.44-20.88,16.62-33.91,20.57l-8.17,2.48-6.33-2.22c-9.32-3.27-27.92-13.05-39.33-20.68-13.65-9.13-29.72-22.77-30.55-25.91a59.11,59.11,0,0,0-3.16-7.75c-1.37-2.88-2.31-5.23-2.07-5.23a71.5,71.5,0,0,1,6.6,4.37c20.61,14.59,36.86,19,66,18,18.23-.63,22-1.37,35.92-7,11.52-4.7,18.54-8.54,29.77-16.27,5.51-3.8,6.72-5,5.33-5.47-4.38-1.35-22.06-3.59-36.31-4.6-31.38-2.22-49.3-5.51-65.93-12.13-7.27-2.9-21.07-11.28-21.07-12.8,0-.42-1.74-3.46-3.86-6.74-5.24-8.11-8.14-16.26-8.14-22.88V2147H968.67l6.46,6.75c13.19,13.77,33.32,42.09,51.13,71.91,12.2,20.43,13,22.44,14.32,38.34a73.13,73.13,0,0,1-.51,15c-1.36,8.79-3.22,11.14-17,21.51-19.44,14.66-44.62,23.49-67,23.49h-10l-.56-6.25c-.31-3.44-1.68-32.8-3.06-65.25-2.26-53.23-2.39-61.25-1.3-82,1.45-27.66,1.41-51.11-.1-66-.62-6.05-1.8-19.1-2.62-29s-2.83-30.6-4.45-46c-1.93-18.37-3.48-41.41-4.53-67-.87-21.45-1.75-41.25-1.95-44-.33-4.35,1.34-22.77,5.47-60.25.63-5.76.94-18.68.7-29.5-.53-23.56-2-30.18-9.79-42.75-10.3-16.73-14.81-20.57-34.52-29.38-13-5.81-20.69-7.5-44-9.67-9.11-.84-13.85-1.87-20.89-4.51A115.36,115.36,0,0,0,810,1738a35.28,35.28,0,0,1-10-3.77c-2.47-1.51-8.78-4.74-14-7.17-19-8.87-46.65-26.6-55.4-35.57-3.5-3.58-8-7.83-10-9.43-11.11-8.83-37.8-40.57-52.28-62.16-8.44-12.6-39.48-66.29-47.09-81.47-4.57-9.11-19.42-42.62-19-42.85,2.72-1.43,8.69-2.58,13.43-2.58h6l9,9.75c14.74,16,28.52,32.15,39.93,46.88,5.9,7.63,15.73,19,21.83,25.37s12.9,13.68,15.1,16.34c3.72,4.51,24.54,19.7,35.49,25.9,6,3.41,25.34,8.66,36.64,10,11.05,1.28,26.41.22,22.36-1.54-4.28-1.85-19.24-14.48-24.84-21-11.59-13.41-17.29-21.72-19.62-28.56-2.45-7.21-6.92-15.13-8.53-15.13-2.26,0-12-24.71-12-30.43,0-4.78-5.45-25-9-33.57a44.17,44.17,0,0,1-3.69-15.5c-.52-7.87-.44-8.21,4.55-20.29a103,103,0,0,1,11.36-21c7.74-10.76,36.2-39.46,52.31-52.76,11.5-9.49,28.68-24.81,51.78-46.18a258.15,258.15,0,0,0,18.28-18.87l7.5-8.9-9.71-.29A164.81,164.81,0,0,0,836,1315c-8,1.12-15.26,2-16.07,2-2.75-.06,3.46-2.81,17-7.55,7.42-2.59,13.87-5,14.31-5.42s-1.58-1-4.5-1.41c-5.28-.69-22.65-6-24-7.41-.65-.64,8.76-12.3,27.42-34a153.87,153.87,0,0,0,12.82-18.5c3.58-6.14,7.32-12.38,8.32-13.85,1.59-2.37,5.95-14.87,5.38-15.43-.72-.71-44.77,23.92-57.72,32.26-19.49,12.56-44.54,27.27-54.71,32.13-6.63,3.16-9,3.76-15.79,4-6.18.23-8.8-.11-11.5-1.5-4.43-2.28-4.85-5.14-2.09-14.22,1.94-6.4,2.8-7.55,15.83-21.17,7.58-7.93,23.49-25.21,35.37-38.41s24.15-26.19,27.29-28.87,10.12-10.12,15.52-16.54c11.8-14,21.11-22.81,34.83-32.92l10.25-7.55v-16.56c0-20.93,0-21.06-5.36-21.07a72,72,0,0,1-12.44-2,74.68,74.68,0,0,0-11.31-2c-1.85,0-5.27-1.55-8.93-4-7.08-4.8-7.49-6.79-2.83-13.78,1.72-2.57,12.21-13.68,23.31-24.68,14.62-14.49,21.11-21.65,23.52-26l3.33-6-.7-17.49c-.39-9.62-.84-17.64-1-17.81-.65-.65-12.16,6.7-14.56,9.3-1.37,1.49-9.92,9.12-19,16.94s-28,25.55-42,39.37S780.2,1060,779.84,1060s-2.4,2.15-4.5,4.76c-6.08,7.54-14.08,14.44-24.43,21.09l-9.59,6.16H730.83c-9.94,0-10.6-.13-12.88-2.55-1.9-2-2.12-2.73-1-3.39s1.23-3.72.68-15.7l-.67-14.86,6.83-13.53A170,170,0,0,1,737,1020c3.55-4.63,10.29-13.93,15-20.67,16.2-23.33,51.49-65.51,91.1-108.9,9.57-10.48,22.94-25.67,29.71-33.75s12.61-14.66,13-14.63c2.62.21,66.36,81.7,72.14,92.24,2.3,4.18,14.71,23,27.59,41.9,36.76,53.86,76.19,112.72,88,131.3,34.31,54.2,70.5,123.83,78,150,.94,3.3,3.9,11.85,6.59,19,5.69,15.16,8.54,26.51,13.56,54,3.22,17.66,3.71,22.46,4.15,41,.53,22.94-.39,33.83-4.41,51.86-1.34,6-3.48,13-4.77,15.5s-3,6.29-3.88,8.3l-1.53,3.67,8.67,9.22c4.76,5.06,8.79,9.55,9,10s-3.73,4.07-8.65,8.12c-8.21,6.76-9.28,8.07-13,15.87-6.47,13.61-22.15,48-22.15,48.61,0,1.9-7.82,15.5-14,24.39-10.26,14.7-19.54,24.66-28.91,31l-8,5.46,0,33.75,0,33.75h20l12.73-10.85c11.69-10,18.45-15.12,56.78-43.4,7.17-5.29,16.35-11.5,20.39-13.79s10.37-6.09,14.06-8.46c7.76-5,31.23-16,45-21.18,5.22-2,11.3-4.48,13.5-5.59s10.53-3.77,18.5-5.91a124.81,124.81,0,0,1,28.25-4.79c7.56-.5,14.09-1.11,14.5-1.36,1.66-1,47,3.51,63.25,6.27,8.49,1.45,28.3,8.67,40.2,14.66,9.22,4.64,13.33,7.34,24.3,15.94,5,3.89,11.2,8.61,13.9,10.51a43.73,43.73,0,0,1,9.26,10c2.39,3.57,7,10.1,10.31,14.5s6.94,10.47,8.15,13.5,4.55,10.7,7.43,17c9.3,20.58,15.23,51.78,14.76,77.68-.29,16.61-4.61,49.52-8.94,68.27-4.16,18-10.24,31.38-29.31,64.47-5.4,9.39-10.45,16.61-15.36,22-11.89,13-63,84.26-68.91,96-1.66,3.3-6.51,11.85-10.77,19-12.67,21.26-22.45,40.12-28.52,55-3.14,7.7-6.14,14.81-6.66,15.8-.88,1.64-1.84,1.32-11.15-3.66-5.6-3-14.77-7.48-20.38-10-8.74-3.87-17.83-8.93-44.75-24.9-10.6-6.29-28.38-19.64-35.68-26.78-4.21-4.12-9.86-9.53-12.56-12-5.83-5.36-13.64-17.57-17.16-26.83-2.28-6-2.57-8.43-2.94-24.42l-.41-17.75h-60.35c-33.19,0-60.54.34-60.78.75s.08,28.15.72,61.64c1.12,58.73,1.23,60.94,3.13,62.27,1.08.76,8.27,5.54,16,10.61s17.15,11.73,21,14.79,7.57,5.9,8.26,6.32-1.44-3.72-4.75-9.2l-6-9.95v-17.48l5.17-7.13c6.69-9.2,12.24-15,23.32-24.47,5-4.21,12.53-10.9,16.86-14.87l7.86-7.22,13.65,12.9c16.37,15.48,69.05,60.78,82.23,70.7,35.63,26.82,48.27,35.85,54.41,38.86,3.85,1.9,8.35,4.35,10,5.45,2.86,1.93,4.59,2,38.12,2h35.12l.7-12.25c.87-15.24,4.4-32.81,8.91-44.4,1.9-4.87,6-15.6,9.19-23.85,10-26.22,18.72-41.72,54.17-96.73l22.9-35.5c22.11-34.28,29.08-46.6,41.23-72.83,14.92-32.22,23.55-71.16,23.58-106.44,0-15.46-.3-19-2.77-30.36-8.57-39.49-20.94-69.82-36.82-90.29-3.48-4.49-9.57-12.36-13.53-17.5-12.18-15.81-25.66-28.18-45.38-41.68-36.52-25-58.41-34.05-95.92-39.72-24.37-3.68-48.52-5.13-61.42-3.69-15.91,1.78-63.5,14-90.33,23.28-7.84,2.69-14.25,4.45-14.25,3.91,0-4.36,7.36-88.94,8.52-97.91,2.31-17.86,2-66.74-.54-91.23-3.55-34-6-54.23-7-57.31-.52-1.65-3.19-12-5.94-23-11.39-45.59-29.5-85.7-62.06-137.5-9.16-14.57-20.42-32.57-25-40-12.15-19.61-19.37-30.94-41.13-64.5-19.87-30.65-23.76-37.15-37.42-62.5-4.29-8-10.72-19.45-14.29-25.5-19-32.3-28.13-48.75-35.94-65-14.41-30-44.48-89.8-55.56-110.5l-10.44-19.5-20.86-.68c-32.88-1.06-191-1.65-220.85-.82M554.62,826.62c.25,3.23,1.1,16.85,1.89,30.27s1.61,24.56,1.83,24.78c.77.77,12.26,2.32,17.28,2.32,5.48,0,12.22,2.39,21.51,7.6l5.63,3.16,2.62-2.62c3.36-3.36,9-12,12.85-19.63a89.43,89.43,0,0,1,5.11-9c1.65-2.34,2.17-4.88,2.49-12.25l.41-9.3h-5.07c-3.41,0-7.76-1.09-13.36-3.34-4.57-1.84-10.11-3.91-12.31-4.59s-9.31-3.74-15.81-6.8c-9.71-4.56-13-5.63-18.66-6l-6.86-.49.45,5.88m-11.09,280.63c-1.73,7.67-4.71,28.54-6,42.14-1.36,14.21-1.36,18.27,0,38.5.84,12.43,1.63,23.39,1.75,24.34.37,2.77,18.16-14.5,32.09-31.15,13.24-15.81,19.7-25.12,26-37.46,4-7.8,10.76-26.53,10-27.76-.21-.34-2.52-.95-5.14-1.34a57.78,57.78,0,0,1-11.33-3.49c-10.51-4.46-19.34-6-33.86-6-12.7,0-13,.06-13.54,2.25M681,1167.36c-1.92,1.31-7.68,5-12.79,8.17-7.92,4.92-10.7,7.45-18.78,17-14.35,17-24.07,32.25-26.43,41.45-1,4.14-2.62,9.49-3.47,11.91s-1.33,4.62-1.06,4.89,4.2-1.18,8.72-3.22c8.9-4,17.61-10.55,30.57-23,7.34-7,19.21-21.67,22-27.12,2.21-4.32,6.34-26.32,5.54-29.44l-.8-3.08-3.5,2.38m32.5,145.84c-12.79,13.39-16.75,19.23-20.47,30.16-1.52,4.48-4.35,12.19-6.28,17.14-3,7.8-4.18,11.54-7.41,24.25-.56,2.22-.43,2.25,9,2.25,7.57,0,10.94-.5,16.12-2.38,3.59-1.3,6.54-2.18,6.54-1.94s2.67-2.62,5.93-6.34c5.08-5.82,6.73-8.81,11.65-21.07,3.15-7.87,5.92-14.11,6.15-13.87a30.43,30.43,0,0,1,1.76,5.27c.73,2.65,1.37,4,1.42,2.9.11-2.39-11.77-45.76-12.84-46.87-.43-.45-5.64,4.28-11.57,10.5m-136.32,3.86c-5.94,8.09-7.2,29.36-2.68,45.41,2.13,7.58,3.58,10.33,7.35,13.91l3,2.88,8.81-8.08c21-19.27,33.72-35,34.44-42.71.63-6.64.93-6.47-11.47-6.47-9.63,0-12.79-.44-21-2.92-5.34-1.6-10.8-3.62-12.13-4.5a13.43,13.43,0,0,0-2.87-1.58,22.39,22.39,0,0,0-3.44,4.06m758.24,353.83.69,57.39,2.58,5.11a97.84,97.84,0,0,0,5.45,9.3c6,8.75,10.56,23.16,14.39,45.49,1.88,11,1.44,20-1.64,33.82-1,4.68-2.42,11-3.07,14-1.23,5.7-8.2,22.87-13.69,33.75L1337,1876l.27,36.2.26,36.2,11.92-15c6.55-8.22,13.76-17.79,16-21.28s6.88-10,10.29-14.5a165.93,165.93,0,0,0,10.93-16.66c2.59-4.68,6.07-10.51,7.73-13,3.77-5.57,19.09-35.68,21.83-42.89,2.83-7.49,6.8-23.94,6.78-28.14,0-1.92-1.11-10.79-2.45-19.69-1.77-11.78-3.13-17.55-5-21.18-1.38-2.74-3-5.28-3.56-5.63s-3.22-3.87-5.9-7.82-10.61-13.71-17.63-21.68c-16.31-18.54-21.78-25.91-29.38-39.58-6.71-12.09-13.72-31.17-19.6-53.37-2-7.4-3.83-13.7-4.16-14s-.29,25.28.09,56.84M512,1797.56a195.47,195.47,0,0,1-22.5,5.85c-31.33,5.14-40,7-60.18,13.14-17.05,5.16-25.71,8.44-39.36,14.91-9.62,4.55-20.73,9.69-24.68,11.42s-10.93,5.29-15.5,7.93-14.49,8.06-22,12a302.79,302.79,0,0,0-28.5,17.83c-8.14,5.82-23.38,16.35-33.89,23.4-19.92,13.38-41.91,31.47-72.9,60-8.8,8.1-20.27,18.3-25.5,22.69-14.43,12.11-47.09,42.17-60,55.23-10.88,11-17.87,19.65-46.49,57.51-15.35,20.32-19.15,25.94-27.08,40.12-11,19.7-15.1,29.89-24.22,60.62L.51,2229.5l.11,30.09c.09,23.81.43,31.11,1.63,35,.83,2.7,2,6.75,2.62,9,1,3.52,6.31,11,12.91,17.92,5.58,5.89,16.19,13.58,24.86,18,5.38,2.75,12,6.38,14.82,8.07a62,62,0,0,0,8.54,4.36c1.93.71,9.57,4.17,17,7.69,10.14,4.8,15.62,6.76,22,7.88,4.68.82,18.18,3.74,30,6.49,22,5.12,83.33,16.18,99.5,17.94,18.07,2,58.88,5.1,95,7.28,30.58,1.84,46.8,2.23,93.5,2.23,52.23,0,57.82-.16,74-2.19,43-5.4,72.84-13.91,84-23.93,5.64-5.07,9.37-13.52,8.48-19.21-1-6.71-2.89-11.6-4.93-13.09-1.12-.81-3.72-3-5.77-4.85L575,2334.8l-24.77-.46A500.16,500.16,0,0,1,499,2330.9c-32.62-3.67-57.79-7.29-69-9.93-4.67-1.1-14.8-3.13-22.5-4.51s-20.08-4-27.5-5.92-16.87-3.9-21-4.49c-8.37-1.2-47.66-3.52-55.63-3.28-5.85.18-23.06,5.79-29.71,9.69-9.08,5.32-23.09,10.57-32.49,12.17-9.18,1.57-12.78,1.48-22.38-.56-4.4-.93-8.79-3.91-8.79-6s8.22-11.52,17-19.42c6.75-6.06,10.27-10.08,12.16-13.86,2.6-5.19,4.36-11.78,4-14.86-.11-.84,4.58-15.47,10.41-32.5l10.6-31-.68-10.4-.68-10.41-6.15-6.65a90.38,90.38,0,0,1-7.14-8.42c-.89-1.57-2.23-.85-12,6.48-6.05,4.53-14.54,11.35-18.87,15.15s-8.83,7.3-10,7.79-6.18,2.46-11.13,4.37c-15.43,6-21.55,9.82-30.35,19.11l-8,8.48h-5.82c-8.34,0-9.1-.73-7.3-6.69,1.05-3.47,1.45-10.18,1.47-24.3l0-19.5,6.57-11c29.47-49.29,56.93-89.09,91.44-132.5,9.76-12.27,21.31-25.8,25.61-30,1.45-1.4,9.1-7.25,17-13s21.55-16.23,30.31-23.31c19.87-16,63.32-44.59,120.57-79.2,27.92-16.88,44-27.08,61.5-38.94,9.9-6.72,23.63-15.51,30.5-19.54,9.86-5.78,38.24-24.58,42.29-28,.72-.61-44.77-13.12-46.88-12.89-.5.05-7,2.06-14.37,4.46M352.5,2228c-16.77,5.9-25.47,11-33.66,19.77-9.47,10.14-11.47,19.15-6.44,29.07,3.33,6.59,5.77,8.2,12.34,8.2,7.86,0,20.17-6.55,32-17,7.23-6.41,9.25-8.77,9.26-10.83,0-1.45-.54-9.27-1.2-17.38-1-12.2-1.48-14.74-2.76-14.68a76.58,76.58,0,0,0-9.55,2.89M119,2247.69l-1.28,5.75,3.33,2.78c3.17,2.64,3.84,2.78,13.54,2.78,5.61,0,10.89-.26,11.74-.59,1.92-.74,4.87-9.43,4.45-13.13l-.32-2.78-15.09-.27-15.08-.28-1.29,5.74M63.33,2253c-18.64,9.67-24.21,20.61-21.3,41.88,1,7.47,1.87,10,4.85,14.71,3.21,5,4.6,6.15,12.35,10.06L68,2324H93.08l-2.57-4.39c-2.64-4.5-7.68-22.91-14-51.11-4.21-18.76-4.42-19.54-5.32-19.38-.37.06-3.9,1.79-7.85,3.83" transform="translate(-0.14 0.24)"/><path class="cls-2" d="M586.1,3.42A62.32,62.32,0,0,1,572.6,9.6c-4.46,1.39-9,2.94-10.1,3.44s-4.41,1.83-7.34,3c-6.89,2.65-14.76,7-24.16,13.3L516,39.42c-4.15,2.79-10.22,7.21-13.51,9.82s-8.88,7-12.45,9.84-13.24,11.56-21.5,19.46-20.46,18.78-27.12,24.18c-10.38,8.43-38.92,34.75-50.33,46.42-6.31,6.46-16.07,18.75-22.77,28.68-3.59,5.32-7.08,10.36-7.77,11.18s-3.6,6-6.5,11.5-5.58,10.45-6,11-4.46,11.08-9,23.4c-11.22,30.39-11.55,32.63-11.48,78.6l.06,36,3.2,14.5c1.76,8,5.48,22.6,8.26,32.5s5.72,20.48,6.52,23.5c2.14,8,4.49,15.15,6,18,.7,1.38,2.26,5,3.47,8,4.95,12.45,23.36,46.4,26.61,49.1a3.66,3.66,0,0,1,1.38,2.1c0,.52,3.13,5.53,7,11.12,7.47,10.94,30.71,34.91,39,40.28,2.48,1.6,4.95,3.25,5.5,3.68,29,22.73,58.58,33.06,101.15,35.3A173.35,173.35,0,0,0,582.5,583c31.65-8.12,33-8.57,49-16.71,7.23-3.67,32.22-18,34-19.48.55-.47,7.53-5.57,15.5-11.33,10.91-7.9,18.09-14.16,29-25.28,13-13.3,38.88-43.37,39.91-46.45a38,38,0,0,1,2.76-5c2.41-3.84,4.1-6.91,13.34-24.25,2.93-5.5,6.15-11.35,7.15-13,2.41-3.95,2.37-6.5-.1-6.5a3.3,3.3,0,0,0-2.5.9,20.62,20.62,0,0,1-4.8,3.11c-8.43,4.39-44.25,24.37-45.24,25.23-1.41,1.22-21.41,13-30.52,18-4.12,2.26-12.67,6.89-19,10.29l-19,10.24c-36.86,19.89-61.45,30.66-75,32.86-10,1.63-25.69,1.8-34.92.37-3.62-.55-9.61-1.49-13.32-2.08-7.51-1.2-27.85-10.8-36.43-17.2-9.3-6.93-10.83-8.17-11.2-9a84.06,84.06,0,0,0-6.08-7.19c-8.15-9-17.55-27.7-22.59-45-4.13-14.16-10.23-42.63-12-56-3.58-27.13.7-69.27,11.68-115a93.63,93.63,0,0,1,2.84-10c.51-1.1,5.44-11.37,11-22.83s10.05-21,10.05-21.29c0-1.12,11.46-23.38,20-38.88,14.18-25.68,21-38.8,21-40.53a2.33,2.33,0,0,0-1.15-2.18c-.63-.22,3.69-6.89,9.59-14.84,14-18.83,32.27-39,44.49-49,3-2.45,7.05-5.88,9-7.62C582.48,54.23,592.76,47,593.64,47c.24,0,4.55-2.76,9.57-6.14,12.37-8.32,18-10.31,36-12.81,8.4-1.16,19.68-2.78,25.06-3.58A164.78,164.78,0,0,1,684.55,23c9.48,0,27.84-2.06,31.75-3.56.86-.33,7.33-.9,14.37-1.27l12.81-.67,2.23-4.71c1.4-2.95,3.38-5.3,5.32-6.31s3-2.22,2.76-3.29C753.49,1.62,748.4,1.5,683,1.5c-38.76,0-75.2-.39-81-.87L591.5-.24l-5.4,3.66M1080.5,308c-35.68.5-43.85.87-48,2.21-2.75.89-7.47,2.29-10.5,3.12-19.82,5.41-40.23,14.43-49,21.66-2.47,2-10.12,7.89-17,13s-12.72,9.56-13,9.89-5.45,4.29-11.5,8.79c-6.87,5.1-13.29,10.91-17.09,15.48-3.35,4-10.48,12.22-15.83,18.22s-10.49,12.07-11.41,13.5a56.9,56.9,0,0,1-4,5.29c-1.31,1.49-5,6.66-8.23,11.5s-6.21,9.25-6.63,9.8c-2.65,3.45-14,23.62-18.34,32.5-3.95,8.13-11,25-13.34,32.1-4.88,14.6-8.07,59.95-4.77,67.9.57,1.38,2.24,7,3.71,12.5s3.72,11.58,5,13.5a66.31,66.31,0,0,1,4.14,7.47,18,18,0,0,0,5.34,6.28,58.29,58.29,0,0,1,6,4.62c7.06,6.5,23.61,11.83,44.5,14.33,16.82,2,54.69,1.19,70.5-1.54,21.31-3.67,42.41-9,58.5-14.69,8.8-3.13,20-6.8,25-8.16a72.51,72.51,0,0,0,18-7.83c5-3,11.72-6.72,15-8.37a78.67,78.67,0,0,0,9.07-5.3c11.92-8.84,22.06-17,23.09-18.5,7.63-11.39,10.41-16.08,11.92-20.08a57.78,57.78,0,0,1,3.57-7.73c2.41-4,2.4-8.5,0-8.5s-53.72,17.25-59.24,19.92a28.88,28.88,0,0,1-5.08,2.08c-.91,0-26.57,10-36.36,14.17l-10.5,4.47c-1.92.82-4.4,1.89-5.5,2.38-2.79,1.24-36.51,9.93-45,11.6-10,2-30.54,1.7-46.84-.62-12.18-1.73-14.34-2.33-17.95-5-2.26-1.66-4.88-3-5.83-3-4.64,0-16-14-19.5-24-9.31-26.79-3.66-58.07,13.77-76.13,5.75-6,24.51-19.92,26.76-19.92a1.48,1.48,0,0,0,1.26-.75c.53-1.19,12-6.1,15.83-6.79,1.92-.34,11.12-2.64,20.44-5.11s21.7-5.37,27.5-6.44c19.9-3.66,44.56-7.75,53.56-8.88,41.6-5.2,49.71-6.39,65.48-9.65,6.87-1.42,14.07-3.36,16-4.32a55.56,55.56,0,0,1,8.52-3.08,78.11,78.11,0,0,0,11.67-4.66,63.1,63.1,0,0,1,7.32-3.32,65.07,65.07,0,0,0,7.83-4.6c10.06-6.44,18.4-15.36,22.83-24.43,5.06-10.34,5.85-14,5.85-27.09,0-10-.35-12.38-2.91-19.64-1.61-4.53-4.24-9.92-5.86-12a22.38,22.38,0,0,1-3.6-6.5L1175,307l-25.73.22c-14.15.13-45.08.5-68.73.82M1034,366.81a132.88,132.88,0,0,0-24.86,20L997.77,398h86.82l5.12-3.75c3.24-2.38,5.74-5.21,6.84-7.75,6.78-15.61,12.21-25.08,15.92-27.73.57-.41-13.82-.73-32-.72h-33L1034,366.81m347,48.69a20.1,20.1,0,0,1-4.28,2.44c-.69.05-13.65,8.86-19.22,13.05-3.51,2.65-19.89,19.35-23.51,24-1.92,2.46-4.86,6.06-6.55,8s-3.93,4.69-5,6.11c-1.6,2.11-11.1,13-17.44,19.91-.82.9-4.87,5.44-9,10.08s-8.54,9.57-9.81,10.94-6.9,8.57-12.5,16c-13.44,17.8-37.43,48.6-45.19,58-9.65,11.69-28,36.33-32.12,43.24-2.08,3.44-5.94,9.25-8.58,12.9s-4.8,6.94-4.8,7.32a16.47,16.47,0,0,1-2.5,3.95c-1.37,1.8-2.5,3.78-2.5,4.38a2.69,2.69,0,0,1-1.32,1.91c-.73.44-3.31,3.5-5.75,6.8s-4.92,6.45-5.53,7c-2.76,2.51-12.36,16.56-14.85,21.72s-2.66,6.12-1.67,10.5c.6,2.63,1.32,6.36,1.6,8.28.67,4.44,5.33,9.46,10.24,11a19.81,19.81,0,0,1,6.28,3.53c4.29,4,7.26,4.44,28.06,4.44H1215l23.75-12.14c13.06-6.68,26.68-13.72,30.25-15.65s12.57-6.65,20-10.5,14.21-7.61,15.08-8.36a5.53,5.53,0,0,1,2.72-1.35,18.14,18.14,0,0,0,4.92-2.13c2.08-1.17,9.85-5.29,17.28-9.15s16.88-8.81,21-11c19.46-10.34,41.74-21.15,56.08-27.19l7.85-3.32-1.85,3.65c-1,2-3.65,7.47-5.86,12.14S1399,661.25,1395,669.5s-8.69,18.38-10.49,22.5-4.85,10.88-6.8,15c-5.62,12-15.69,36-15.69,37.53a2.42,2.42,0,0,1-.87,1.89c-1.09.67-9.14,23.05-12.57,34.94-4.51,15.63-3.15,33.45,3.62,47.42,4.31,8.91,15.89,23.67,21.11,26.92a37.39,37.39,0,0,1,5,6c3.51,4.86,16.51,17.38,18.93,18.23A16.93,16.93,0,0,1,1401,883a72.74,72.74,0,0,0,8.76,6.85,43.66,43.66,0,0,1,8.87,7.93c3.12,4.29,13.42,12.67,22.05,17.93a309.74,309.74,0,0,0,30.24,16.77c18.81,9.44,26.47,13,32.45,15,2.66.89,9,3.54,14,5.9s15,6.45,22.17,9.09,13.9,5.21,15,5.7,8.07,2.88,15.5,5.33,20.25,7,28.5,10.07c13.1,4.91,16.9,5.87,30,7.61,8.25,1.09,16.57,2.41,18.5,2.93a31.31,31.31,0,0,0,6.75.94c1.79,0,3.25.22,3.25.48,0,.52-2.14,4.36-6.86,12.32-1.73,2.92-3.14,5.69-3.14,6.17a1.43,1.43,0,0,1-.89,1.21c-.49.18-2.24,2.8-3.88,5.83s-6.13,10.68-10,17c-10.88,17.86-12,19.8-17.29,31-2.74,5.78-5.43,11.18-6,12a109.51,109.51,0,0,0-11.09,22.86c-2.84,8.18-3.1,9.75-2.08,12.57a19.53,19.53,0,0,1,1.16,5.2c0,2.49,4.86,12.37,6.09,12.37.51,0,3.24,2.47,6.09,5.5s5.73,5.5,6.42,5.5c1.21,0,6.35,6.82,7.6,10.09.34.87,5.67,8.3,11.84,16.5l11.23,14.91.24,18.5c.15,11.33.7,19.65,1.43,21.48a81.51,81.51,0,0,1,2.64,10c2.24,10.81,9.18,24.22,15.44,29.85,2.86,2.57,5.79,4.67,6.51,4.67a1.88,1.88,0,0,1,1.64.8c.58,1.4,13.17,10,18.84,12.8,3,1.51,7.4,4,9.78,5.48a118.84,118.84,0,0,0,15,6.93c5.88,2.3,11.59,4.59,12.69,5.09,8.71,4,52.67,17.91,61,19.32,5.5.93,13.38,2.54,17.5,3.58,12.68,3.19,24.46,4.48,28.88,3.15a30.2,30.2,0,0,1,7-1.15c3.17,0,18.17-7.12,23.07-11,2-1.6,2.3-2.29,1.4-3.75-1.23-2-2.87-3-12.76-7.39-8.14-3.66-16.61-6.68-22.14-7.89-2.2-.48-9.18-2.27-15.5-4s-13.53-3.49-16-4c-17.87-3.48-51.81-14.54-59.2-19.29-11.92-7.66-13.8-8.77-14.78-8.77a1,1,0,0,1-1-.85c0-.47-2.81-2.81-6.25-5.18-8.54-5.91-22.44-18.55-25.52-23.2-2-3.09-2.69-5.69-3.35-13.51-.7-8.33-.53-10.75,1.23-17.23,1.12-4.14,2.31-8.65,2.63-10s2.26-4.29,4.31-6.5,4.9-5.43,6.34-7.16c1.87-2.25,6.51-4.84,16.36-9.14,16.09-7,16.41-7.11,30.75-8.41,14.17-1.28,15.44-1.29,44.5-.43,37.52,1.1,51.89,4.17,94.5,20.17,5.5,2.06,14.28,5.29,19.5,7.17s17.82,6.71,28,10.73,20.3,7.89,22.5,8.58,7.38,2.81,11.5,4.72,9.3,4.16,11.5,5a45.42,45.42,0,0,1,6.24,3,6.42,6.42,0,0,0,4.82.78c1.41-.35,5.66-1,9.44-1.5,4.72-.6,7.57-1.52,9.12-3,1.24-1.15,2.83-2.1,3.53-2.1,2,0,5.35-4.16,5.35-6.68,0-3.39-15.22-19.66-25.5-27.25-3.3-2.44-6.22-4.7-6.5-5-1-1.19-8.81-7-9.39-7-.33,0-5.65-3.15-11.82-7s-11.55-7-11.94-7-7.94-4.45-16.76-9.88c-9.77-6-20-11.46-26.31-13.91a448,448,0,0,0-45.28-14.75c-5-1.22-15.3-4-23-6.26A239.09,239.09,0,0,0,1797,1099c-8-.58-18.32-1.48-23-2-19.29-2.16-69.2-.47-91.88,3.1-3.51.56-6.58.81-6.83.56s-.13-6.07.26-12.94l.71-12.47,9-9.36c21.86-22.77,36.07-38,42.9-45.91l19.36-22.5c6.6-7.67,12.62-14.6,13.38-15.4s4.81-5.75,9-11,7.9-9.77,8.25-10c2.2-1.73,14.12-16.94,19.2-24.5,3.33-5,8.33-12.16,11.12-16s5.51-7.73,6.06-8.58,2.69-4.08,4.75-7.17,3.75-6.23,3.75-7a3.9,3.9,0,0,1,1-2.38c1.89-1.89,3.26-19.25,1.91-24.09-.67-2.38-1.6-4.57-2.08-4.87a2.64,2.64,0,0,1-.86-2c0-2.9-14.39-20.62-20.88-25.71a138.12,138.12,0,0,0-13.11-7.25L1778.23,826h-98l-.72,9.25c-.72,9.11-2.5,14.65-6.26,19.46l-1.73,2.22-10-5.1a407.67,407.67,0,0,0-49.5-20.48c-11.39-3.83-41.55-11.29-58-14.35-2.47-.46-8.78-1.77-14-2.91-39-8.55-44-9.32-56-8.73s-32.21,4.18-43.21,7.66c-5.26,1.66-7.87,1.88-15.93,1.35-10.54-.7-9.62-1.07-15.38,6.13-1.49,1.86-1.56,1.49-1-5.5.74-8.87,4.78-21.78,12.21-39,8.48-19.66,9.14-21,15.26-30.5,3.18-5,7.13-11.7,8.8-15s9.47-14.83,17.37-25.62c15.28-20.87,15.58-21.26,29.21-38.18,8.72-10.83,14.94-19.88,19.71-28.7a35.49,35.49,0,0,1,3.07-5,53,53,0,0,0,3.86-6.5c1.78-3.3,4.63-8,6.33-10.5,8.24-12,13.63-20.39,15.23-23.77,1-2.05,5.74-12,10.6-22,6.86-14.19,9.52-21,11.85-30.2,1.65-6.54,3-12.14,3-12.45s-15.19-.53-33.75-.49l-33.75.06-5.32,6.46c-3,3.69-10.11,10-16.5,14.83-6.15,4.61-12.08,9.23-13.18,10.27-8.83,8.3-40.12,29.25-55.5,37.16-30.88,15.88-41.29,21.1-49,24.59-4.68,2.11-13.77,6.28-20.21,9.26a289.51,289.51,0,0,1-30,11c-38.37,11.64-37,11.33-49.17,11.3-7.19,0-11.95-.5-13.46-1.34-2.61-1.45-3.43-.49,30.42-35.58,7.19-7.45,15.06-15.8,17.5-18.55a67.46,67.46,0,0,1,6.17-6.31A4.25,4.25,0,0,0,1301,588c0-.52,2.14-3.08,4.76-5.7,6.91-6.9,31.38-33.51,40.71-44.25,2.62-3,7.21-8.26,10.18-11.63,4.92-5.58,14.83-18,19.85-24.94,1.1-1.52,2.47-3.25,3-3.85,2.42-2.51,16.47-23.66,18.87-28.4,3.45-6.82,4.51-18,2.34-24.85a73.8,73.8,0,0,1-2.24-9.82c-.64-4.54-2.84-10.26-4.42-11.51a34.72,34.72,0,0,1-3.11-5.25c-2.86-5.48-4.65-5.89-10-2.25M749,740.61c1.38.17,30.63.44,65,.6s57.78,0,52-.34c-10.36-.62-121.84-.86-117-.26m-74.69,1.14c6.49.17,16.84.17,23,0s.84-.32-11.81-.32-17.69.14-11.19.32M902.85,743l20.36.53L933.65,763c11.08,20.7,41.15,80.51,55.56,110.5,7.81,16.25,16.91,32.7,35.94,65,3.57,6,10,17.53,14.29,25.5,13.66,25.35,17.55,31.85,37.42,62.5,21.76,33.56,29,44.89,41.13,64.5,4.6,7.43,15.86,25.43,25,40,32.93,52.38,50.38,91.23,62.66,139.5,3.08,12.1,5.93,23.57,6.35,25.5.47,2.18.79,2.67.87,1.31.22-4.28-12.11-50.09-17.58-65.31-9.29-25.82-30.4-69.74-41.33-86-2-3-15.08-23.72-29-46s-30.31-48.15-36.43-57.5-12.84-19.7-14.91-23-6.67-10.5-10.21-16c-6.26-9.73-11.66-19.19-26.23-46-3.89-7.15-13.43-23.8-21.21-37s-18.86-33.67-24.63-45.5c-20.34-41.69-46.57-93.73-57.1-113.25L923.6,742l-20.55.22-20.55.22,20.35.53M601.5,747.54c-3.85.74-21.4,3.84-39,6.89l-32,5.54L508,768.88c-12.41,4.9-26.81,11.25-32,14.11-14.8,8.16-28.95,17.09-28.95,18.25,0,.59.79.4,1.75-.43,2.67-2.29,18.61-11.88,29.25-17.59,5.23-2.81,19.4-9,31.5-13.75l22-8.65,30.5-5.33,42-7.32c6.33-1.1,9.92-2,8-2a75.43,75.43,0,0,0-10.5,1.36m1277,37.6c-3.3.49-9.15,1.54-13,2.32s-10.26,1.94-14.25,2.57c-8.71,1.38-9,2.77-2.75,11.86C1852,807,1870.08,822,1872.69,822a57.13,57.13,0,0,1,6.93,4,53.79,53.79,0,0,0,7,4,44.08,44.08,0,0,1,6.28,3.4c3.1,1.87,12.38,5.72,20.63,8.56s15.9,5.59,17,6.09,6.28,2.06,11.5,3.44c8.46,2.23,11.48,2.5,27.61,2.51h18.11l8.39-4c4.61-2.16,9.86-5.26,11.65-6.88l3.25-2.95,2-21.29c2.35-25.11,2.44-28.92.74-28.95-.69,0-7.78-.69-15.75-1.5-39.66-4.05-102.94-5.82-119.5-3.34M579,827.93a184.58,184.58,0,0,0,18,7.86c4.67,1.66,10.67,4,13.33,5.12A28.85,28.85,0,0,0,620,843h4.87l.36,5.25.37,5.25.19-5.75L626,842h-5a30.51,30.51,0,0,1-10.75-2.4c-3.15-1.31-9.61-3.76-14.36-5.43a171.47,171.47,0,0,1-16.72-7.1c-4.46-2.24-8.44-4.05-8.87-4s3.51,2.23,8.73,4.88m293.81,28.76C866,864.77,852.67,880,843.1,890.44,803.49,933.83,768.2,976,752,999.34c-4.67,6.74-11.41,16-15,20.67a165.67,165.67,0,0,0-13.25,22c-6.56,13.1-6.77,13.75-6.62,20.53l.15,7,.65-7c1-10.59,10.1-29.22,21.21-43.29,2.91-3.69,8.9-12,13.31-18.35,16-23.28,52.29-66.74,90.54-108.48,9.14-10,22.49-25.12,29.67-33.67l13.06-15.55,14.47,17.67c25.63,31.29,53.26,67.46,57.54,75.32,4.06,7.45,19.66,30.78,52.71,78.85,34.17,49.69,67.87,101.3,80,122.5,2.83,5,7.63,13.28,10.67,18.5,14.39,24.8,37.65,70.6,43.65,86,1.61,4.13,4.4,12,6.2,17.5s5.19,15.19,7.54,21.53c4.91,13.3,8,26.46,12.87,54.5,1.9,11,3.49,18.79,3.52,17.36.1-3.68-6.48-40.31-9.49-52.89a243.48,243.48,0,0,0-7.39-23.5c-2.69-7.15-5.65-15.7-6.59-19-7.46-26.17-43.65-95.8-78-150-11.77-18.58-51.2-77.44-88-131.3-12.88-18.87-25.29-37.72-27.59-41.9-5.78-10.54-69.52-92-72.14-92.24-.39,0-6.23,6.55-13,14.63m-248.27,1.06A32.71,32.71,0,0,1,621,865a52.57,52.57,0,0,0-3.84,7.08c-1.29,3.43-10,16.93-12.37,19.27-1.86,1.8-2.16,1.72-12.17-3.25-9.77-4.86-10.62-5.09-17.69-4.93l-7.42.16,7.5.63c7.88.67,12.82,2.37,22.13,7.62l5.63,3.17,2.62-2.62c3.36-3.36,9-12,12.85-19.63A94,94,0,0,1,623,864c1.69-2.41,3.65-9,2.69-9-.26,0-.78,1.24-1.15,2.75M1576,861.54c-17,3.32-31.27,8.74-41.92,15.91a52.57,52.57,0,0,1-5.72,3.55,16.46,16.46,0,0,0-3.15,1.84c-1.49,1-4.74,3.15-7.21,4.75s-4.72,3.13-5,3.41-3.87,3.2-8,6.5-8.09,6.56-8.82,7.25a4.44,4.44,0,0,1-2.25,1.25c-1.44,0-1.11,1.43.83,3.56,1,1.07,3.81,4.73,6.32,8.14,9.7,13.16,26.74,26.38,37.82,29.33,3.63,1,9.61,2.72,13.29,3.89,6.44,2.05,8.21,2.11,48,1.84,48.13-.33,46.24,0,67.31-10.61a55,55,0,0,0,26.61-30.45c2.49-7.05,2.6-7.88,1.1-8.45-.92-.35-7.3-4.2-14.19-8.56a222.17,222.17,0,0,0-27.52-14.38c-29-12.52-40.23-16.34-55.5-18.9-5.22-.88-9.72-1.72-10-1.86s-5.68.76-12,2M875,971.12a78.45,78.45,0,0,0-12.5,9.81c-3.85,3.69-11.72,10.73-17.5,15.64-12.78,10.87-29.46,26.68-49.7,47.09-8.37,8.44-15.64,15.34-16.17,15.34s-2.54,2.16-4.48,4.79c-4.62,6.3-13,13.52-24.52,21.07l-9.35,6.14h-9.65c-9,0-9.85-.19-12.39-2.54-1.51-1.4-2.74-2.15-2.74-1.67s1,1.84,2.31,3c2.07,1.94,3.42,2.17,12.66,2.17h10.35l9.59-6.16c10.35-6.65,18.35-13.55,24.43-21.09,2.1-2.61,4.13-4.76,4.5-4.76S792,1048.66,806,1034.84s32.92-31.54,42-39.37,17.63-15.45,19-16.94c2.08-2.26,13.16-9.53,14.51-9.53.22,0,.56,3.49.75,7.75l.34,7.75.2-8.25c.15-6-.13-8.25-1-8.24-.69,0-3.72,1.4-6.75,3.11m8.19,27.65c-.31,10.18-3.53,14.72-26.76,37.73C835.78,1057,830,1063.93,830,1068.39c0,3.86,9.73,10.11,17,10.92,3,.34,6.63.87,8,1.17s1-.06-1-.89a25.09,25.09,0,0,0-7.58-1.51c-4.89-.1-14.74-6.39-15.22-9.73-.45-3.1,7.7-13.07,21.92-26.83,20.25-19.61,24.42-24.18,27.78-30.48,2.81-5.28,3.15-6.76,2.84-12.27l-.35-6.27-.2,6.27m-9.19,109v12.81l-10.25,7.55c-13.72,10.11-23,18.9-34.83,32.92-5.4,6.42-12.39,13.86-15.52,16.54S798,1193.3,786.11,1206.5s-27.79,30.48-35.37,38.41c-13,13.62-13.89,14.77-15.83,21.17-2.76,9.08-2.34,11.94,2.09,14.22,2.7,1.39,5.32,1.73,11.5,1.5,6.81-.26,9.16-.86,15.79-4,10.18-4.86,35.16-19.53,55.08-32.36,8.73-5.62,25-15.1,36.25-21.07s20-11,19.47-11.15-4.92,1.93-9.83,4.66-13,7-18,9.51-16.87,9.57-26.42,15.7c-23.16,14.89-43.64,27-55.55,32.71-8.56,4.14-10.7,4.76-17.28,5-6.18.25-8.1-.06-10.77-1.73-3.87-2.43-4-4.28-1.28-13.22,1.63-5.28,3-7.36,8.1-12.35,7-6.83,31.76-33.59,49.36-53.31,6.54-7.33,15.59-16.77,20.12-21a236,236,0,0,0,16.2-17.19,209.67,209.67,0,0,1,35.53-33.5l9.66-7,0-13.25c0-7.29-.19-13.25-.47-13.25s-.5,5.76-.5,12.81m-330.47-.56c-1.29,5.7-4.52,26.72-4.44,28.86,0,1.32,1.29-4.81,2.75-13.61l2.67-16,12-.31c14-.35,20.79.75,32.5,5.29a87.4,87.4,0,0,0,12.75,4c2.34.38,4.25,1.15,4.25,1.71,0,2.36-6.2,19.26-9.36,25.52-5.15,10.18-14.27,23.54-24.11,35.29-8.87,10.59-30.4,33-31.7,33-.39,0-.89-1.69-1.1-3.75-.32-3-.43-2.7-.56,1.61l-.17,5.35,7.76-7c9.7-8.75,14.23-13.61,26.9-28.84,11.2-13.48,17.69-23,23.69-34.76,4-7.8,10.76-26.53,10-27.76-.21-.34-2.52-.95-5.14-1.34a57.78,57.78,0,0,1-11.33-3.49c-10.51-4.46-19.34-6-33.86-6-12.7,0-13,.06-13.54,2.25M681,1167.4c-1.9,1.29-7.63,4.94-12.74,8.13-7.92,4.92-10.7,7.45-18.78,17-14.35,17-24.07,32.25-26.43,41.45-1,4.14-2.62,9.49-3.47,11.91s-1.33,4.62-1.06,4.89c1.19,1.18,17.57-7.42,24-12.6,17.72-14.3,36.2-35.44,38.46-44,1.86-7,5.08-22.63,5-24.17,0-.85-1.37,4.15-2.93,11.12s-3.51,13.94-4.32,15.5c-8.45,16.15-36.29,43-51.49,49.73-3.48,1.53-6.5,2.6-6.72,2.38s1-5.3,2.69-11.28c2.55-9,4.2-12.55,9.41-20.44,14.57-22,26.67-35,40.81-43.56,5.42-3.3,10.36-6.31,11-6.7s.88-.93.59-1.22-2.08.53-4,1.82m194.15,52.18a34.32,34.32,0,0,1-3.37,8.5c-1.18,1.88-5.09,8.45-8.69,14.59a155,155,0,0,1-12.84,18.5c-18.66,21.7-28.07,33.36-27.42,34,1.52,1.51,19,6.74,24.22,7.26s5.15.47-1.5-.91c-10.15-2.12-21.65-6.47-20.79-7.87,1-1.58,19.3-23.67,26.27-31.65a127.63,127.63,0,0,0,11.26-16c3.07-5.22,7-11.6,8.63-14.17,3.32-5.11,6.58-14,5.89-16-.24-.72-1,1-1.66,3.78M480.23,1281c-.1,4.4,4.45,32.33,4.66,28.61.06-1-.77-7.11-1.84-13.5s-2.13-13.41-2.33-15.61l-.38-4-.11,4.5m233.27,32.2c-12.79,13.39-16.75,19.23-20.47,30.16-1.52,4.48-4.35,12.19-6.28,17.14-3,7.8-4.18,11.54-7.41,24.25-.56,2.21-.43,2.25,8.85,2.25,6.95,0,11.06-.56,15.67-2.11,3.44-1.16,6-2.31,5.81-2.55s-3.18.48-6.52,1.61a44,44,0,0,1-14.62,2c-4.69,0-8.53-.24-8.53-.53a24.68,24.68,0,0,1,1.39-3.85,41,41,0,0,0,2.08-7.72c.38-2.42,2.52-8.9,4.75-14.4s5.13-13.15,6.44-17a63.47,63.47,0,0,1,5.87-12.24c3.43-5.17,23.42-26.65,24.13-25.93,1,1,9.91,35.24,9.29,35.67-.4.28-3.06,6.35-5.9,13.5-5.82,14.61-6.29,15.45-12.56,22.51-2.47,2.78-4.49,5.52-4.49,6.08s2.67-2,5.93-5.75c5.08-5.82,6.73-8.81,11.65-21.07,3.15-7.87,5.92-14.11,6.15-13.87a30.43,30.43,0,0,1,1.76,5.27c.73,2.65,1.37,4,1.42,2.9.11-2.39-11.77-45.76-12.84-46.87-.43-.45-5.64,4.28-11.57,10.5m123.5-3.86c-14.78,5.33-19.78,7.57-17,7.63.81,0,8-.89,16.07-2a164.81,164.81,0,0,1,24.31-1.75l9.71.29-7.5,8.9a258.15,258.15,0,0,1-18.28,18.87c-23.1,21.37-40.28,36.69-51.78,46.18-16.11,13.3-44.57,42-52.31,52.76a102.07,102.07,0,0,0-11.23,20.7c-4.42,10.67-4.94,12.72-4.81,18.78l.15,6.81.67-7.5c.84-9.27,7.26-25.46,13.88-35,10.48-15.08,31.57-36.36,58.15-58.67,32.27-27.1,74-67.73,74-72.08,0-1.76-18.68-1.62-31.5.24-17.47,2.53-17.57,2.14-.92-3.55,6.56-2.24,12.35-4.49,12.87-5,1.33-1.32,1.6-1.4-14.45,4.4m-351.85,4.16c0,1.1,1.2,9.65,2.78,19s2.89,15.88,2.92,14.5c.08-3.07-5.58-36.29-5.7-33.5m92,3.57c-2.25,3.06-3.41,6.34-4.66,13.1-.91,5-1.46,9.22-1.22,9.46s1.19-3.7,2.12-8.77c1.32-7.23,2.34-10,4.75-13.08,2.86-3.6,3.19-3.76,4.84-2.27,1,.88,6.37,2.92,12,4.54,9,2.59,11.66,2.93,21.86,2.78l11.62-.18L615,1322c-13.68-.72-25.65-3.53-31.57-7.41a12.89,12.89,0,0,0-2.81-1.54,22.25,22.25,0,0,0-3.44,4.07m1414.49,7.6c-1.3,1.29-.68,9.07.81,10.31a15.21,15.21,0,0,1,2.84,3.87c.75,1.46,3.35,6.47,5.77,11.15,4.3,8.28,4.41,8.72,4.25,17.26-.18,10.07-1.44,12.86-7.95,17.57-8.28,6-8.93,6.15-22,5.14-16.07-1.24-100.17-1.2-124.41.07a262.85,262.85,0,0,0-33,3.54c-7.43,1.39-18,3.21-23.5,4-19.89,3-32.41,6.32-40,10.6-1.1.62-4.7,2.58-8,4.36-5,2.7-6.86,4.51-11.25,11-5.8,8.65-6.69,11.61-6.56,21.88.15,11.59,1.64,19.62,4.56,24.54,3.3,5.55,8,11,9.59,11,.64,0,1.16.35,1.16.78,0,.93,5.33,7.37,9.47,11.44,2.6,2.55,8.33,6.56,19,13.3,1.65,1,5.25,3,8,4.24s11.56,5.68,19.58,9.75a292.93,292.93,0,0,0,27.5,12c7.11,2.54,14.41,5.29,16.22,6.12s5.64,2.31,8.5,3.3,10.11,4.22,16.12,7.18l10.92,5.37-3.92.56a22.39,22.39,0,0,0-6.14,1.76c-1.22.67-7.07,3-13,5.1-9.54,3.44-14.55,5.53-28.23,11.8-4,1.82-30.43,19.12-33.57,22-1.11,1-5.31,4-9.33,6.73-9.63,6.47-18.34,15.13-26.85,26.68-10.74,14.6-11,15.16-11.55,25.64-.43,7.88-.16,10.2,1.8,15.81,3.84,11,8.59,15.85,21,21.42,3.85,1.74,7.78,3.59,8.74,4.1,3.9,2.11,6.18,1.08,8.44-3.83a111.08,111.08,0,0,1,7.58-13.71c.42-.56,2.9-4,5.5-7.54s6.26-8.4,8.12-10.7c5.23-6.47,26.42-25.58,30.5-27.5,9.83-4.64,34.79-15.1,39.62-16.6,1.93-.61,11.82-2.69,22-4.65,16.84-3.22,21-3.63,46-4.51,15.13-.54,30.65-1.23,34.5-1.55s18.47-1,32.5-1.51c29.65-1.09,42.47-2.23,57-5,5.77-1.13,10.58-2.14,10.69-2.25.6-.6,3.41-29.07,3.15-31.79-.35-3.54.94-2.91-17.32-8.47-4.95-1.51-9.54-3.15-10.2-3.65s-1.33-2.78-1.5-5.07c-.38-5.26-.93-5.4-22.12-5.56-13.46-.1-17.34-.51-26-2.7-5.6-1.42-14.68-3.62-20.18-4.89-13.52-3.11-57-13.3-62-14.52-2.2-.54-9-2.13-15-3.54-21.3-4.94-24.06-5.72-30.32-8.58a47.83,47.83,0,0,0-7.26-2.89,7.67,7.67,0,0,1-2.68-1c-1-.52-6.46-2.35-12.24-4.06a146.61,146.61,0,0,1-16-5.68c-3-1.41-10.22-4.72-16-7.35s-14.93-7.29-20.33-10.37-10.25-5.59-10.75-5.59a1,1,0,0,1-.92-1c0-.55-.65-1-1.44-1-3.36,0-2.63-3.86,1.58-8.38a7.65,7.65,0,0,0,1.86-2.73c0-2,6.11-7.56,13.8-12.62l8.53-5.61,115.09-.43,115.08-.43,5.79-2.56a70.59,70.59,0,0,0,10.37-5.8c6.09-4.34,14.27-14.28,14.35-17.44a9,9,0,0,1,1.52-4.44c2.23-3,1.91-4-4-12.83-3.09-4.62-5.5-9.33-5.5-10.77,0-1.9-2.15-4.64-8.29-10.58-4.55-4.41-10.52-10.61-13.25-13.78-4.45-5.16-14.54-13.59-30.06-25.1a63,63,0,0,0-18.9-9.85c-5.48-1.82-6.83-2-7.83-1m-1364.73,5a49.66,49.66,0,0,1-3.35,7.49c-2.61,4.59-21.11,24.43-31.14,33.41l-7.53,6.74-3.34-3.24c-3.93-3.81-7.56-14.59-8.61-25.58l-.68-7-.14,5.74c-.15,5.66,2.84,18.85,5.38,23.76a25.4,25.4,0,0,0,4.32,5.38l3,2.88,8.81-8.08c11.73-10.76,28.59-28.89,30.75-33.06,2.24-4.33,4.7-11.31,4.17-11.84-.23-.23-1,1.3-1.67,3.4M491.17,1352a124.57,124.57,0,0,0,1.76,13c1,5.78,1.85,9.38,1.87,8a126.82,126.82,0,0,0-1.75-13c-1-5.78-1.84-9.37-1.88-8m684.05,23.5c-.13,11-.44,22.47-.7,25.5l-.45,5.5,1-5.45c.55-3,.86-14.47.7-25.5l-.29-20-.24,20m45.22,15.5c0,14.57.14,20.54.31,13.25s.17-19.21,0-26.5-.31-1.32-.31,13.25M495.1,1377.5c-.21,7.41,11.69,69.64,12.72,66.54.19-.56-1.26-7.88-3.2-16.27s-4.71-23.14-6.14-32.77c-2.62-17.72-3.28-21.12-3.38-17.5m678,31.67c-.32,6.22-4.63,22-8.39,30.66l-4,9.34-8.63-8.59-8.62-8.58h-185l.23,8.75c.13,4.81,1,54.65,1.85,110.75s2.14,131,2.77,166.5l1.15,64.5H1191l-.27,20-.27,20-112.5.25-112.5.26.5,161.9.5,161.91,2.76,2.17c3.12,2.45,16.61,18.72,24.91,30.05,9.1,12.41,22.88,33.44,33.15,50.59,8.62,14.4,9.81,17,11.08,24,.78,4.33,1.45,6.52,1.5,4.87.18-7.72-2.69-14.57-14.18-33.73-17.8-29.7-37.47-57.31-50.59-71l-6.46-6.75H1084v5.46c0,6.62,2.9,14.77,8.14,22.88,2.12,3.28,3.86,6.32,3.86,6.74,0,1.52,13.8,9.9,21.07,12.8,4.09,1.62,11.71,4.09,16.93,5.47,9.51,2.52,27.63,5.36,28.52,4.47.26-.26-3.92-1-9.28-1.71-11.7-1.48-29-6.09-37.71-10-7-3.15-18.53-10.67-18.53-12,0-.47-1.64-3.27-3.64-6.21-5.21-7.66-8.36-16.19-8.36-22.66v-5.44l8.75.61c4.81.33,10.55.81,12.75,1.06,3.94.45,4,.44.5-.35-2-.46,13.85-.86,36.75-.94,45.19-.15,42.42.4,38.19-7.5-1.13-2.12-1.87-4-1.63-4.27,2-2,30.51-18.56,39.19-22.75,10-4.81,22.26-8.61,27.89-8.61,2.61,0,26.37,23.7,32.42,32.34a53.33,53.33,0,0,1,5.81,11c.94,2.84,1.88,4.66,2.08,4,.66-2-3.6-11.34-7.6-16.69-2.14-2.86-9.79-11.22-17-18.58L1250,2102.75l-4.75.57c-14.32,1.74-26.41,7-51.13,22.11-12.12,7.42-14.53,8.57-15.28,7.24-1.34-2.4-7.73-10.67-11.71-15.17-5.53-6.25-23.1-23.17-28.1-27.07-16.93-13.19-23-17.64-35-25.5-7.43-4.88-14.39-9.49-15.47-10.26-1.9-1.34-2-3.56-3.13-62.28-.64-33.49-1-61.23-.72-61.64s27.59-.75,60.78-.75h60.35l.41,17.75c.37,16,.66,18.41,2.94,24.42,3.52,9.26,11.33,21.47,17.16,26.83,2.7,2.47,8.35,7.88,12.56,12,7.3,7.14,25.08,20.49,35.68,26.78,26.92,16,36,21,44.75,24.9,5.61,2.48,14.78,7,20.38,10,9.31,5,10.27,5.3,11.15,3.66.52-1,3.52-8.1,6.66-15.8,6.07-14.88,15.85-33.74,28.52-55,4.26-7.15,9.11-15.7,10.77-19,5.91-11.76,57-83,68.89-96,7.11-7.8,15.29-20.89,29.2-46.73,12.85-23.87,17.63-41.68,22.65-84.46.92-7.82,1.48-14.76,1.26-15.43s-1,3.92-1.66,10.21c-5,45.31-10.13,64.93-23.4,89.42-15.55,28.7-22,39.1-28.73,46-10.83,11.19-61.11,81.47-69.39,97-2.35,4.4-7,12.5-10.27,18-12.25,20.38-23.14,41.44-29.35,56.73L1349.6,2077l-4-2.36a190,190,0,0,0-24.74-12.51,220.36,220.36,0,0,1-22-11.41c-6.77-4-15.51-9.13-19.42-11.34-11.82-6.69-30.24-20.32-39.84-29.48-5-4.76-10.44-9.8-12.13-11.2-6.41-5.31-16.26-22.1-18.89-32.21-1.55-5.94-2.28-36.45-.87-36.45a17.11,17.11,0,0,1,3.93,2.5,18.21,18.21,0,0,0,3.85,2.5,91.29,91.29,0,0,1,8.82,5.34c9,5.82,17.56,11.33,51.74,33.16,12.38,7.9,23,14.85,23.71,15.43,2.32,2,2.11,2.24,21.82-19.3.57-.62,4.14-4.73,7.94-9.13s7.16-8.11,7.47-8.25.42-17.31.25-38.17l-.3-37.92,3.2-6.33c5.52-10.93,12.49-28.11,13.73-33.83.66-3,2.13-9.69,3.28-14.82s1.9-9.52,1.65-9.76-1.23,3-2.2,7.32-2.58,11.39-3.59,15.83c-1.86,8.15-15.24,40.2-15.63,37.43-.44-3.11-1-141.43-.56-140,.25.82,2.87,5.55,5.82,10.5a103.94,103.94,0,0,1,12.85,33.35c.76,4.21,1.42,6.26,1.47,4.56.22-7.46-7.35-29.82-12.77-37.72a101.28,101.28,0,0,1-5.56-9.51l-2.69-5.32-.19-68.45-.2-68.45-4.5.64c-10,1.43-36.53,13-47.15,20.51a15.23,15.23,0,0,1-3.11,1.89c-.85,0-13.32,8.54-23.26,15.92a348.38,348.38,0,0,0-37.46,32.51l-8.48,8.57H1105.88l12.81-10.83c11.83-10,30.48-24.17,59.31-45.05,19.22-13.92,34.84-22.79,63.5-36.08,3.3-1.53,7.8-3.35,10-4.06s8-3,13-5.17a166.28,166.28,0,0,1,20.6-6.83c11.35-2.87,17.4-4.8,15.4-4.91-2.39-.13-30.37,7.82-34,9.66-2.2,1.11-8.28,3.63-13.5,5.59-13.77,5.16-37.24,16.21-45,21.18-3.69,2.37-10,6.17-14.06,8.46s-13.22,8.5-20.39,13.79c-38.33,28.28-45.09,33.44-56.78,43.4L1104,1671h-20l0-33.75,0-33.75,8-5.46c9.37-6.38,18.65-16.34,28.91-31,6.2-8.89,14-22.49,14-24.39,0-.59,15.68-35,22.15-48.61,3.71-7.8,4.78-9.11,13-15.87,4.92-4.05,8.82-7.7,8.65-8.12s-4.19-4.9-9-10l-8.67-9.22,1.53-3.67c.84-2,2.59-5.76,3.89-8.32,2.71-5.36,7.76-26.72,7.12-30.08-.39-2-.45-2-.57.41M508.61,1452c.28,3.57,1.13,10.55,1.89,15.5,1.15,7.46,1.3,7.89.89,2.5-.28-3.57-1.13-10.55-1.89-15.5-1.15-7.46-1.3-7.89-.89-2.5m3.9,30.32c.85,9.44,6.4,35.39,9.09,42.55a137.37,137.37,0,0,1,4.45,15.37c3.45,15.46,11.6,35.38,27.94,68.26,16,32.29,22.49,43.33,35.23,60.29,3.84,5.11,9.47,13.44,12.5,18.5,7.34,12.23,21.19,32.06,34.2,49,5.82,7.56,12.61,16.61,15.08,20.13s13,15.27,23.5,26.11c28.4,29.48,61.7,56.2,95,76.21,25.23,15.17,41.1,23.13,60,30.12,28.68,10.61,38.5,14,38.5,13.32,0-.35-3.71-1.9-8.25-3.46-38.45-13.2-51.59-19-80.09-35.36-36.44-20.91-75.69-51.34-100.24-77.7-7.75-8.31-16.07-16.89-18.5-19.07a76.22,76.22,0,0,1-9.42-11.28c-2.75-4-9.75-13.49-15.56-21-13-16.89-26.44-36.18-35.35-50.72-3.71-6-9.84-15-13.63-20-9.69-12.67-17.11-25.48-32.52-56.24-13.79-27.51-24-52.56-27-66.13-.92-4.19-3-11.44-4.61-16.1-3.18-9.15-4.67-15.44-8.41-35.53-1.34-7.15-2.19-10.38-1.9-7.18M725,1488.11c0,.89,1.34,4.94,3,9,3.53,8.53,8.94,28.77,8.94,33.46,0,5.72,9.75,30.43,12,30.43,1.61,0,6.08,7.92,8.53,15.13,2.33,6.84,8,15.15,19.62,28.56,6.23,7.22,21.22,19.72,24.84,20.72,2.3.63,2.34.59.5-.52-6.49-3.9-20.27-16.06-26.23-23.15-11.58-13.78-16-20.39-18.33-27.49-2.4-7.29-4.93-11.6-8.65-14.75-2.78-2.35-11.28-24.35-11.29-29.19s-5.34-24.7-9.35-34.81c-2-5-3.59-8.27-3.61-7.39m430.81,2.6c-.3.72-6.77,6.23-19.69,16.78-6.83,5.57-40.63,33.82-45.91,38.37l-5.25,4.52v25.31c0,13.92.2,25.31.46,25.31.57,0,10.29-6.82,13.58-9.52,4.54-3.74,14.51-15.89,22.27-27.15a165.56,165.56,0,0,0,14.56-26.5c3.78-8.43,10.09-22.48,14-31.22s7-16.08,6.73-16.31-.58,0-.78.41m-550.35,3.61c-1.65.6-3.13,1.17-3.28,1.25-.43.24,14.41,33.73,19,42.86,7.61,15.18,38.65,68.87,47.09,81.47,14.48,21.59,41.17,53.33,52.28,62.16,2,1.6,6.52,5.85,10,9.43,8.75,9,36.37,26.7,55.4,35.57,5.22,2.43,11.53,5.66,14,7.17a35.28,35.28,0,0,0,10,3.77,115.69,115.69,0,0,1,14.78,4.52c5.11,1.91,10.52,3.43,12,3.37,2.43-.11,2.35-.2-.77-.89-1.92-.42-8-2.38-13.5-4.36S811.37,1737,810,1737s-4.53-1.17-7-2.57-9.93-5.18-16.59-8.4c-11.27-5.46-24.28-13-40.67-23.74-7.48-4.87-17.34-13.94-37.15-34.15-14.37-14.65-35.48-41.92-45.43-58.66-30.6-51.48-40.93-70.12-48.24-87-3.1-7.15-6.82-15.64-8.27-18.87A47.68,47.68,0,0,1,604,1497c0-1.45,6.28-3,11.9-2.88l5.6.09,9.5,10.56C647.42,1523,660.9,1539,670.8,1552c5.26,6.9,14.58,17.72,20.7,24s13,13.71,15.34,16.42c4.14,4.84,16.8,14.28,30.85,23,6.78,4.21,26.91,11.21,29.63,10.31.57-.19-3.66-1.6-9.39-3.13s-12.46-3.93-14.93-5.34c-11.16-6.37-31.79-21.44-35.49-25.92-2.2-2.66-9-10-15.1-16.34s-15.93-17.74-21.83-25.37c-11.41-14.73-25.19-30.91-39.93-46.88l-9-9.75-6.57.11a38.53,38.53,0,0,0-9.58,1.21m702.5,16.24c-15,2.41-61.64,14.73-83,21.91-7.4,2.49-13.56,4.53-13.69,4.53a12.69,12.69,0,0,1-.63-3.25c-.35-2.84-.42-2.71-.56,1l-.16,4.22,14.25-4.9c19.29-6.64,67-19.58,83.25-22.55,2.2-.41,9.85-1.06,17-1.46l13-.72-10.5-.06a141.53,141.53,0,0,0-19,1.31m49.5,1.12c1.65.25,9.73,1.54,18,2.88s16.11,2.4,17.5,2.35c3.58-.13-25.19-4.81-32.46-5.28-3.3-.22-4.65-.19-3,0m51,9.71c23.9,7.88,36.69,14.5,63.43,32.79,19.71,13.48,33.19,25.86,45.37,41.67,4,5.14,10,13,13.53,17.5,20.36,26.24,38.05,77.67,40.13,116.65l.72,13.5.16-9.88c.24-15-3.15-33.62-11.34-62.12-5.37-18.72-18.39-45.7-28-58-3.43-4.4-9.1-11.82-12.6-16.5a248.67,248.67,0,0,0-16.81-19.26c-8.62-8.88-13.84-13.07-30-24.11-28.27-19.28-43.93-27.33-66.24-34-13.74-4.13-12.62-2.91,1.65,1.79m-80.77,34.22c-.34.33-5.92,1-12.42,1.42l-11.81.82,11.5-.32c6.32-.18,12.63-.79,14-1.36s1.85-1.07.92-1.11a3.49,3.49,0,0,0-2.19.55M1385,1562c11.78,1.86,14.93,2.8,32.85,9.85,13.21,5.19,23.3,11.13,37.4,22,6.19,4.78,13.13,10,15.43,11.66a20.88,20.88,0,0,1,5.83,6.43,50.2,50.2,0,0,0,5.38,8c8,9.72,13.07,18,16.4,26.64,1.91,4.94,5,11.89,6.75,15.45,3,6,10.72,33.09,11,39,.1,1.8.27,2,.61.7,1-3.81-6.82-31.85-12.14-43.62-2.88-6.37-6.23-14-7.44-17.08s-4.88-9.1-8.15-13.5-7.92-10.93-10.31-14.5a43.73,43.73,0,0,0-9.26-10c-2.7-1.9-9-6.62-13.9-10.51-11-8.6-15.08-11.3-24.3-15.94-18.4-9.26-43.32-16.78-54.7-16.49-1.65,0,2.18.9,8.5,1.9m-48,55.57c0,2.58,6.63,25.67,11,38.34,5.36,15.63,13.76,31.89,22.49,43.58,2.88,3.85,11,13.53,18,21.5s15,17.73,17.63,21.68,5.33,7.47,5.9,7.82c3.15,2,6.23,11.35,8.46,25.84,1.29,8.34,2.38,14,2.43,12.66.19-5.33-4-28.41-5.93-32.84a33.34,33.34,0,0,0-4.87-7.66,91.65,91.65,0,0,1-6.87-9c-2.23-3.3-9.6-12.3-16.39-20-18.42-20.9-23.67-28.28-32.36-45.5-4.19-8.3-10.7-26.83-14.93-42.5-3.53-13-4.55-16.19-4.53-13.92m434,89.48c-2.47.44-6.75,1.12-9.5,1.51a46.58,46.58,0,0,0-10,2.9,63.61,63.61,0,0,1-7.64,2.85c-4.27,1.07-14.26,7.11-21.56,13-9.63,7.82-26.07,25.7-30.85,33.54-2.22,3.66-6.38,10.22-9.25,14.58s-5.2,8.51-5.2,9.22c0,1.87,2.66,1.65,21-1.73,9-1.67,21.41-3.92,27.46-5,19.69-3.51,99-8,141.5-8,11,0,29.75.88,43,2l47,4c12.93,1.11,28.9,2.46,35.5,3s16.72,1.41,22.5,2,16.35,1.42,23.5,2c15.6,1.18,45.81,3.67,61,5,38.88,3.48,68.62,5.35,86,5.41,21.41.06,28.6-.94,49.95-7,5-1.41,12.43-3.4,16.55-4.42s10.43-2.58,14-3.48a117.43,117.43,0,0,1,16.5-2.32l10-.68.31-3.77c.23-2.82,1-4.17,3-5.41,1.48-.9,4.38-2.75,6.44-4.12l3.75-2.47v-10c0-9.91,0-10-3.25-13.2l-3.25-3.24-14.5-.68c-8-.38-26.43-1.35-41-2.16l-63.5-3.48-64-3.5c-35.48-2-147.52-8-183-10L1851,1709c-54.7-3-71.65-3.44-80-2m-200.85,42.13c-.26,6.41-4,29.85-6.64,41.8a233.28,233.28,0,0,1-16.67,49.45c-12.15,26.23-19.12,38.55-41.23,72.83l-22.9,35.5c-35.45,55-44.13,70.51-54.17,96.73-3.16,8.25-7.26,18.91-9.12,23.68-3.33,8.54-7.89,26.91-7.2,29,.2.59,1.18-3.15,2.2-8.3a145.65,145.65,0,0,1,6.12-20.36c2.35-6.05,6.52-16.85,9.26-24,10.89-28.43,18.76-42,68.83-119.15,25.36-39,32.11-50.56,44.48-75.85,10.88-22.26,11.7-24.23,16.31-39.54,5.51-18.28,12.3-55.86,11.31-62.55-.38-2.58-.45-2.49-.58.78M875.5,1751c5.55,1.4,24.72,10.34,30.64,14.29a50.17,50.17,0,0,1,9.23,8.08c6.69,8.28,13.82,21.08,15.68,28.17,1,3.85,1.86,6,1.9,4.84.18-7.4-11.13-28.7-19.64-37a57.51,57.51,0,0,0-9.74-7.23c-8.83-5-25.81-12.14-28.54-12-2.36.1-2.33.16.47.86m-357,43.56c-3.85,1.3-10.53,3.39-14.85,4.64s-7.38,2.43-6.8,2.62,7.61-1.72,15.61-4.25l14.56-4.61,23.53,6.2c12.94,3.41,23.18,6.5,22.74,6.87-4,3.44-32.43,22.24-42.29,28-6.87,4-20.6,12.82-30.5,19.54-17.47,11.86-33.58,22.06-61.5,38.94-57.25,34.61-100.7,63.15-120.57,79.2-8.76,7.08-22.4,17.57-30.31,23.31-16.06,11.66-16.82,12.33-26.54,23.53-27.19,31.32-70.58,91.2-94.53,130.47-20,32.76-19.38,31.53-19.65,40.43l-.24,8.07.71-7.5c.52-5.58,1.48-8.91,3.75-13,12-21.75,52.74-83.86,66.84-102,4.49-5.77,11-14.32,14.55-19,8.94-11.88,21-26.79,31-38.33,6.66-7.69,11.54-12,22.5-19.93,7.7-5.56,22.55-16.92,33-25.25,24-19.09,52.3-37.56,138-90,10.79-6.6,27.79-17.5,37.79-24.22s26.15-17.08,35.9-23c20.1-12.22,43.64-28.27,43.72-29.81,0-.89-45.93-13.6-48.48-13.39-.53,0-4.12,1.14-8,2.44m904.68,1.48c-.21,5.3-4.09,21.5-7,29.14-2.74,7.21-18.06,37.32-21.83,42.89-1.66,2.46-5.14,8.29-7.73,13a162.1,162.1,0,0,1-10.93,16.62c-3.41,4.47-7.87,10.77-9.89,14s-9.07,12.63-15.66,20.88-11.74,15.22-11.45,15.5,1.48-.79,2.66-2.36,6.68-8.57,12.24-15.55,12.05-15.82,14.42-19.64,6.66-9.89,9.51-13.48a147.23,147.23,0,0,0,10.5-16c2.91-5.21,6.56-11.34,8.11-13.62,3.56-5.26,18.25-34.19,20.8-41,3.5-9.31,7.2-25.91,6.79-30.49l-.39-4.39-.17,4.5M482,1803.58c-4.12.78-12.79,2.29-19.25,3.37-16.71,2.8-53.64,14.16-67.75,20.86-6.33,3-17.67,8.27-25.2,11.71s-18.89,9.23-25.22,12.87-11.67,6.61-11.87,6.61c-2.09,0-23.3,12.89-34.71,21.1-8,5.74-23.05,16.17-33.5,23.18-19.43,13-43.88,33.11-72.58,59.61-7.38,6.82-18.6,16.79-24.92,22.17s-16.3,14.2-22.16,19.61-17.18,15.81-25.14,23.12c-17.08,15.67-24.83,24.5-46.3,52.71-29.52,38.78-32.55,43.14-43,61.88C21,2159.39,17,2169.66,8,2201c-2.3,8-5,17.18-6.1,20.44a39.93,39.93,0,0,0-1.77,12l.14,6.06.73-7c1-9.82,15.9-59.43,21.43-71.51,9.69-21.13,18.9-36.13,36.52-59.49,28.28-37.48,37.42-48.82,48-59.55,12.92-13,45.58-43.12,60-55.22,5.23-4.39,16.7-14.59,25.5-22.69,31-28.49,53-46.58,72.9-60,10.51-7,25.75-17.58,33.89-23.4a302.79,302.79,0,0,1,28.5-17.83c7.54-4,17.45-9.4,22-12s11.55-6.21,15.5-7.93,15.06-6.87,24.68-11.42c13.67-6.48,22.32-9.75,39.5-15,12.1-3.67,27.17-7.54,33.5-8.6,23-3.88,32.44-5.7,29.5-5.72a82.68,82.68,0,0,0-10.5,1.39m451.5,32.64c0,15,.29,24.81.65,21.78.85-7.14.85-43.82,0-46.78-.36-1.26-.65,10-.65,25m845-12.06c-26.08,3.28-36.91,6-45.62,11.31-4.06,2.49-9.18,5.4-11.38,6.46a39.69,39.69,0,0,0-7.67,5.26c-3.77,3.4-15.82,20.34-15.84,22.25a11.91,11.91,0,0,1-1.32,3.59,108.59,108.59,0,0,0-4.14,12.45c-2.55,9-2.75,10.84-2.17,20a112.41,112.41,0,0,0,2.52,17.21c2.27,8.68,6.94,21.3,8.64,23.35a43.69,43.69,0,0,1,3.5,6c2.36,4.74,9.26,15.13,12.23,18.43a6.68,6.68,0,0,1,1.75,3.26,1.19,1.19,0,0,0,1,1.31,1,1,0,0,1,1,1.07c0,4.92,40.2,43.63,59,56.81,15.52,10.89,23,14.8,52.5,27.34,3.85,1.64,8.85,3.81,11.12,4.82,6.33,2.84,20.65,4.95,33.49,5,11.11,0,11.86-.13,17.5-3.15,19.22-10.29,25-13.66,37.45-21.93,23.79-15.78,37.53-27,52.53-43l6.09-6.47.67-22c.78-25.15,0-31.76-5.83-49.79-7.2-22.25-23-45.34-39.72-57.94-4-3-8.47-6.6-9.91-7.94a23.08,23.08,0,0,0-6-3.81,137.42,137.42,0,0,1-18.39-9.13c-3.7-2.36-7.84-3.8-30.09-10.41a209.3,209.3,0,0,0-21-4.48c-7.1-1.13-16.28-2.71-20.41-3.5-16.13-3.08-46.41-4.22-61.5-2.31m-3,47.52c-2.57,3.47-14.8,18.67-15.55,19.32-1.6,1.39-8.94,11.82-8.94,12.69,0,.56-1.32,2.83-2.93,5a37.07,37.07,0,0,0-4.5,9.34c-3,10-1.42,29.44,2.83,35.92,1.26,1.93,3.87,6,5.79,9l8.66,13.61c3.41,5.36,7,9.45,10.41,12,2.88,2.17,9.06,6.84,13.74,10.4,17.43,13.27,25,17.29,41.5,22,20.74,5.88,44,8.22,56.5,5.69,28.93-5.87,37.82-9,45.78-16.11,13-11.57,15.65-14.86,17.94-22.09a79.64,79.64,0,0,0,2.86-13.53c.63-6.28.48-6.88-3.57-15a103,103,0,0,0-6.62-11.64,16.43,16.43,0,0,1-2.39-3.83,4.89,4.89,0,0,0-1.25-2c-.69-.77-6-7.7-11.75-15.4s-10.84-14-11.25-14-2.42-1.87-4.46-4.13c-3.58-4-22.5-19.78-32.1-26.85-4.31-3.16-5.38-3.48-13.23-3.86-7.37-.36-9-.13-12,1.68-3.38,2.06-6.73,6.07-11,13.18a23.2,23.2,0,0,1-6.78,6.36c-4.35,2.63-5.2,2.78-13.17,2.37-6.66-.35-9.41-1-12.53-2.83-5.07-3-5.61-3.71-10.69-13.72-4.53-8.93-7-12.23-9.35-12.23-.8,0-1.46-.38-1.46-.84,0-1.06-4.53-3.16-6.81-3.16-.94,0-2.61,1.21-3.7,2.68M868.4,1920c0,8,.15,11.24.34,7.25s.19-10.51,0-14.5-.34-.72-.34,7.25m1,35c0,8,.15,11.24.34,7.25s.19-10.51,0-14.5-.34-.72-.34,7.25m1,34.5c0,7.7.15,10.72.34,6.71s.19-10.31,0-14-.35-.41-.34,7.29m297.95,13.78c-4.33,4-11.91,10.66-16.86,14.87s-11,9.84-13.57,12.5c-5.33,5.65-15.38,19.22-14.72,19.89.25.25,3.71-4,7.68-9.51,5.66-7.82,9.95-12.26,19.92-20.65,7-5.88,15.49-13.4,18.9-16.71l6.21-6,12.79,12c23.82,22.32,74.82,65.64,90.8,77.12,5.5,3.95,14.5,10.63,20,14.83,13.08,10,22.82,16.49,29,19.34a60.06,60.06,0,0,1,7.65,4.19c2.49,1.76,5,1.88,38.75,1.88H1411l-.2-7.25-.19-7.25-.35,6.75-.35,6.75H1374.7c-33.61,0-35.34-.09-38.2-2-1.65-1.1-6.15-3.55-10-5.45-6.14-3-18.78-12-54.41-38.86-13.18-9.92-65.86-55.22-82.23-70.7l-13.65-12.9-7.86,7.22M871.4,2024.5c0,7.7.15,10.72.34,6.71s.19-10.31,0-14-.35-.41-.34,7.29m1,34c0,7.7.15,10.72.34,6.71s.19-10.31,0-14-.35-.41-.34,7.29m250.87,8.5c1,3,10.73,18.47,10.7,17,0-.82-2.53-5.32-5.61-10s-5.36-7.82-5.09-7M873.4,2092.5c0,7.7.15,10.72.34,6.71s.19-10.31,0-14-.35-.41-.34,7.29m1,34c0,7.7.15,10.72.34,6.71s.19-10.31,0-14-.35-.41-.34,7.29m1,33.5c0,8,.15,11.24.34,7.25s.19-10.51,0-14.5-.34-.73-.34,7.25m66.25-6.87c-.36,3.39-.58,11.61-.49,18.27.15,11.44.2,11.12.88-5.9.4-9.9.62-18.12.49-18.27s-.53,2.5-.88,5.9m176.35-2.71c0,.58,31.65,8.08,42.5,10.07,5,.9,12.31,2.29,16.36,3.08a67.29,67.29,0,0,0,9.5,1.34c1.18-.06-6.86-1.81-17.86-3.91s-26.51-5.43-34.47-7.41c-14.69-3.65-16-3.91-16-3.17m170.14,3.58a33,33,0,0,0,1,6c.58,2.48,1.44,8.32,1.91,13l.87,8.5-.43-9c-.37-7.73-3.08-22.81-3.32-18.5m-64.64,7.13c-1.65.53-5.7,1.62-9,2.42l-6,1.45,5.2-.53a48.87,48.87,0,0,0,9.5-2.06l4.3-1.53,3.85,4.3c6.67,7.46,7.15,9,7.15,22.46v12.15l-7.22,14.35c-7.91,15.74-16.36,26.9-28.39,37.52a117.93,117.93,0,0,0-9.23,9c-3.9,4.63-14.86,10.78-26.16,14.66l-10,3.44-5-1.73c-7.57-2.61-29-13.57-38-19.46-14.31-9.35-31.78-23.83-32.74-27.15-.3-1-1.3-3.64-2.23-5.79l-1.68-3.9,4.83,3.46c11.37,8.14,27.14,15,34,14.78,1,0-1.65-1-5.94-2.08-8.16-2.11-18-7.11-28.38-14.49a71.5,71.5,0,0,0-6.6-4.37c-.24,0,.7,2.35,2.07,5.23A59.11,59.11,0,0,1,1081,2231c.83,3.14,16.9,16.78,30.55,25.91,11.41,7.63,30,17.41,39.33,20.68l6.33,2.22,8.17-2.48c13-3.95,21.57-9.13,33.91-20.57,17.25-16,25.76-26.81,33.57-42.74l6.61-13.5.41-10.3c.5-12.76-.67-17.22-6.44-24.57-4.62-5.88-5-6.06-9.89-4.5m-987.64,15.66c-6.4,4.82-15,11.78-19.13,15.47-6.37,5.71-8.84,7.19-16.37,9.84-15.94,5.61-25.51,11.18-32.9,19.17-3.63,3.92-7.09,8-7.69,9.17s2.62-1.89,7.16-6.68c9-9.55,15-13.34,30.57-19.35,4.95-1.91,10-3.87,11.13-4.37s5.67-4,10-7.79,12.82-10.62,18.87-15.15c9.77-7.33,11.11-8,12-6.48,1.68,3,13.5,15.38,13.5,14.17,0-.62-2.92-4.16-6.5-7.86s-6.5-7.23-6.5-7.83c0-2.35-2.92-.76-14.14,7.69M876.4,2193.5c0,7.7.15,10.72.34,6.71s.19-10.31,0-14-.35-.41-.34,7.29m412.23,9.64c-2.54,16.13-5.67,24.66-13.44,36.65-5.77,8.91-7.67,11-14,15.39-11.28,7.8-20,12.29-37.06,19-8.57,3.37-22.33,9.16-30.58,12.87a254.29,254.29,0,0,1-24,9.42c-15.45,4.62-48.6,15.62-57.69,19.14-9.83,3.81-20.86,10.64-37.74,23.37-6.37,4.79-14.72,10.89-18.57,13.54-13.39,9.23-25,17.76-30,22-6.13,5.2-21.85,15.41-34,22.06l-9,4.94-15,.55-15,.55,14.8.2,14.79.2,7.71-4.14c12.78-6.88,28.18-16.86,37.7-24.45,5-3.95,16.88-12.7,26.5-19.45s21.1-15.05,25.5-18.46c11.63-9,23-15.93,31.5-19.3,8-3.17,52.72-18,62.27-20.73a191.75,191.75,0,0,0,19-7.61c7.28-3.29,21.06-9.13,30.62-13,21.42-8.61,23.07-9.43,36.11-18,10.14-6.68,10.72-7.27,17-17.08,3.57-5.59,7.46-12.67,8.64-15.72,2.2-5.73,6.87-30,6.18-32.11-.22-.65-1.2,3.94-2.19,10.19m-1024.45-1.5c-.12,3.54-3.44,14.67-10.68,35.88-5.77,16.92-10.47,31.48-10.43,32.37s.67-.19,1.4-2.39,5.68-16.77,11-32.39c8.24-24.26,9.59-29.13,9.28-33.5l-.36-5.11-.19,5.14M877.4,2226.5c0,7.7.15,10.72.34,6.71s.19-10.31,0-14-.35-.41-.34,7.29m336-9.12c-13.15,9.34-32.91,18.77-44.94,21.45-5.91,1.32-36.62,2-44.5,1-4.81-.62-5.06-.58-2,.36,5.18,1.6,40.72,1.14,47.8-.61,5.71-1.41,21.64-7.63,28.2-11,3.92-2,23-14.6,23-15.16,0-1-2,.09-7.56,4m-862.94,10a145.63,145.63,0,0,0-16.47,7.14c-12.68,6.76-25.24,21.13-24.93,28.55.09,2.15.19,2.09.83-.57,1.88-7.7,9.42-16.93,19.31-23.66,6.92-4.7,12.08-7,25.26-11.44,5.5-1.83,8.88-3.3,7.5-3.26s-6.55,1.5-11.5,3.24M119,2247.69l-1.28,5.75,3.33,2.78c1.84,1.53,4.25,2.76,5.37,2.74,1.62,0,1.43-.33-1-1.45-6.36-3-6.86-3.84-5.51-9.48l1.22-5.08,14.15.27,14.14.28-.18,4.17a20.82,20.82,0,0,1-1.78,7.25c-1.32,2.55-2.23,3.1-5.32,3.22-2.51.09-3,.28-1.37.58,4.82.91,6.9-.46,8.64-5.69a23.69,23.69,0,0,0,1.33-7.75l-.32-2.78-15.09-.27-15.08-.28-1.29,5.74M878.39,2260c0,7.43.16,10.46.35,6.75s.19-9.79,0-13.5-.35-.68-.35,6.75M63.33,2253c-12.61,6.54-21.45,16.56-21.21,24.05.08,2.28.15,2.23.82-.5,2.22-9.1,9.49-16.76,21.37-22.56,3.69-1.79,6.86-3.08,7.06-2.85s1.59,6,3.09,12.91c8.15,37.37,14.83,60,17.72,60,.5,0-.25-2-1.67-4.39-2.64-4.5-7.68-22.91-14-51.11-4.21-18.76-4.42-19.54-5.32-19.38-.37.06-3.9,1.79-7.85,3.83M366,2254.38v5.38l-9.25,8.2c-11.84,10.49-24.15,17-32,17-3.19,0-6.19-.62-7.53-1.57-2.66-1.86-6.28-8.55-7.27-13.43l-.71-3.5-.09,3.5c-.12,4.4,4.48,13,7.86,14.71,1.38.69,5,1.27,8.14,1.28,8.35,0,19.5-5.81,32-16.74l9.82-8.57v-5.84c0-3.21-.23-5.84-.5-5.84s-.5,2.42-.5,5.38M.18,2280.07c-.12,6.7.33,12.2,1.21,15,.76,2.44,1.88,6.26,2.48,8.5.93,3.45,8,13.88,12.35,18.21A97.88,97.88,0,0,0,39.51,2339c5.49,2.88,12.91,7,16.49,9.05a102.3,102.3,0,0,0,13,6.24c3.6,1.34,11,4.71,16.5,7.49,7.64,3.88,12.08,5.43,19,6.63,5,.85,18.47,3.77,30,6.48,22.72,5.33,90.49,17.44,93.88,16.77,1.76-.34,1.69-.43-.42-.55-7.07-.4-74.33-12.79-93-17.14-11.82-2.75-25.32-5.67-30-6.49-6.38-1.12-11.86-3.08-22-7.88-7.43-3.52-15.07-7-17-7.69a62,62,0,0,1-8.54-4.36c-2.77-1.69-9.45-5.32-14.85-8.07a101.49,101.49,0,0,1-35.53-30.81c-2.84-4-5.33-15.27-6-27.19l-.7-12-.17,10.57m242.27-4.32c-1.31,7.74-5.55,14-15.45,22.93-8.78,7.9-17,17.28-17,19.42s4.39,5,8.79,6c9.6,2,13.2,2.13,22.35.56,9.56-1.63,21.49-6.08,32.36-12.06,6.25-3.44,22.19-9,28.85-10.08,2.12-.34,3.66-.82,3.41-1.06-1.63-1.63-25.59,5.84-33.12,10.33-12.82,7.65-34.82,14.07-44.14,12.89-8.87-1.12-13.23-2.38-15.24-4.4l-2.12-2.11,3.05-4.62c1.68-2.53,7.46-8.45,12.83-13.14,10.53-9.18,15.14-16,16.36-24.13.79-5.24,0-5.69-.93-.5m796.26,5.36c-.43,3.24-1.63,5.26-5.38,9.1-16.71,17.06-44.47,30.1-69.81,32.78-6.14.65-6.42.76-2.23.87a68.82,68.82,0,0,0,12.5-1.44,122.84,122.84,0,0,0,59-29.92c5.18-4.8,6.16-6.27,6.74-10.1.37-2.47.45-4.71.19-5s-.74,1.39-1,3.69m-159.51,6.95-.2,8.57-14.75,2.2c-15.75,2.36-44.57,8.48-42.13,9,.81.16,7.07-1,13.92-2.66s19.21-3.94,27.46-5.16,15.36-2.54,15.79-2.93.64-4.5.46-9.12l-.34-8.41-.21,8.56M43.05,2301c0,1.38,1.64,5.13,3.71,8.35,3.35,5.23,4.66,6.31,12.47,10.25,4.8,2.42,9.3,4.38,10,4.35s-2.9-2.09-8-4.59c-9.8-4.8-13.92-9-16.88-17.31-1.09-3.05-1.28-3.2-1.31-1.05m282.24,2.74c3.74.2,9.59.19,13,0s.36-.35-6.79-.35-9.94.16-6.21.35m38.71,3c1.38.24,7.82,1.79,14.32,3.46s12,2.83,12.28,2.57c.67-.67-24.1-6.76-26.82-6.59-2.13.12-2.11.16.22.56m28.5,6.86c.55.22,7.08,1.5,14.5,2.84s20,3.8,28,5.48c14.86,3.12,62.38,9.51,66.31,8.91,1.2-.18-3-.9-9.31-1.6-24.58-2.74-49.06-6.39-61.5-9.18-19-4.26-42.46-8.24-38-6.45m289.34,5.19-26.66.28L650,2331.19c-6.73,15.93-14.26,38.24-13.86,41,.38,2.65,3.66,4,25.26,10.24,16.4,4.75,44.79,11.1,53.56,12,3,.3-.35-.59-7.5-2a514.26,514.26,0,0,1-55.83-14.14l-14.86-4.74.62-3.86c.74-4.65,9.12-27.68,14.73-40.48l4.06-9.25,24.64-.12c13.55-.06,29.14-.44,34.64-.83l10-.72-8.5.07c-4.67,0-20.5.19-35.16.35m-151,15c5.67.18,14.67.17,20,0s.7-.33-10.3-.33-15.36.15-9.7.33m38.14,1c5.58.31,6.91.78,10,3.57,2,1.77,4.48,3.89,5.6,4.7,1.93,1.4,4,6.5,4.81,12,.26,1.74.42,1.4.51-1.13a15.81,15.81,0,0,0-6.56-13.38,63.45,63.45,0,0,1-5.59-4.66c-1.43-1.46-3.15-1.79-8.5-1.64l-6.71.2,6.44.36M588,2365c-5.34,14.3-22,22.07-65.16,30.44-6.79,1.31-11.36,2.43-10.16,2.48,2.8.12,18.8-3,35-6.91,14.91-3.57,31.07-10.81,35.92-16.12,3-3.27,8.17-14.44,7.17-15.45-.28-.27-1.52,2.23-2.77,5.56m154,33.57a107.05,107.05,0,0,0,12.5,1.25c2.2,0-.5-.64-6-1.37-12.72-1.69-17.78-1.6-6.5.12m-249,1c-5.93.76-7.81,1.24-5,1.26a117.65,117.65,0,0,0,13.5-1.24c4.95-.71,7.2-1.28,5-1.26s-8.27.58-13.5,1.24m-90.75,3.23c11.41.16,30.09.16,41.5,0s2.08-.29-20.75-.29-32.16.13-20.75.29m423,2c4.26.19,11.24.19,15.5,0s.78-.34-7.75-.34-12,.16-7.75.34m68.5,0c5.09.18,13.41.18,18.5,0s.92-.33-9.25-.33-14.34.14-9.25.33" transform="translate(-0.14 0.24)"/></svg>