<svg id="Camada_1" data-name="Camada 1" xmlns="http://www.w3.org/2000/svg" viewBox="0 0 102.4 17.75"><defs><style>.cls-1{fill:#fff;}</style></defs><path class="cls-1" d="M16.6,19h0a.7.7,0,0,0-.7.7v1.95H13.58a.71.71,0,0,0-.7.71.7.7,0,0,0,.7.7H15.9v3.13a.7.7,0,1,0,1.4,0V23.05h2.32a.7.7,0,0,0,.7-.7.7.7,0,0,0-.7-.71H17.3V19.69a.7.7,0,0,0-.7-.7" transform="translate(-8.6 -11.8)"/><path class="cls-1" d="M23.8,18.89a3,3,0,0,0-3.44-.67,4.92,4.92,0,0,0-.16-2.12A8,8,0,0,0,16.94,12l-.35-.21-.35.21A8.08,8.08,0,0,0,13,16.1a4.92,4.92,0,0,0-.16,2.12,2.95,2.95,0,0,0-4.19,3.05l1.24.17a1.77,1.77,0,0,1,.38-1.75,1.75,1.75,0,0,1,1.3-.57,1.77,1.77,0,0,1,1.2.46s.32.27.55.5.37.41.44.51l1-.58c-.09-.14-.16-.28-.23-.41a4.21,4.21,0,0,1-.38-3.16,6.46,6.46,0,0,1,2.48-3.16,6.48,6.48,0,0,1,2.49,3.16,4.26,4.26,0,0,1-.39,3.16l-.22.41,1,.58a5.83,5.83,0,0,1,.44-.51c.23-.23.54-.5.54-.5a1.79,1.79,0,0,1,2.51.11,1.79,1.79,0,0,1,.37,1.75l1.24-.17a2.93,2.93,0,0,0-.75-2.38" transform="translate(-8.6 -11.8)"/><path class="cls-1" d="M13.42,24.35v.54a1.57,1.57,0,0,1-1.55,1.56v1.18a2.75,2.75,0,0,0,2.73-2.74v-.54Z" transform="translate(-8.6 -11.8)"/><path class="cls-1" d="M19.76,24.35v.54a1.57,1.57,0,0,0,1.55,1.56v1.18a2.75,2.75,0,0,1-2.73-2.74v-.54Z" transform="translate(-8.6 -11.8)"/><path class="cls-1" d="M17.53,27.59a2.85,2.85,0,0,1-.94.71,3,3,0,0,1-.94-.71l-.9.75.16.18a4,4,0,0,0,1.68,1,3.91,3.91,0,0,0,1.68-1,1.29,1.29,0,0,0,.16-.17Z" transform="translate(-8.6 -11.8)"/><path class="cls-1" d="M29.27,25.15a1.31,1.31,0,0,1,.89.34.08.08,0,0,1,0,.11l-.1.1s-.06,0-.09,0a1.18,1.18,0,0,0-.71-.27,1.06,1.06,0,0,0,0,2.11,1.14,1.14,0,0,0,.71-.27.07.07,0,0,1,.08,0l.11.1a.07.07,0,0,1,0,.1,1.24,1.24,0,0,1-.89.36,1.33,1.33,0,1,1,0-2.65" transform="translate(-8.6 -11.8)"/><path class="cls-1" d="M32.59,25.15a1.33,1.33,0,1,1-1.32,1.33,1.32,1.32,0,0,1,1.32-1.33m0,2.39a1.07,1.07,0,1,0-1.07-1.06,1.07,1.07,0,0,0,1.07,1.06" transform="translate(-8.6 -11.8)"/><path class="cls-1" d="M35.21,25.26a.07.07,0,0,1,.07-.07h.95A.79.79,0,0,1,37,26a.82.82,0,0,1-.54.75l.5.94a.06.06,0,0,1-.06.1h-.19a.09.09,0,0,1-.06,0l-.49-1h-.7v.94a.07.07,0,0,1-.07.07h-.14a.07.07,0,0,1-.07-.07Zm1,1.25a.53.53,0,1,0,0-1.05H35.5v1.05Z" transform="translate(-8.6 -11.8)"/><path class="cls-1" d="M38.38,25.26a.07.07,0,0,1,.07-.07h.81a.82.82,0,1,1,0,1.64h-.6v.86a.08.08,0,0,1-.07.07h-.14a.07.07,0,0,1-.07-.07Zm.86,1.3A.57.57,0,0,0,39.8,26a.55.55,0,0,0-.56-.52h-.58v1.09Z" transform="translate(-8.6 -11.8)"/><path class="cls-1" d="M42.44,25.15a1.33,1.33,0,1,1-1.32,1.33,1.32,1.32,0,0,1,1.32-1.33m0,2.39a1.07,1.07,0,1,0-1.07-1.06,1.07,1.07,0,0,0,1.07,1.06" transform="translate(-8.6 -11.8)"/><path class="cls-1" d="M46.61,25.22a.08.08,0,0,1,.07-.07h.1l1.65,2.07h0v-2a.07.07,0,0,1,.07-.07h.13a.07.07,0,0,1,.07.07v2.47a.07.07,0,0,1-.07.07h-.07l-1.68-2.11h0v2a.07.07,0,0,1-.07.07h-.13a.08.08,0,0,1-.07-.07Z" transform="translate(-8.6 -11.8)"/><path class="cls-1" d="M49.84,27.67,51,25.19a.07.07,0,0,1,.06,0h0a.07.07,0,0,1,.06,0l1.11,2.48s0,.09-.06.09H52a.07.07,0,0,1-.06,0l-.27-.6H50.38l-.26.6a.07.07,0,0,1-.07,0h-.14c-.06,0-.09-.05-.07-.09m1.75-.78-.54-1.21h0l-.53,1.21Z" transform="translate(-8.6 -11.8)"/><path class="cls-1" d="M54.5,25.15a1.31,1.31,0,0,1,.89.34.08.08,0,0,1,0,.11l-.1.1s-.06,0-.09,0a1.18,1.18,0,0,0-.71-.27,1.06,1.06,0,0,0,0,2.11,1.14,1.14,0,0,0,.71-.27.07.07,0,0,1,.08,0l.11.1a.07.07,0,0,1,0,.1,1.24,1.24,0,0,1-.89.36,1.33,1.33,0,1,1,0-2.65" transform="translate(-8.6 -11.8)"/><rect class="cls-1" x="48.09" y="13.39" width="0.29" height="2.57" rx="0.07"/><path class="cls-1" d="M59.6,25.15a1.33,1.33,0,1,1-1.32,1.33,1.32,1.32,0,0,1,1.32-1.33m0,2.39a1.07,1.07,0,1,0,0-2.13,1.07,1.07,0,0,0,0,2.13" transform="translate(-8.6 -11.8)"/><path class="cls-1" d="M62.22,25.22a.08.08,0,0,1,.07-.07h.09L64,27.22h0v-2a.07.07,0,0,1,.07-.07h.13a.07.07,0,0,1,.07.07v2.47a.07.07,0,0,1-.07.07h-.07l-1.69-2.11h0v2a.07.07,0,0,1-.07.07h-.13a.08.08,0,0,1-.07-.07Z" transform="translate(-8.6 -11.8)"/><path class="cls-1" d="M65.45,27.67l1.12-2.48a.07.07,0,0,1,.06,0h0a.07.07,0,0,1,.06,0l1.11,2.48s0,.09-.06.09h-.15a.07.07,0,0,1-.06,0l-.27-.6H66l-.26.6a.07.07,0,0,1-.07,0h-.14c-.06,0-.09-.05-.07-.09m1.75-.78-.54-1.21h0l-.53,1.21Z" transform="translate(-8.6 -11.8)"/><path class="cls-1" d="M69,25.26a.07.07,0,0,1,.07-.07h.14a.07.07,0,0,1,.07.07v2.26h1.06a.07.07,0,0,1,.07.07v.1a.07.07,0,0,1-.07.07H69.05a.07.07,0,0,1-.07-.07Z" transform="translate(-8.6 -11.8)"/><path class="cls-1" d="M73.08,25.26s0-.07.06-.07H74a1.29,1.29,0,1,1,0,2.57h-.83s-.06,0-.06-.07Zm.83,2.25a1,1,0,1,0,0-2.07h-.56v2.07Z" transform="translate(-8.6 -11.8)"/><path class="cls-1" d="M76.56,25.26a.07.07,0,0,1,.07-.07h1.45a.07.07,0,0,1,.07.07v.1a.07.07,0,0,1-.07.07H76.84v.9H77.9a.08.08,0,0,1,.07.07v.11a.08.08,0,0,1-.07.07H76.84v.94h1.24a.07.07,0,0,1,.07.07v.1a.07.07,0,0,1-.07.07H76.63a.07.07,0,0,1-.07-.07Z" transform="translate(-8.6 -11.8)"/><path class="cls-1" d="M81,25.26a.07.07,0,0,1,.07-.07h1.44a.06.06,0,0,1,.07.07v.1a.06.06,0,0,1-.07.07H81.31v.9h1a.08.08,0,0,1,.07.07v.11a.07.07,0,0,1-.07.07h-1v.94h1.23a.06.06,0,0,1,.07.07v.1a.06.06,0,0,1-.07.07H81.1a.07.07,0,0,1-.07-.07Z" transform="translate(-8.6 -11.8)"/><path class="cls-1" d="M83.77,27.38l.06-.07s.08-.08.13,0a.94.94,0,0,0,.62.28.43.43,0,0,0,.49-.4c0-.26-.22-.41-.64-.58s-.65-.34-.65-.76a.7.7,0,0,1,.78-.66,1.2,1.2,0,0,1,.63.19s.07.05,0,.12l0,.07c0,.06-.07.07-.13,0a.91.91,0,0,0-.48-.17c-.39,0-.51.25-.51.4s.19.39.5.52c.5.2.82.39.82.82a.74.74,0,0,1-.8.66,1.13,1.13,0,0,1-.77-.3.08.08,0,0,1,0-.12" transform="translate(-8.6 -11.8)"/><path class="cls-1" d="M87.78,25.15a1.31,1.31,0,0,1,.89.34.08.08,0,0,1,0,.11l-.1.1s-.06,0-.1,0a1.13,1.13,0,0,0-.7-.27,1.06,1.06,0,0,0,0,2.11,1.09,1.09,0,0,0,.7-.27.08.08,0,0,1,.09,0l.11.1a.07.07,0,0,1,0,.1,1.24,1.24,0,0,1-.89.36,1.33,1.33,0,1,1,0-2.65" transform="translate(-8.6 -11.8)"/><path class="cls-1" d="M89.94,25.26a.07.07,0,0,1,.07-.07h.14a.07.07,0,0,1,.07.07v1.53a.7.7,0,1,0,1.39,0V25.26a.07.07,0,0,1,.07-.07h.14a.07.07,0,0,1,.07.07v1.55a1,1,0,1,1-2,0Z" transform="translate(-8.6 -11.8)"/><path class="cls-1" d="M93.71,25.43h-.64a.07.07,0,0,1-.07-.07v-.1a.07.07,0,0,1,.07-.07h1.56a.07.07,0,0,1,.07.07v.1a.07.07,0,0,1-.07.07H94v2.26a.08.08,0,0,1-.07.07h-.14a.07.07,0,0,1-.07-.07Z" transform="translate(-8.6 -11.8)"/><path class="cls-1" d="M95.34,27.67l1.12-2.48a.07.07,0,0,1,.06,0h0a.07.07,0,0,1,.06,0l1.11,2.48s0,.09-.06.09h-.15a.07.07,0,0,1-.06,0l-.27-.6H95.88l-.26.6a.07.07,0,0,1-.07,0h-.14c-.06,0-.09-.05-.07-.09m1.75-.78-.54-1.21h0L96,26.89Z" transform="translate(-8.6 -11.8)"/><path class="cls-1" d="M98.71,27.38l.05-.07s.08-.08.13,0a1,1,0,0,0,.62.28.43.43,0,0,0,.49-.4c0-.26-.22-.41-.64-.58s-.65-.34-.65-.76a.71.71,0,0,1,.79-.66,1.2,1.2,0,0,1,.63.19s.06.05,0,.12l-.05.07c0,.06-.07.07-.12,0a1,1,0,0,0-.49-.17c-.39,0-.5.25-.5.4s.18.39.49.52c.5.2.82.39.82.82a.74.74,0,0,1-.8.66,1.16,1.16,0,0,1-.77-.3s-.07-.05,0-.12" transform="translate(-8.6 -11.8)"/><path class="cls-1" d="M28.22,19.49a.11.11,0,0,1,.1-.1h.14l2.2,2.11h0V19.55a.11.11,0,0,1,.11-.1h.66a.11.11,0,0,1,.1.1v3.7a.1.1,0,0,1-.1.1h-.09s-.06,0-.07,0l-2.18-2.18h0v2.05a.11.11,0,0,1-.11.11h-.65a.11.11,0,0,1-.11-.11Z" transform="translate(-8.6 -11.8)"/><path class="cls-1" d="M33.51,19.55a.1.1,0,0,1,.1-.1h.68a.1.1,0,0,1,.1.1v2.23a.68.68,0,1,0,1.36,0V19.55a.11.11,0,0,1,.11-.1h.68a.11.11,0,0,1,.1.1v2.27a1.57,1.57,0,0,1-3.13,0Zm1-.49-.11-.24a.08.08,0,0,1,0-.1l.94-.57s.11,0,.14,0l.19.33c0,.08,0,.14,0,.16l-1,.46a.1.1,0,0,1-.15-.05" transform="translate(-8.6 -11.8)"/><path class="cls-1" d="M40.34,19.39a1.86,1.86,0,0,1,1.33.51.1.1,0,0,1,0,.16l-.43.44a.09.09,0,0,1-.13,0,1.16,1.16,0,0,0-.75-.28,1.13,1.13,0,0,0,0,2.25,1.17,1.17,0,0,0,.74-.26.1.1,0,0,1,.14,0l.43.46a.11.11,0,0,1,0,.15,1.87,1.87,0,0,1-1.33.53,2,2,0,1,1,0-4" transform="translate(-8.6 -11.8)"/><path class="cls-1" d="M43.43,19.55a.11.11,0,0,1,.11-.1h.65a.11.11,0,0,1,.11.1v2.94h1.31a.1.1,0,0,1,.1.1v.6a.1.1,0,0,1-.1.11H43.54a.11.11,0,0,1-.11-.11Z" transform="translate(-8.6 -11.8)"/><path class="cls-1" d="M47.34,19.55a.11.11,0,0,1,.11-.1h2.27a.1.1,0,0,1,.11.1v.6a.1.1,0,0,1-.11.1H48.2v.69h1.25a.11.11,0,0,1,.11.1v.6a.11.11,0,0,1-.11.11H48.2v.74h1.52a.1.1,0,0,1,.11.1v.6a.1.1,0,0,1-.11.11H47.45a.11.11,0,0,1-.11-.11Z" transform="translate(-8.6 -11.8)"/><path class="cls-1" d="M53.36,19.39a2,2,0,1,1,0,4,2,2,0,0,1,0-4m0,3.08a1.1,1.1,0,1,0-1.09-1.09,1.09,1.09,0,0,0,1.09,1.09" transform="translate(-8.6 -11.8)"/><path class="cls-1" d="M59.42,19.55a.1.1,0,0,1,.1-.1h1.34a1.93,1.93,0,1,1,0,3.85H59.52a.1.1,0,0,1-.1-.11Zm1.39,2.93a1.12,1.12,0,0,0,0-2.23h-.53v2.23Z" transform="translate(-8.6 -11.8)"/><path class="cls-1" d="M64.56,19.55a.11.11,0,0,1,.11-.1h2.27a.1.1,0,0,1,.11.1v.6a.1.1,0,0,1-.11.1H65.42v.69h1.26a.11.11,0,0,1,.1.1v.6a.11.11,0,0,1-.1.11H65.42v.74h1.52a.1.1,0,0,1,.11.1v.6a.1.1,0,0,1-.11.11H64.67a.11.11,0,0,1-.11-.11Z" transform="translate(-8.6 -11.8)"/><path class="cls-1" d="M72.9,19.4a2.13,2.13,0,0,1,1.34.51.09.09,0,0,1,0,.15l-.43.46a.12.12,0,0,1-.15,0,1,1,0,0,0-.72-.26,1.1,1.1,0,0,0,0,2.2,1.25,1.25,0,0,0,.49-.09v-.32H73.1A.1.1,0,0,1,73,22v-.55a.1.1,0,0,1,.11-.1h1.11a.1.1,0,0,1,.09.1V22.9a.15.15,0,0,1,0,.09,2.79,2.79,0,0,1-1.37.36,2,2,0,0,1,0-4" transform="translate(-8.6 -11.8)"/><path class="cls-1" d="M76.11,19.55a.11.11,0,0,1,.1-.1h.68a.1.1,0,0,1,.1.1v2.23a.69.69,0,1,0,1.37,0V19.55a.1.1,0,0,1,.1-.1h.68a.11.11,0,0,1,.1.1v2.27a1.57,1.57,0,0,1-3.13,0Z" transform="translate(-8.6 -11.8)"/><rect class="cls-1" x="72.62" y="7.64" width="0.87" height="3.85" rx="0.1"/><path class="cls-1" d="M84.52,19.48a.12.12,0,0,1,.1-.09h.09a.1.1,0,0,1,.09.06l1.28,2.37h0l1.28-2.37a.1.1,0,0,1,.09-.06h.09a.12.12,0,0,1,.1.09l.62,3.7a.1.1,0,0,1-.11.12h-.64a.13.13,0,0,1-.11-.09l-.25-1.7h0l-.92,1.78a.15.15,0,0,1-.1.06H86a.13.13,0,0,1-.1-.06L85,21.51h0l-.24,1.7a.12.12,0,0,1-.11.09H84a.1.1,0,0,1-.11-.12Z" transform="translate(-8.6 -11.8)"/><path class="cls-1" d="M89.58,23.15l1.72-3.7a.11.11,0,0,1,.09-.06h.06a.11.11,0,0,1,.09.06l1.72,3.7a.1.1,0,0,1-.09.15h-.61c-.1,0-.14,0-.19-.14l-.2-.44h-1.5l-.2.44a.19.19,0,0,1-.19.14h-.61a.1.1,0,0,1-.09-.15M91.84,22l-.42-.91h0L91,22Z" transform="translate(-8.6 -11.8)"/><path class="cls-1" d="M94.81,19.55a.11.11,0,0,1,.11-.1h1.64A1.17,1.17,0,0,1,97,21.74l.75,1.4a.1.1,0,0,1-.09.16h-.73a.1.1,0,0,1-.09-.05l-.73-1.46h-.38v1.4a.11.11,0,0,1-.11.11h-.65a.11.11,0,0,1-.11-.11Zm1.68,1.54a.44.44,0,0,0,.42-.44.42.42,0,0,0-.42-.42h-.81v.86Z" transform="translate(-8.6 -11.8)"/><path class="cls-1" d="M99.1,23.15l1.72-3.7a.13.13,0,0,1,.1-.06h0a.13.13,0,0,1,.1.06l1.72,3.7a.1.1,0,0,1-.1.15h-.61c-.09,0-.14,0-.19-.14l-.2-.44H100.2l-.2.44a.21.21,0,0,1-.2.14h-.6a.1.1,0,0,1-.1-.15m1-4.33a.09.09,0,0,1,0-.12c0-.1.29-.46.59-.46s.37.25.59.25.17-.11.21-.17a.09.09,0,0,1,.14,0l.18.15s0,.09,0,.16-.26.42-.55.42-.42-.26-.61-.26-.17.14-.22.19-.07,0-.12,0ZM101.36,22l-.41-.91h0l-.41.91Z" transform="translate(-8.6 -11.8)"/><path class="cls-1" d="M104.34,19.55a.1.1,0,0,1,.1-.1h2.28a.11.11,0,0,1,.11.1v.6a.1.1,0,0,1-.11.1H105.2v.69h1.25a.11.11,0,0,1,.11.1v.6a.11.11,0,0,1-.11.11H105.2v.74h1.52a.11.11,0,0,1,.11.1v.6a.11.11,0,0,1-.11.11h-2.28a.1.1,0,0,1-.1-.11Z" transform="translate(-8.6 -11.8)"/><path class="cls-1" d="M108.44,22.77l.26-.45c0-.07.15-.06.19,0a1.54,1.54,0,0,0,.78.31.35.35,0,0,0,.38-.33c0-.23-.19-.41-.57-.56s-1.07-.55-1.07-1.21a1.15,1.15,0,0,1,1.28-1.1,2,2,0,0,1,1.17.41.13.13,0,0,1,0,.18l-.28.42c0,.06-.13.11-.18.07a1.81,1.81,0,0,0-.79-.33.33.33,0,0,0-.35.29c0,.2.17.35.6.53s1.12.51,1.12,1.25a1.21,1.21,0,0,1-1.3,1.14,1.79,1.79,0,0,1-1.24-.42c-.06-.06-.07-.08,0-.16" transform="translate(-8.6 -11.8)"/></svg>