<?xml version="1.0" encoding="utf-8"?>
<!-- Generator: Adobe Illustrator 24.2.1, SVG Export Plug-In . SVG Version: 6.00 Build 0)  -->
<svg version="1.1" id="Camada_1" xmlns="http://www.w3.org/2000/svg" xmlns:xlink="http://www.w3.org/1999/xlink" x="0px" y="0px"
	 viewBox="0 0 1655 2048" style="enable-background:new 0 0 1655 2048;" xml:space="preserve">
<style type="text/css">
	.st0{fill-rule:evenodd;clip-rule:evenodd;fill:#FFFFFF;}
</style>
<path class="st0" d="M486,533.02c-28.05,1.08-45.41,2.47-54.3,4.35c-3.96,0.83-13.05,2.47-20.2,3.63
	c-23.67,3.85-36.94,7.26-46.82,12.04c-2.23,1.08-4.46,1.96-4.97,1.96c-2.38,0-13.48,5.55-28.52,14.27c-9.53,5.53-10.26,6.17-9.8,8.6
	c0.27,1.45,1,11.4,1.61,22.13c0.61,10.72,1.96,30.53,3.01,44c2.97,38.3,3.99,53.11,5.02,72.5c0.52,9.9,1.63,25.2,2.47,34
	c0.83,8.8,1.95,23.42,2.49,32.5c1.86,31.47,3.13,50.63,5.02,75.5c1.04,13.75,2.4,32.88,3.01,42.5c1.14,17.91,2.95,33.08,5.42,45.5
	c0.77,3.85,2.14,12.63,3.06,19.5c2.87,21.59,8.97,56.94,11.13,64.5c0.79,2.75,1.87,9.28,2.42,14.5c1.63,15.68,3.92,28.85,7.13,41
	c1.67,6.32,3.46,13.3,3.96,15.5c1.05,4.59,7.22,23.06,9.68,29c1.33,3.21,13.7,28,24.24,48.58c1.01,1.97,2.53,4.16,3.39,4.87
	c0.86,0.71,1.59,1.8,1.62,2.42c0.03,0.62,2.26,3.83,4.95,7.13s7.04,9.6,9.66,14c2.63,4.4,6.81,10.86,9.3,14.35
	c2.49,3.49,5.2,7.37,6.02,8.62c3.92,5.94,8.87,12.66,14.21,19.31c3.22,4.01,6.63,8.54,7.57,10.08c0.94,1.54,8.24,9.66,16.21,18.04
	c32.37,34.03,75.77,63.59,114.5,77.98c8.8,3.27,17.88,6.5,20.17,7.17c3.99,1.16,4.2,1.43,4.73,5.83c0.3,2.54,1.03,25.99,1.62,52.11
	s2.15,79.45,3.48,118.5c1.32,39.05,2.62,79.44,2.88,89.75c0.54,21.5,1.27,20.19-9.19,16.66l-6.19-2.09v-89.97v-89.97l-4.25,0.31
	l-4.25,0.31l-0.29,7.31c-0.29,7.3-0.3,7.31-3,7c-2.63-0.3-2.71-0.51-3-7.56l-0.29-7.25H597h-3.91l-0.29,7.25
	c-0.29,7.08-0.36,7.26-3.04,7.57l-2.75,0.32v-7.57V1464h-4.5H578v7.57v7.57l-2.75-0.32c-2.94-0.34-2.95-0.36-3.15-10.07L572,1464
	h-4.5H563v7.5c0,7.33-0.06,7.5-2.5,7.5s-2.5-0.17-2.5-7.5v-7.5h-4.46h-4.46l-0.29,7.25c-0.29,7.08-0.36,7.26-3.04,7.57l-2.75,0.32
	v-7.57c0-6.9-0.18-7.57-2-7.57c-1.98,0-2,0.67-2,80.5c0,44.28-0.34,80.49-0.75,80.49c-0.41-0.01-1.76-0.28-3-0.62l-2.25-0.6v-47.88
	V1528h-3.5H526v7c0,6.33-0.19,7-2,7s-2-0.67-2-7v-7h-3.96h-3.96l-0.29,7.25c-0.26,6.48-0.51,7.25-2.29,7.25s-2.03-0.77-2.29-7.25
	l-0.29-7.25h-3.96H501v7.57v7.57l-2.75-0.32c-2.69-0.31-2.76-0.48-3.04-7.57l-0.29-7.25h-3.46H488v7.5c0,7.33-0.06,7.5-2.5,7.5
	s-2.5-0.17-2.5-7.5v-7.5h-4h-4v44v44h-2.5H470v-51.5V1513h-2.45c-2.21,0-2.48,0.46-2.75,4.75c-0.29,4.54-0.43,4.75-3.3,4.75
	c-2.78,0-3.02-0.29-3.32-4c-0.18-2.2-0.97-4.36-1.75-4.8c-1.21-0.68-1.43-9.35-1.43-56.75V1401h-3h-3v7.5v7.5h-2.96h-2.96
	l-0.29-7.25c-0.27-6.75-0.46-7.27-2.65-7.58c-4.31-0.61-7.3,0.7-7.1,3.12c0.1,1.22,0.13,4.35,0.07,6.96
	c-0.11,4.74-0.12,4.75-3.61,4.75H426v-6.89c0-7.59-0.42-8.11-6.58-8.11H416v7.5v7.5h-3.46h-3.46l-0.29-7.25l-0.29-7.25H404h-4.5
	l-0.29,7.25l-0.29,7.25h-3.96H391v-7.38v-7.38l-4.25,0.13l-4.25,0.13l-0.29,7.25c-0.28,6.92-0.4,7.25-2.71,7.25
	s-2.43-0.33-2.71-7.25l-0.29-7.25H372h-4.5l-0.29,7.25c-0.28,6.92-0.4,7.25-2.71,7.25s-2.43-0.33-2.71-7.25l-0.29-7.25l-4.25-0.31
	l-4.25-0.31l-0.11,54.81c-0.06,30.14-0.4,57.51-0.75,60.81l-0.64,6h-4.42h-4.42l-0.08-4.5c-0.07-3.87-0.39-4.54-2.32-4.82
	l-2.24-0.32l-0.26,52.32l-0.26,52.32l-2.25,0.32l-2.25,0.32v-45.07V1528h-4h-4v7c0,6.33-0.19,7-2,7s-2-0.67-2-7v-7h-4.07h-4.07
	l0.15,6.25c0.2,8.66,0.25,8.49-2.26,8.36c-2.09-0.1-2.27-0.64-2.54-7.36l-0.29-7.25h-4.05h-4.05l0.34,7.25l0.34,7.25l-2.75,0.32
	l-2.75,0.32v-7.57V1528h-4h-4v7.5c0,7.33-0.06,7.5-2.5,7.5s-2.5-0.17-2.5-7.5v-7.5h-3.5H275l-0.04,6.75
	c-0.02,3.71-0.01,25.23,0.04,47.82c0.04,22.59-0.21,41.82-0.57,42.75c-0.36,0.93-1.72,1.68-3.04,1.68H269v-81.5
	c0-73.3-0.16-81.5-1.57-81.5c-2.95,0-5.5,2.06-5.31,4.3c0.1,1.21,0.11,4.56,0.03,7.45c-0.15,4.89-0.33,5.25-2.66,5.25
	c-2.46,0-2.5-0.14-2.5-7.89c0-8.27-0.46-9.11-5.08-9.11c-1.73,0-1.92,0.78-1.92,8v8h-4h-4v-7.39c0-7.74-0.51-8.61-5.08-8.61
	c-1.73,0-1.92,0.78-1.92,8v8h-4.46h-4.46l-0.29-7.75c-0.29-7.63-0.34-7.76-3.04-8.07l-2.75-0.32v7.47v7.47l-5,0.35l-5,0.35v-7.75
	l0-7.75h-3.5H203v7.5v7.5h-3.5H196v-7.5c0-6.83-0.18-7.5-2-7.5c-1.98,0-2,0.71-2.12,89.25c-0.07,49.09-0.06,89.61,0.01,90.04
	c0.35,2.12-2.2,4.48-6.09,5.63c-2.37,0.7-6.45,2.19-9.06,3.3l-4.75,2.03v7.36c0,7.02-0.12,7.39-2.5,7.99
	c-1.38,0.35-4.08,0.35-6,0.02c-1.92-0.33-5.04-0.88-6.93-1.21c-1.89-0.33-4.18-1.43-5.1-2.43c-1.55-1.72-1.47-2.1,1.35-6.15
	c1.65-2.37,5.37-6.34,8.26-8.82c9.29-7.95,11.4-11.08,12.47-18.5c0.4-2.75,2.7-10.85,5.12-18c11.19-33.08,10.5-30.36,9.79-38.34
	c-0.42-4.77-1.23-7.94-2.3-9.04c-0.91-0.93-3.11-3.37-4.89-5.42l-3.24-3.73l-5.51,3.66c-3.03,2.01-5.51,4.02-5.51,4.45
	c0,0.44-0.79,1.04-1.76,1.35c-0.97,0.31-4.45,3-7.75,5.98c-3.45,3.12-8.33,6.34-11.49,7.59c-11.92,4.71-13.64,5.51-17.5,8.12
	c-4.64,3.13-6.9,5.2-10.85,9.9c-2.92,3.47-6.52,4.54-11.52,3.42c-2.19-0.49-2.32-0.85-1.64-4.73c0.41-2.31,0.82-10.27,0.92-17.7
	c0.1-7.43,0.67-14.63,1.27-16c4.39-10.14,41.23-65.46,57.94-87c23.98-30.91,26.46-33.67,37.87-42.11
	c5.49-4.06,16.52-12.58,24.5-18.92c13.3-10.57,25.81-19.31,41.51-28.99c3.3-2.04,11.85-7.42,19-11.97c7.15-4.55,14.21-9,15.68-9.89
	c1.48-0.89,6.65-4,11.5-6.91c16.65-10,21.04-12.78,42.32-26.79c9.08-5.98,21-13.6,26.5-16.95c14.98-9.12,27.95-18.38,26.38-18.84
	c-11.34-3.32-29.39-7.63-31.97-7.63c-1.58,0-4.57,0.6-6.64,1.34c-7.84,2.79-13.9,4.54-17.77,5.14c-16.03,2.47-28.96,4.95-34.5,6.6
	c-3.58,1.07-10.45,3.1-15.29,4.51c-8.76,2.56-12.85,4.2-27.49,11.02c-17.44,8.13-26.8,12.75-28.22,13.92
	c-0.82,0.68-6.08,3.56-11.68,6.4c-8.86,4.5-17.45,9.99-26.32,16.83c-1.38,1.06-9.7,6.77-18.5,12.68
	c-8.8,5.91-16.73,11.5-17.62,12.41c-0.89,0.91-6.47,5.71-12.4,10.66s-12.68,10.8-14.99,13s-7.08,6.61-10.6,9.79
	c-3.51,3.19-7.51,6.82-8.89,8.08c-1.38,1.26-4.07,3.54-6,5.08c-1.93,1.53-5.97,5.05-9,7.81c-36.36,33.23-38.55,35.44-50.86,51.24
	c-5.57,7.15-10.74,13.68-11.49,14.5c-0.75,0.82-3.09,3.97-5.19,7s-4.81,6.63-6.01,8c-2.59,2.95-8.79,11.85-9.74,14
	c-0.37,0.82-2.02,3.75-3.67,6.5s-3.95,7.03-5.12,9.5c-1.16,2.47-2.98,6.18-4.04,8.22c-1.06,2.05-3.65,9.47-5.76,16.5
	c-2.11,7.03-5.14,17.05-6.74,22.28c-2.84,9.29-2.89,9.96-2.74,30.5c0.18,23.73,1.42,31.39,6.01,37.17c1.55,1.96,3.49,4.52,4.31,5.69
	c0.82,1.18,1.98,2.46,2.6,2.85c0.61,0.39,3.32,2.56,6.02,4.81c2.7,2.25,8.28,5.82,12.4,7.93c4.13,2.11,9.3,4.76,11.5,5.9
	c13.44,6.96,26.84,12.45,33.5,13.72c4.13,0.79,11.32,2.31,16,3.4c14,3.24,32.08,6.9,39,7.91c3.57,0.52,13.02,2.09,21,3.5
	c25.19,4.43,106.73,9.6,151.5,9.6c30.1,0,48.21-1.12,65.03-4.01c20.83-3.58,28.6-5.62,40.17-10.54c8.37-3.56,14.07-12.3,12.65-19.41
	c-0.45-2.24-0.22-3.51,0.75-4.13c0.77-0.49,9.83-0.87,20.14-0.82c21.21,0.08,20.47-0.27,16.84,8.05c-1.05,2.41-2.07,5.71-2.25,7.34
	c-0.31,2.74,0.05,3.11,4.66,4.84c5.14,1.93,24.66,7.27,36.93,10.1c10.2,2.36,39.57,6.32,59.57,8.03c28.15,2.41,61.45,2.91,105,1.59
	l40.5-1.23l9.5-5.42c13.08-7.46,12.44-7.04,22.5-14.93c4.95-3.88,9.95-7.71,11.12-8.5c11.44-7.78,19.24-13.34,26.51-18.87
	c14.86-11.32,20.61-13.96,51.37-23.59c15.53-4.86,31.52-10.77,35-12.93c1.1-0.68,5.6-2.63,10-4.32
	c27.05-10.42,37.28-16.75,44.02-27.26c6.13-9.56,7.42-12.92,9.58-24.97c3.86-21.56,1.64-38.32-6.71-50.5
	c-1.69-2.46-21.58-22.5-22.34-22.5c-0.72,0-14.57,4.48-19.09,6.17c-1.95,0.73-4.87,2.22-6.5,3.3c-1.63,1.09-4.53,2.82-6.46,3.86
	c-1.92,1.03-4.43,2.73-5.56,3.77c-1.14,1.04-2.62,1.9-3.29,1.9c-0.67,0-2.54,0.97-4.14,2.15c-2.3,1.7-2.71,2.53-1.96,3.94
	c0.52,0.98,0.95,2.71,0.95,3.85c0,2.04-0.39,2.07-27.75,2.13l-27.75,0.06l11.2,2.38c6.16,1.31,14.71,3.3,19,4.42
	c18.88,4.96,42.79,6.57,52.73,3.56c4.67-1.42,5.04-1.39,7.08,0.53c4.37,4.1,6.49,10.16,6.49,18.51c0,7.01-0.42,8.72-4.14,16.89
	c-5.27,11.59-9.8,17.64-22.66,30.29c-11,10.81-14.09,12.86-25.44,16.82l-7.13,2.49l-5.2-1.94c-5.85-2.19-19.79-9.31-26.1-13.33
	c-2.29-1.46-8.6-6.22-14.01-10.57c-8.45-6.79-10.03-8.54-11.13-12.29c-0.71-2.41-1.52-4.93-1.82-5.6c-0.29-0.68,3.41,1.24,8.22,4.26
	c13.72,8.62,24.49,11.06,44.98,10.2c10.07-0.42,14.34-1.04,18.28-2.64c2.83-1.15,7.51-3.04,10.39-4.2c2.89-1.16,5.96-2.74,6.83-3.5
	c0.87-0.77,1.86-1.39,2.21-1.39c1.63,0,11.67-7.91,10.76-8.47c-1.1-0.68-8.86-1.54-36.11-3.99c-9.11-0.82-19.01-2.22-22-3.11
	c-19.9-5.91-27.2-10.07-32.34-18.42c-3.33-5.42-6.93-15.35-5.93-16.35c0.28-0.28,0.21-1.44-0.15-2.59
	c-0.65-2.05-1.04-2.07-41.29-2.07h-40.64l3.55,3.75c4.35,4.59,14.14,16.98,18.76,23.75c1.88,2.75,5.28,7.7,7.56,11
	c2.28,3.3,5.6,8.47,7.37,11.5c1.77,3.03,3.78,6.39,4.45,7.48c7.97,12.94,7.88,12.72,8.97,22.01c0.69,5.92,0.75,11.44,0.16,15.55
	c-0.91,6.37-0.92,6.39-8.41,12.72c-7.72,6.52-18.24,12.22-30.5,16.51c-7.19,2.52-25.85,4.49-28.13,2.98
	c-0.73-0.49-1.53-9.69-2.29-26.25c-0.64-14.03-1.59-34.28-2.12-45c-0.65-13.39-0.59-27.6,0.2-45.34c1.24-28.03,1-33.17-3.81-79.16
	c-3.07-29.34-4.02-42.86-5.27-74.56c-0.97-24.75-0.71-30.86,2.44-58.28c2.67-23.17,1.43-44.06-3.14-52.89
	c-9.92-19.18-23-27.54-48.88-31.21c-18.37-2.61-23.75-3.63-26.49-5.01c-1.38-0.7-4.99-1.83-8.01-2.53c-3.03-0.69-6.91-2.1-8.62-3.14
	c-1.72-1.04-7.7-4.13-13.3-6.89c-5.6-2.75-11.39-5.85-12.88-6.9c-1.48-1.04-5.87-3.92-9.74-6.39
	c-20.89-13.35-50.69-47.28-67.37-76.7c-2.34-4.13-6.66-11.55-9.6-16.5c-5.67-9.54-5.83-9.83-12.2-21.5
	c-3.95-7.24-14.37-30.23-15.72-34.67c-0.81-2.68,1.35-3.54,8.76-3.49c5.05,0.03,5.29,0.17,10.92,6.35
	c12.54,13.73,22.79,25.74,29.46,34.49c8.56,11.23,28.32,32.34,33.77,36.07c2.2,1.51,4.22,2.98,4.5,3.28
	c0.28,0.3,3.68,2.62,7.57,5.16c10.1,6.59,25.55,10.81,39.61,10.81c3.75,0,6.8-0.34,6.78-0.75c-0.02-0.41-2.33-2.55-5.13-4.75
	c-11.61-9.12-22.84-22.89-25.53-31.3c-0.93-2.92-3.23-7.1-5.11-9.3c-3.64-4.25-9.17-17.59-9.18-22.11c0-1.49-0.65-4.64-1.43-7
	c-0.79-2.36-1.75-6.09-2.15-8.29c-0.39-2.2-1.82-6.44-3.18-9.43c-4.14-9.12-4.09-14.97,0.21-25.98c2.03-5.18,4.87-11.03,6.31-13
	c8.93-12.2,22.66-26.26,38.23-39.16c3.58-2.96,7.85-6.6,9.5-8.08s4.13-3.67,5.5-4.85c10.57-9.08,34.15-31.69,36.94-35.41
	c1.89-2.52,3.83-4.59,4.31-4.59s0.61-0.43,0.29-0.95c-0.81-1.31-16.25-0.47-26.03,1.41c-9.37,1.8-9.5,1.81-9.5,0.65
	c0-0.95,4.61-2.96,14.42-6.29c7.58-2.57,9.05-3.81,4.53-3.82c-3.88,0-16.16-4.13-16.65-5.59c-0.17-0.52,2.5-4.32,5.94-8.43
	c3.44-4.11,7.16-8.56,8.26-9.89c1.1-1.33,3.69-4.31,5.76-6.63c3.36-3.76,9.89-14.03,15.77-24.78c1.15-2.1,1.95-4.69,1.78-5.74
	c-0.29-1.82-0.47-1.83-3.31-0.31c-1.65,0.89-7.5,3.94-13,6.79c-5.5,2.85-11.8,6.33-14,7.74c-2.2,1.41-8.52,5.44-14.05,8.96
	c-5.53,3.52-10.93,6.96-12,7.65c-1.07,0.69-2.62,1.55-3.45,1.9c-0.83,0.35-2.85,1.62-4.5,2.81c-1.65,1.19-6.6,3.94-11,6.1
	c-7.37,3.62-8.66,3.93-16.33,3.93c-6.99,0-8.55-0.3-9.7-1.87c-2.46-3.37,1.17-14.41,6.17-18.74c4.2-3.64,17.19-17.5,30.82-32.89
	c12.27-13.85,13.93-15.59,21.59-22.54c2.45-2.22,6.8-6.99,9.66-10.59c6.21-7.8,15.1-16.16,25.1-23.6l7.3-5.43l-0.18-10.17
	c-0.1-5.59-0.4-11.63-0.67-13.42c-0.47-3.16-0.63-3.25-5.36-3.25c-2.68,0-6.79-0.44-9.14-0.98c-2.34-0.54-5.49-1.22-7-1.52
	c-3.41-0.66-9.77-6.13-9.77-8.41c0-2.61,9.48-13.47,21.7-24.88c6.65-6.21,12.07-12.21,13.66-15.14c2.39-4.4,2.64-5.85,2.62-15.71
	c-0.01-5.98-0.43-11.52-0.93-12.32c-1.21-1.92-4.51-0.21-10.33,5.36c-2.32,2.22-8.04,7.23-12.72,11.13
	c-13.09,10.93-47,43.87-47,45.65c0,0.45-0.62,0.81-1.38,0.81c-0.76,0-2.66,1.69-4.22,3.75c-1.56,2.06-3.87,4.57-5.12,5.58
	c-1.26,1-2.85,2.38-3.53,3.07c-0.68,0.68-4.39,3.35-8.23,5.92c-6.89,4.62-7.1,4.68-15.09,4.68c-6.92,0-8.38-0.3-9.97-2.06
	c-1.49-1.65-1.6-2.23-0.54-2.88c1.04-0.64,1.17-2.98,0.63-10.69c-0.68-9.62-0.62-10.05,2.45-16.87c3.67-8.16,7.64-14.67,13.97-22.92
	c2.5-3.26,6.57-8.94,9.05-12.63c7.28-10.85,51.21-63.82,58.87-70.98c4.13-3.86,32.82-36.6,35.81-40.87
	c0.6-0.85,3.75,2.71,16.59,18.73c25.59,31.91,32.3,40.71,36.58,47.98c4.15,7.05,12.06,18.96,29.82,44.91
	c4.6,6.72,9.8,14.38,11.56,17c1.75,2.62,3.54,4.92,3.98,5.1c0.43,0.18,0.79,0.68,0.79,1.11c0,0.42,5.89,9.5,13.09,20.17
	c29.32,43.44,44.47,68.99,63.44,107c9.88,19.79,13.07,27.19,16.52,38.4c1.19,3.85,3.21,9.47,4.49,12.5s3,8.2,3.82,11.5
	c11.14,44.85,11.7,80.88,1.64,104.84c-3.34,7.94-3.55,9.2-1.74,10.39c0.69,0.45,3.47,3.16,6.17,6.01l4.92,5.19l-7.48,7.29
	c-6.04,5.88-8.03,8.64-10.37,14.29c-1.59,3.85-5.5,12.52-8.7,19.27c-3.19,6.75-5.81,12.88-5.81,13.61s-0.9,2.49-2,3.89
	c-1.1,1.4-2,2.84-2,3.21c0,0.36-1.46,2.76-3.25,5.32s-3.47,5.21-3.75,5.89c-1.38,3.4-13.25,15.59-18.75,19.27l-6.25,4.17v24.44V1200
	h6.59c5.59,0,6.99-0.37,9.25-2.44c4.77-4.37,17.75-14.93,26.3-21.39c14.58-11.03,34.33-25.15,35.18-25.17
	c0.45-0.01,2.86-1.41,5.35-3.13c6.87-4.73,28.68-15.54,37.23-18.46c4.18-1.43,8.63-3.25,9.89-4.06c1.26-0.81,8.46-3.04,16-4.95
	c12.48-3.17,15.05-3.49,28.71-3.59c14.07-0.09,42.43,2.75,51,5.11c3.82,1.05,17.77,6.59,23,9.13c11.06,5.37,31.21,20.98,35.34,27.38
	c1.8,2.78,5.25,7.76,7.68,11.06c2.43,3.3,4.93,7.57,5.57,9.5c0.63,1.93,2.93,7.29,5.11,11.93c3.55,7.56,6.15,16.72,8.96,31.57
	c1.78,9.43,1.2,35.92-1.07,48.85c-1.14,6.52-2.08,13.11-2.08,14.65c0,2.69-2.19,10.98-5.67,21.51c-2.39,7.22-6.86,16.2-13.44,27
	c-1.68,2.76-2.57,4.36-7.22,13c-0.89,1.65-3.99,5.64-6.89,8.87c-2.9,3.23-5.73,6.39-6.28,7.01c-0.55,0.63-2.56,3.39-4.47,6.13
	c-1.91,2.74-3.83,5.44-4.27,5.99c-3.48,4.36-21.16,29.16-28.18,39.55c-4.84,7.15-5.52,8.26-7.1,11.45c-0.81,1.65-2.6,4.8-3.97,7
	c-1.37,2.2-2.8,4.68-3.16,5.5s-1.43,2.63-2.36,4c-0.93,1.38-3.85,6.55-6.49,11.5c-2.64,4.95-5.12,9.45-5.52,10
	c-0.4,0.55-2.63,5.5-4.95,11c-2.32,5.5-4.84,11.45-5.6,13.23c-1.28,3-1.58,3.16-4.15,2.18c-1.53-0.58-3.49-1.7-4.36-2.49
	c-0.88-0.79-6.5-3.64-12.5-6.33c-23.79-10.67-50.62-28.41-65.92-43.59c-8.28-8.21-10.78-11.43-13.98-18
	c-3.84-7.88-3.91-8.2-4.31-21.5l-0.41-13.5l-43.14,0.5l-43.14,0.5l0.09,3.5c0.05,1.93,0.44,21.83,0.88,44.22
	c0.75,38.51,0.9,40.76,2.66,41.32c1.03,0.33,1.87,1.01,1.87,1.53c0,0.51,0.47,0.93,1.05,0.93c0.58,0,3.76,1.8,7.07,4s6.4,4,6.87,4
	c0.47,0,1,0.34,1.18,0.76c0.18,0.42,2.36,2.32,4.83,4.24c2.47,1.91,5.09,4.05,5.82,4.74c0.73,0.7,1.52,1.26,1.77,1.26
	c0.59,0-2.93-6.68-5.54-10.5c-2.95-4.33-2.85-13.47,0.19-17.73c6.78-9.49,9.58-12.51,19.66-21.2c5.28-4.55,11.12-9.7,12.99-11.46
	c1.87-1.75,3.75-3.06,4.18-2.9c0.43,0.16,3.18,2.57,6.11,5.36c5.95,5.67,12.51,11.49,21.34,18.93c3.27,2.75,8.2,7.05,10.96,9.55
	c5.04,4.56,15.33,13.31,23.6,20.06c6.26,5.12,32.37,24.65,38.38,28.72c2.77,1.88,7.91,4.94,11.41,6.81l6.36,3.4l24.64-0.27
	l24.63-0.27l0.54-9.5c0.3-5.22,1.14-12.43,1.87-16c1.36-6.66,4.85-17.71,6.15-19.5c0.4-0.55,1.44-3.03,2.3-5.5
	c4.1-11.7,5.07-14.12,9.26-23c2.47-5.22,6.6-12.87,9.18-16.99c5.25-8.38,5.21-8.32,10.52-17.15c2.1-3.5,7.37-11.76,11.71-18.36
	c24.89-37.86,34.52-53.84,43.3-71.81c10.02-20.51,12.41-27.72,17.32-52.19c2.41-12.02,2.8-16.34,2.78-30.5
	c-0.03-16.39-0.06-16.61-4.65-34c-6.13-23.19-13.97-40.62-23.95-53.23c-2.93-3.7-7.44-9.55-10.03-13
	c-7.93-10.58-18.6-20.17-33.65-30.24c-24.4-16.34-42.93-24.18-62.65-26.5c-4.4-0.52-10.7-1.46-14-2.1
	c-3.3-0.64-12.97-1.22-21.5-1.29c-15.82-0.14-19.68,0.42-38,5.42c-3.58,0.98-9.42,2.51-13,3.42s-12.13,3.42-19,5.59
	c-6.88,2.17-13.77,4.22-15.31,4.57l-2.81,0.62l0.57-5.88c0.31-3.23,1.49-18.25,2.61-33.37c1.12-15.13,2.47-29.94,3-32.93
	c1.48-8.42,1.13-47.47-0.58-64.93c-2.89-29.53-4.54-39.64-9.38-57.64c-5.58-20.73-9.13-31.15-15.18-44.5
	c-6.08-13.42-16.47-33.34-21.39-41c-2.3-3.58-6.28-9.78-8.84-13.78c-2.57-4.01-4.67-7.52-4.67-7.8s-1.74-3.09-3.86-6.22
	c-2.12-3.13-7.15-11.1-11.18-17.7c-6.11-10.01-22.1-34.98-36.5-57c-3.93-6.01-5.43-8.64-16.05-28.06
	c-4.53-8.28-10.64-19.15-13.57-24.16c-15.77-26.89-18.87-32.52-23.57-42.78c-5.79-12.64-36.32-73.12-42.76-84.74l-4.85-8.74
	l-8.58,0.13c-4.72,0.07-39.4-0.11-77.08-0.42S497.83,532.57,486,533.02 M397.67,594.13c0.2,2.96,0.77,12.74,1.29,21.73
	c0.51,9,1.16,16.59,1.45,16.88c0.86,0.86,8.81,2.17,13.6,2.24c3.21,0.05,6.59,1.18,11.77,3.93l7.27,3.86l2.98-3.61
	c1.64-1.99,2.98-4.04,2.98-4.56c0-0.52,0.63-1.65,1.41-2.52c0.77-0.87,3.27-5.13,5.55-9.47c3.54-6.75,4.1-8.63,3.84-13l-0.3-5.11
	l-5-0.54c-2.75-0.3-6.03-1.11-7.28-1.8s-4.89-2.1-8.09-3.12c-3.2-1.02-9.12-3.52-13.17-5.56c-4.88-2.46-9.26-3.88-13-4.22
	l-5.64-0.51L397.67,594.13 M389.68,794.63c-1.07,3.78-1.72,8.23-3.61,24.87c-1.8,15.82-1.83,18.18-0.51,33.91
	c0.78,9.3,1.64,17.13,1.91,17.39c0.85,0.85,15.5-13.99,23.99-24.3c4.53-5.5,10.12-13.01,12.43-16.68
	c4.81-7.65,10.58-20.64,11.5-25.87c0.62-3.55,0.62-3.55-4.14-4.67c-2.62-0.61-7.46-2.13-10.76-3.36c-4.59-1.71-8.86-2.35-18.14-2.7
	C391.14,792.8,390.17,792.91,389.68,794.63 M486.5,838.72c-2.2,1.43-6.36,4.15-9.24,6.05c-4.95,3.27-17.07,16.54-20.97,22.97
	c-0.98,1.62-3.13,4.93-4.78,7.35c-2.57,3.78-8.82,21.73-7.93,22.77c0.81,0.95,10.54-3.64,15.43-7.27c8-5.94,26-24.13,26-26.27
	c0-0.36,0.7-1.43,1.55-2.37c2.99-3.31,7.13-26.09,4.7-25.89C490.84,836.09,488.7,837.29,486.5,838.72 M510.33,943.59
	c-4.3,4.72-8.13,9.4-8.51,10.4s-1.13,2.09-1.68,2.43s-1.51,2.3-2.14,4.35s-2.64,7.79-4.46,12.74c-3.33,9.05-6.54,19.39-6.54,21.09
	c0,1.39,16.01,0.79,20.03-0.74c1.94-0.74,5.33-3.37,7.53-5.85c3.75-4.22,5.18-6.94,10.27-19.5c1.47-3.61,2.18-4.52,2.59-3.25
	c0.31,0.96,0.8,2.49,1.09,3.39c0.29,0.9,0.81,1.36,1.16,1.01c0.35-0.35-0.16-3.45-1.13-6.89c-0.97-3.44-2.63-9.41-3.67-13.26
	c-3.37-12.37-4.17-14.5-5.46-14.5C518.72,935,514.63,938.86,510.33,943.59 M414.56,943.93c-6.94,7.67-5.73,35.2,1.92,43.45
	c1.94,2.09,2.9,2.48,4.29,1.74c3.37-1.8,25.28-24.54,27.82-28.86c1.73-2.95,2.43-5.45,2.22-7.88l-0.31-3.56l-9.28-0.39
	c-9.59-0.4-18.5-2.41-21.82-4.92C416.92,941.62,416.63,941.65,414.56,943.93 M958.57,1200.5c0.68,42.16,0.78,42.97,5.62,49.78
	c1.24,1.74,3.47,5.74,4.96,8.9c3.55,7.5,7.28,28.95,6.5,37.41c-0.91,9.89-4.64,26.67-6.72,30.23c-1.07,1.82-1.94,3.74-1.94,4.26
	s-1.58,4.24-3.52,8.27l-3.52,7.31l0.27,25.35l0.27,25.35l5.62-7.42c3.09-4.08,6.64-8.55,7.88-9.92c1.24-1.38,4.28-5.65,6.75-9.5
	s5.99-8.85,7.83-11.11c1.83-2.26,4.39-6.09,5.68-8.5c1.29-2.41,3.94-6.87,5.89-9.91c6.75-10.52,16.63-32.18,18.9-41.46
	c2.19-8.94,2.19-9.05,0.45-21c-0.97-6.61-2.46-13.81-3.33-16.01c-1.91-4.86-11.81-18.04-22.15-29.51
	c-7.64-8.47-16.01-19.1-16.01-20.33c0-0.35-1.35-2.84-3.01-5.53c-4.07-6.61-11.18-26.01-13.98-38.14c-0.7-3.03-1.68-6.18-2.18-7
	C958.28,1161.09,958.18,1176.34,958.57,1200.5 M84.98,1613.08c-1.01,3.77-0.91,4.36,1.16,6.57c2.11,2.25,2.89,2.4,10.81,2.14
	l8.54-0.29l1.81-3.85c1-2.12,1.67-4.82,1.5-6c-0.29-2.03-0.91-2.16-11.51-2.43l-11.2-0.28L84.98,1613.08 M45,1617.13
	c-3.03,1.63-7.36,4.65-9.64,6.7c-3.39,3.07-4.35,4.77-5.33,9.48c-2.06,9.94,0.19,21.89,5.22,27.68c0.72,0.82,4.07,2.96,7.45,4.75
	c5.53,2.92,7,3.25,14.55,3.25c8.79,0,10.41-0.48,8.67-2.58c-1.33-1.6-6.94-18.01-6.94-20.29c0-0.94-0.61-4.17-1.35-7.17
	c-0.74-3-2.41-9.85-3.72-15.21s-2.61-9.71-2.9-9.66C50.74,1614.14,48.03,1615.51,45,1617.13"/>
<path class="st0" d="M420,2.69c-2.48,1.56-7.65,3.89-11.5,5.16c-3.85,1.28-7.9,2.72-9,3.21c-1.1,0.49-3.13,1.35-4.5,1.93
	c-5.61,2.32-30.67,19.03-35.97,23.98c-1.78,1.66-3.47,3.03-3.74,3.03c-0.88,0-10.61,8.3-15.28,13.05
	c-6.45,6.54-17.77,16.5-27.79,24.45c-2.37,1.88-12.1,11.04-27.28,25.66c-7.44,7.17-16.29,18.02-23.12,28.34
	c-5.56,8.4-14.81,25.92-14.81,28.05c0,0.83-1.13,3.74-2.5,6.45s-2.5,5.55-2.5,6.31s-0.66,2.7-1.46,4.32
	c-0.81,1.61-2.27,5.85-3.25,9.4c-1.56,5.64-1.76,10.38-1.59,36.97c0.2,32.36,0.38,33.98,6.3,56.5c2.17,8.25,2.7,10.14,5.46,19.5
	c0.9,3.02,2.03,7.04,2.52,8.92c0.49,1.88,1.55,4.8,2.35,6.5c8.15,17.25,10.61,22.17,14.53,29.08c15.8,27.87,28.18,41.37,54.07,58.96
	c8.4,5.71,13.41,8.19,23.08,11.47c3.58,1.21,7.4,2.6,8.5,3.09c3.86,1.73,23.44,4.12,35.16,4.3c12.17,0.18,25.79-1.38,32.84-3.78
	c2.2-0.75,6.42-1.91,9.38-2.58c7.56-1.71,21.15-7.35,28.5-11.81c3.42-2.08,6.98-4.07,7.91-4.43c0.93-0.36,5.79-3.48,10.79-6.93
	c5.01-3.46,9.85-6.73,10.76-7.28c0.91-0.55,1.88-1.25,2.16-1.55c0.27-0.3,2.08-1.61,4-2.92c4.07-2.76,22.67-21.34,28.5-28.48
	c2.2-2.7,6.58-8.06,9.73-11.93c3.15-3.86,7.31-9.97,9.24-13.58c1.93-3.6,4.19-7.68,5.02-9.05c0.83-1.38,1.96-3.63,2.51-5
	c0.99-2.48,1.87-4.01,5.25-9.15c3.7-5.62,2.03-6.15-5.46-1.71c-6.82,4.04-9.57,5.59-19.29,10.84c-4.4,2.38-9.19,5.15-10.65,6.17
	c-1.46,1.02-3.09,1.85-3.63,1.85c-0.54,0-1.53,0.67-2.2,1.48c-0.68,0.81-2.42,2.09-3.87,2.84c-1.45,0.75-4.44,2.4-6.64,3.67
	s-8.73,4.78-14.5,7.79s-10.95,5.81-11.5,6.22c-1.73,1.29-11.65,6.58-21.5,11.47c-5.23,2.6-10.63,5.38-12,6.18
	c-1.38,0.8-4.08,2.12-6,2.93c-1.92,0.81-4.28,1.91-5.24,2.45c-0.96,0.54-2.33,0.98-3.06,0.98c-0.73,0-3.1,0.85-5.26,1.88
	c-3.55,1.7-20.7,3.93-25.7,3.35c-0.97-0.11-5.93-0.59-11.03-1.06c-7.46-0.69-10.79-1.57-17.08-4.51c-4.3-2.01-8.02-3.66-8.28-3.66
	c-1.62,0-13.73-9.29-18.16-13.93c-5.04-5.28-6.5-7.53-11.72-18.07c-6.36-12.83-6.38-12.93-13.42-43.5
	c-2.66-11.55-3.32-20.4-2.8-37.29c0.3-9.74,1.06-20.41,1.68-23.71c6.58-34.91,7.88-39.98,13.22-51.5
	c6.77-14.61,24.14-49.25,27.33-54.5c1.34-2.2,2.45-4.79,2.47-5.75c0.02-0.96,0.42-1.75,0.89-1.75c0.85,0,10.15-17.49,10.15-19.09
	c0-0.47-0.78-0.55-1.74-0.18c-1.67,0.64,0.66-2.78,7.69-11.32c1.4-1.7,3.22-4.13,4.05-5.41c2.89-4.46,9.61-12.18,19.04-21.86
	c6.21-6.37,21.5-18.45,30.82-24.33c10.45-6.6,15.76-8.6,26.14-9.88c4.13-0.51,10.65-1.42,14.5-2.04c3.85-0.61,12.63-1.45,19.5-1.85
	c6.88-0.41,17.67-1.47,24-2.37c6.33-0.89,12.17-1.57,13-1.49c4.32,0.38,5.85-0.32,6.82-3.11c0.56-1.61,2.18-3.69,3.6-4.62
	c1.42-0.93,2.58-2.12,2.58-2.64c0-0.59-19.37-0.83-51.25-0.63c-28.19,0.17-54.4-0.06-58.25-0.51C424.84-0.11,424.28-0.01,420,2.69
	 M768,221.01c-13.47,0.34-25.85,1.1-27.5,1.69c-7.17,2.59-13.25,4.5-16.55,5.2c-1.95,0.41-7.8,2.87-13,5.47
	c-8.5,4.24-13.08,7.29-21,13.97c-1.4,1.18-5.45,4.13-9,6.54c-3.55,2.41-7.35,5.23-8.45,6.25c-1.1,1.02-4.28,3.61-7.08,5.75
	c-2.79,2.14-9.27,8.77-14.4,14.75c-5.13,5.98-10.07,11.54-10.97,12.36c-0.9,0.83-2.97,3.52-4.6,6s-3.45,4.95-4.06,5.5
	c-0.61,0.55-2.61,3.25-4.44,6c-1.83,2.75-3.69,5.15-4.14,5.33c-0.44,0.18-0.81,0.8-0.81,1.37c0,0.57-1.68,3.79-3.75,7.17
	c-5.14,8.42-10.02,18.74-17.16,36.33c-2.18,5.38-5.1,27.96-5.1,39.49c0,7.78,3.22,20.39,7.6,29.81c3.16,6.79,4.17,7.98,10.69,12.59
	c8.2,5.79,9.94,6.52,21.7,9.05c12.17,2.62,49.18,2.61,63.5-0.01c17.21-3.16,34.4-7.82,43.28-11.74c2.35-1.04,4.95-1.89,5.76-1.89
	c0.82,0,2.27-0.39,3.22-0.88c2.3-1.16,8.59-3.12,10.02-3.12c0.63,0,3.97-1.8,7.43-3.99c3.46-2.2,6.85-3.99,7.54-4
	c0.69-0.01,1.25-0.35,1.25-0.77c0-0.42,1.46-1.38,3.25-2.15c1.79-0.77,7.44-4.55,12.57-8.4c6.89-5.18,10.07-8.33,12.2-12.1
	c1.59-2.8,3.58-5.98,4.43-7.05c0.85-1.08,1.55-2.52,1.55-3.22c0-0.7,0.98-3.3,2.19-5.77c1.2-2.48,1.86-4.83,1.46-5.23
	c-0.4-0.4-2.17-0.15-3.94,0.55c-4.1,1.63-8.2,3.04-24.21,8.27c-7.15,2.34-14.13,4.83-15.5,5.55c-1.38,0.72-3.11,1.3-3.85,1.31
	c-0.74,0-2.54,0.65-4,1.43c-1.46,0.78-5.35,2.42-8.65,3.64c-3.3,1.22-7.8,3.03-10,4.03c-12.18,5.53-28,10.44-46,14.25
	c-6.25,1.33-22.18,1.32-34-0.02c-7.4-0.84-10.2-1.68-15.73-4.75C636.65,408.3,631,397.08,631,378.31c0-16.3,4.59-28.83,13.7-37.43
	c4.5-4.25,19.33-14.87,20.76-14.87c0.34,0,1.74-0.74,3.12-1.64c1.38-0.9,3.99-1.77,5.81-1.94c1.82-0.16,7.46-1.49,12.54-2.95
	c13.87-3.99,32.97-7.83,51.57-10.36c12.1-1.65,36.54-4.99,40.5-5.54c11.03-1.53,23.9-4.37,27.14-5.99c1.56-0.78,4.3-1.73,6.1-2.12
	c1.79-0.39,6.64-2.31,10.76-4.27c12.58-5.98,20.09-12.71,25.32-22.68c3.04-5.79,3.15-6.43,3.16-18.5c0.01-13.07-0.1-13.53-6.22-24.5
	c-0.61-1.1-1.36-2.79-1.66-3.75c-0.5-1.61-2.52-1.73-25.82-1.55C803.88,220.31,781.47,220.68,768,221.01 M765.5,256.95l-15,0.55
	l-6.02,3.68c-3.31,2.02-7.09,4.61-8.4,5.75c-1.31,1.14-2.65,2.08-2.98,2.08c-0.33,0.01-4.42,3.72-9.1,8.25l-8.5,8.24l31.81,0.26
	c27.11,0.23,32.03,0.04,33.3-1.23c0.82-0.82,2.26-2.06,3.19-2.76c1.56-1.17,7.2-11.51,7.2-13.2c0-0.4,1.58-3.1,3.5-6
	c1.92-2.9,3.5-5.56,3.5-5.92C798,255.97,790.27,256.04,765.5,256.95 M989.25,299.11c-2.89,1.68-5.25,3.47-5.25,3.98
	c0,0.5-0.61,0.92-1.35,0.92c-1.35,0-14.18,10.27-18.39,14.72c-1.23,1.3-4.82,5.61-7.96,9.57c-3.15,3.97-6.19,7.7-6.76,8.3
	c-0.57,0.6-3.51,3.95-6.54,7.44c-4.98,5.74-7.72,8.79-17.93,19.97c-2.95,3.23-8.73,10.64-13.57,17.42c-1.1,1.54-2.46,3.31-3.03,3.94
	c-0.56,0.63-3.23,4.06-5.92,7.64c-6.7,8.9-10.95,14.4-11.59,15c-2.84,2.64-29.98,37.89-30.77,39.95c-0.33,0.85-0.97,2-1.43,2.55
	c-0.78,0.94-8.04,11.8-10.28,15.38c-2.5,4.01-5.04,7.71-5.97,8.7c-0.56,0.59-2.02,2.39-3.25,4c-1.23,1.61-4.32,5.63-6.86,8.93
	c-6.04,7.83-7.4,11.2-7.4,18.33c0,6.9,2.22,10.52,7.9,12.9c1.96,0.82,4.65,2.34,5.97,3.38c2.12,1.67,4.22,1.89,18.13,1.89h15.73
	l10.89-5.68c5.99-3.12,15.84-8.27,21.89-11.44c13.06-6.84,23.25-12.15,41.5-21.63c7.42-3.86,16.2-8.47,19.5-10.25
	c9.38-5.05,20.35-10.54,28-14.01c3.85-1.75,9.29-4.26,12.1-5.59c8.67-4.1,8.89-3.44,2.87,8.59c-7.22,14.4-15.47,31.61-15.47,32.27
	c0,0.38-1.84,4.64-4.1,9.46c-2.25,4.82-4.47,9.67-4.93,10.77c-0.46,1.1-2.41,5.6-4.33,10c-1.92,4.4-5.79,14.3-8.58,22
	c-7.54,20.77-7.89,31.59-1.48,46.07c1.25,2.82,2.88,5.76,3.64,6.53c0.75,0.77,2.07,2.41,2.92,3.64c1.97,2.85,12.4,14.63,16.53,18.67
	c4.89,4.78,7.29,6.81,14.84,12.51c3.85,2.91,8.73,7.26,10.85,9.68c3.81,4.33,12.42,10.51,22.15,15.9
	c12,6.65,27.72,14.49,29.05,14.49c0.8,0,1.45,0.35,1.45,0.78s2.14,1.41,4.75,2.17c2.61,0.77,6.1,2.14,7.75,3.05
	c1.65,0.91,9.07,4.01,16.5,6.88s15.7,6.1,18.38,7.17c2.69,1.07,5.63,1.94,6.55,1.94c0.92,0,2.09,0.4,2.62,0.89
	c0.52,0.49,4.32,1.91,8.45,3.17s7.95,2.59,8.5,2.96c2.58,1.76,14.89,4.98,23,6.03c4.95,0.64,10.31,1.56,11.9,2.06
	c1.59,0.5,4.18,0.9,5.75,0.9s2.85,0.47,2.85,1.05c0,0.58-1.61,3.57-3.58,6.64c-1.97,3.08-4,6.54-4.52,7.7
	c-0.52,1.16-1.82,3.46-2.89,5.11c-2.33,3.57-4.93,7.96-9.35,15.74c-1.79,3.16-3.8,6.29-4.46,6.95c-0.66,0.66-1.2,1.69-1.2,2.27
	c0,0.59-1.13,2.72-2.5,4.75c-1.38,2.02-2.5,4.58-2.5,5.67s-0.41,2.25-0.91,2.56c-1.51,0.93-9.16,16.42-10.74,21.75
	c-1.9,6.4-0.52,13.53,3.64,18.79c1.63,2.05,2.63,4.09,2.23,4.53c-0.4,0.44-0.09,0.43,0.68-0.01c0.86-0.5,1.82-0.26,2.5,0.63
	c0.6,0.79,2.57,2.47,4.36,3.73c1.79,1.26,3.03,2.67,2.74,3.13c-0.29,0.46-0.17,0.99,0.26,1.17c0.43,0.18,2.48,2.81,4.55,5.84
	c5.83,8.49,8.6,12.28,10.96,15c2.57,2.97,3.95,12.45,3.14,21.5c-0.43,4.78-0.02,7.59,2.02,13.78c1.41,4.28,2.57,8.74,2.57,9.9
	c0,3.35,6.48,14.06,10.16,16.8c1.84,1.37,6.26,4.48,9.84,6.92s6.72,4.7,7,5.02c0.28,0.32,5,2.79,10.49,5.49
	c17.18,8.44,52.2,20.19,70.01,23.49c6.6,1.22,14.36,2.71,17.25,3.32c3.9,0.81,5.91,0.79,7.8-0.07c1.4-0.64,3.9-1.16,5.55-1.16
	c4.8,0,18.68-7.92,17.43-9.94c-1.58-2.56-21.71-10.78-29.54-12.06c-2.47-0.4-6.75-1.42-9.5-2.26c-7.44-2.27-17.38-4.78-22.79-5.76
	c-2.63-0.48-6.19-1.57-7.9-2.42c-1.71-0.86-3.83-1.55-4.71-1.55c-6.89,0-30.7-14.81-43.42-27l-7.83-7.5l-0.97-8.01
	c-1.16-9.61,0.56-18.79,4.46-23.79c6.05-7.77,8.42-9.54,18.86-14.09c9.41-4.11,11.93-4.77,21-5.52c14.83-1.23,51.32,0.2,61.81,2.42
	c9.69,2.05,22.4,5.7,27.23,7.82c1.8,0.79,4.85,1.99,6.77,2.66s4.63,1.68,6,2.25s3.4,1.41,4.5,1.86c1.1,0.46,4.47,1.59,7.5,2.51
	c3.03,0.93,7.88,2.74,10.78,4.04c2.9,1.3,5.72,2.36,6.26,2.36s1.77,0.42,2.72,0.92c0.95,0.51,6.69,2.84,12.74,5.18
	s14.15,5.77,18,7.6c6.56,3.13,7.44,3.3,13.95,2.67c4.66-0.45,7.61-1.29,8.94-2.53c1.09-1.02,2.56-1.85,3.26-1.85
	c1.3,0,3.35-3.01,3.35-4.92c0-2.72-18.23-19.14-29.56-26.62c-12.37-8.17-13.5-8.87-21.36-13.24c-2.52-1.4-8.12-4.76-12.45-7.47
	c-4.33-2.71-9.73-5.52-12-6.26c-2.27-0.73-7.95-2.74-12.62-4.47c-4.68-1.73-12.55-4.21-17.5-5.51c-4.95-1.3-11-3.09-13.44-3.96
	c-5.55-1.99-16-4.58-22.56-5.59c-2.75-0.42-7.93-1.27-11.5-1.88c-12.82-2.18-39-3-64.5-2.02c-13.75,0.53-26.91,1.23-29.25,1.56
	l-4.25,0.59l0.02-6.36c0.04-11.42,0.78-12.9,12.22-24.64c16.01-16.43,22.08-22.96,29.92-32.21c3.96-4.67,7.69-9.01,8.27-9.63
	c0.58-0.62,6.01-7.09,12.06-14.36c6.05-7.28,13.19-15.77,15.86-18.87c4.66-5.41,20.02-27.23,26.02-36.97
	c1.93-3.14,3.21-7.01,3.88-11.79c0.95-6.68,0.85-7.47-1.61-12.84c-2.99-6.53-11.29-17.4-15.39-20.15
	c-3.06-2.05-4.34-2.78-12.06-6.85l-5.29-2.79l-34.64,0.19c-19.05,0.1-35.01,0.41-35.46,0.69c-0.45,0.28-0.81,3.15-0.81,6.38
	c0,6.31-0.84,9.16-3.76,12.82l-1.85,2.32l-11.71-5.57c-6.44-3.06-11.93-5.57-12.21-5.57c-0.27,0-2.4-0.87-4.74-1.94
	c-6.2-2.84-25.45-9.09-31.24-10.13c-2.75-0.5-9.28-1.85-14.5-3.01c-5.22-1.16-13.55-2.99-18.5-4.07c-4.95-1.08-13.28-2.9-18.5-4.05
	c-12.66-2.79-29.04-2.82-42-0.09c-5.22,1.1-10.77,2.52-12.31,3.15c-1.55,0.63-6.62,1.15-11.27,1.15c-8.05,0-8.51,0.12-9.6,2.5
	c-3.6,7.91-2.99-5.14,0.76-16.33c3.42-10.18,11.12-27.77,14.31-32.69c4.34-6.69,4.97-7.76,8.19-13.88
	c3.32-6.32,23.26-33.76,31.17-42.89c0.96-1.11,1.76-2.29,1.78-2.62c0.01-0.33,1.82-2.62,4.01-5.1c5.48-6.19,5.51-6.23,7.9-10.61
	c5.33-9.78,6.92-12.41,17.21-28.39c7.51-11.66,19.18-35.98,21.74-45.32c3.54-12.9,5.73-11.69-21.14-11.66l-23.25,0.03l-6.44,6.97
	c-3.54,3.83-6.79,6.97-7.22,6.97c-0.64,0-20.22,15.21-21.85,16.98c-0.78,0.84-9.21,6.33-12,7.81c-1.38,0.73-4.16,2.65-6.19,4.27
	c-2.03,1.62-4.17,2.95-4.75,2.95c-0.58,0-1.06,0.45-1.06,1s-0.45,1-0.99,1c-0.92,0-8.21,3.52-28.51,13.77
	c-9.9,5-21.3,10.23-22.3,10.23c-0.41,0-1.87,0.79-3.22,1.74c-2.39,1.68-10.36,4.94-14.47,5.9c-3.16,0.74-15.8,4.57-18,5.46
	c-7.71,3.09-17.01,4.9-25.23,4.9c-12.83,0-13-0.67-2.97-11.14c7.65-7.98,21.77-23.08,38.16-40.83c3.83-4.15,9.5-10.24,12.61-13.54
	c3.1-3.3,7.84-8.51,10.54-11.59c2.69-3.07,7.5-8.56,10.68-12.2c10.98-12.54,26.77-34.13,31.09-42.48
	c2.71-5.24,2.94-12.02,0.72-21.44c-1.84-7.79-7.09-18.84-8.93-18.78C994.8,296.03,992.14,297.42,989.25,299.11 M511,531.61
	c1.38,0.17,29.95,0.44,63.5,0.6c33.55,0.16,56.05,0.01,50-0.33C613.64,531.26,506.16,531.01,511,531.61 M482.3,532.74
	c4.84,0.18,12.49,0.18,17,0c4.51-0.18,0.55-0.33-8.8-0.33S477.46,532.56,482.3,532.74 M1355.58,563.03
	c-5.45,0.48-10.61,1.15-11.47,1.47c-0.85,0.33-4.74,1-8.64,1.49c-3.9,0.49-8.32,1.37-9.82,1.94c-2.44,0.93-2.61,1.28-1.56,3.24
	c3.96,7.41,12.4,14.65,25.41,21.81c12.28,6.76,16.11,8.62,20.5,9.93c2.47,0.74,6.02,2.01,7.87,2.82c10.9,4.77,19.32,6.27,35.24,6.27
	c14.2,0,15.31-0.14,20.41-2.64c8.98-4.4,9.04-4.54,10.93-24.21c0.92-9.55,1.48-17.54,1.25-17.78c-0.23-0.23-6.44-0.89-13.81-1.47
	c-7.36-0.58-18.34-1.47-24.39-1.97C1390.26,562.48,1366.44,562.07,1355.58,563.03 M623.38,617.75c-2.67,3.16-6.89,8.04-9.37,10.84
	c-4.26,4.8-4.21,4.77,0.99-0.53c5.98-6.11,14.47-16.05,13.72-16.05C628.46,612,626.06,614.59,623.38,617.75 M1130.22,618.08
	c-3.46,0.45-7.69,1.51-9.4,2.36c-1.72,0.86-3.64,1.56-4.28,1.56c-0.64,0-3.49,1.13-6.34,2.5s-5.34,2.5-5.54,2.5
	c-0.89,0-23.67,15.7-27.91,19.23c-5.26,4.38-5.67,5.69-2.81,9.01c1.07,1.24,2.88,3.38,4.02,4.76c3.86,4.64,11.23,12,12.02,12
	c0.43,0,1.37,0.71,2.09,1.57c2.04,2.46,8.79,5.69,16.44,7.86c6.15,1.75,10.71,2.03,37.5,2.32c26.19,0.28,31.28,0.1,36-1.33
	c5.62-1.7,17.1-6.41,18-7.39c0.28-0.3,2.09-1.73,4.03-3.17c5.22-3.89,11.56-13.66,12.38-19.09l0.69-4.57l-5.8-3.31
	c-3.19-1.82-7.36-4.37-9.28-5.66c-1.92-1.29-4.84-2.95-6.5-3.67c-1.66-0.72-4.59-2-6.52-2.83c-1.93-0.83-5.53-2.41-8-3.49
	c-2.47-1.09-6.53-2.86-9-3.94C1157.82,619.12,1142.57,616.49,1130.22,618.08 M602.94,640.75c-3.02,3.16-8.8,9.58-12.85,14.25
	c-6.83,7.89-3.07,4.35,6.38-6c2.26-2.47,6.06-6.64,8.45-9.25C611,633.08,609.56,633.82,602.94,640.75 M327.36,669.5
	c0,5.5,0.17,7.62,0.37,4.72c0.2-2.91,0.2-7.41,0-10C327.53,661.62,327.36,664,327.36,669.5 M633.17,716.5
	c-0.12,3.19-1.08,6.55-2.64,9.29c-1.35,2.36-2.01,4.01-1.47,3.68c2.52-1.55,5.04-8.72,4.68-13.28l-0.37-4.69L633.17,716.5
	 M607.36,750.25c-9.19,9.55-12.63,14.25-12.06,16.45c0.43,1.64,0.48,1.63,0.58-0.11c0.15-2.51,3.94-7.46,12.48-16.34
	c3.84-3.99,6.75-7.25,6.47-7.25C614.56,743,611.2,746.26,607.36,750.25 M335.12,781.58c0.07,4.9,0.46,12.07,0.87,15.92
	c0.46,4.27,0.55,0.96,0.24-8.5C335.69,772.2,334.92,767.11,335.12,781.58 M601.88,824.75c-2.5,2.61-6.24,7-8.32,9.75l-3.77,5
	l3.85-4.49c2.12-2.47,6.06-6.86,8.75-9.75c2.69-2.89,4.7-5.26,4.46-5.26C606.62,820,604.38,822.14,601.88,824.75 M408.08,849.4
	c-3.86,4.62-8.04,9.26-9.3,10.3c-1.26,1.05-3.85,3.68-5.77,5.85c-1.92,2.17-0.21,0.79,3.8-3.06c6.92-6.65,19.91-21.5,18.8-21.5
	C415.33,841,411.94,844.78,408.08,849.4 M342.36,885.5c0,5.5,0.17,7.62,0.37,4.72c0.2-2.91,0.2-7.41,0-10
	C342.53,877.62,342.36,880,342.36,885.5 M510.33,943.58c-4.3,4.72-8,9.07-8.22,9.67c-0.21,0.6,3.12-2.85,7.4-7.67
	c4.29-4.82,8.74-9.14,9.89-9.61c1.6-0.65,1.7-0.86,0.42-0.91C518.9,935.03,514.63,938.86,510.33,943.58 M1429.67,951.67
	c-1.12,1.12-0.74,4.78,0.71,6.86c2.84,4.06,7.49,13.34,8.47,16.91c1.33,4.82-0.18,14.32-2.61,16.47c-1,0.88-3.27,2.64-5.05,3.9
	l-3.24,2.3l-53.72-0.03c-41.35-0.02-55.68,0.3-62.22,1.37c-8.97,1.47-16.93,2.84-27.25,4.66c-3.44,0.61-8.52,1.41-11.3,1.78
	c-2.91,0.39-9.06,2.68-14.5,5.4c-9.55,4.78-12.05,7.23-17.04,16.71c-2.14,4.07-1.61,19.64,0.84,24.71
	c2.72,5.63,15.59,19.6,21.71,23.57c7.49,4.86,8.52,5.43,15.54,8.72c3.57,1.67,7.4,3.58,8.5,4.22c5.07,2.99,17.7,8.76,24.5,11.2
	c10.66,3.83,23.81,9.2,30.34,12.4l5.6,2.74l-4.72,1.35c-2.59,0.74-5.17,1.68-5.72,2.08s-4.26,1.75-8.25,2.99
	c-3.99,1.24-7.25,2.65-7.25,3.12c0,0.47-0.82,0.86-1.82,0.86c-6.59,0-46.75,27.53-54.3,37.22c-1.83,2.35-3.59,4.51-3.91,4.78
	c-0.32,0.28-2.47,3.42-4.78,6.99c-3.78,5.85-4.2,7.1-4.2,12.7c0,14.76,3.89,21.07,16.56,26.93c4.02,1.86,7.7,3.38,8.18,3.38
	c0.48,0,2.95-3.49,5.5-7.75c8.07-13.53,15.32-22.34,25.7-31.25c2.89-2.47,5.88-5.09,6.64-5.81c0.77-0.72,5.56-3.03,10.65-5.13
	c5.09-2.1,11.38-4.75,13.97-5.88c2.59-1.14,11.37-3.42,19.5-5.06c15.62-3.16,44.25-5.13,74.22-5.12c7.39,0,17.51-0.46,22.5-1.02
	c21.45-2.43,33.88-4.42,35.08-5.63c1.39-1.39,3.16-21.15,2.14-23.82c-0.32-0.84-1.73-1.53-3.13-1.53c-1.4,0-3.33-0.42-4.28-0.93
	c-0.95-0.51-3.89-1.52-6.52-2.23c-3.83-1.04-4.89-1.8-5.31-3.82c-1.13-5.48-1.06-5.46-18.68-6.52c-9.11-0.55-16.91-1.34-17.31-1.75
	c-0.41-0.41-1.68-0.74-2.82-0.72c-1.74,0.03-12.16-2.33-31.58-7.14c-10.13-2.51-24.42-5.84-31.5-7.35c-16.5-3.51-19.6-4.42-29-8.53
	c-4.43-1.94-13.67-5.02-15.05-5.02c-1.45,0-3.92-1.04-17.95-7.53c-3.85-1.78-7.68-3.54-8.5-3.9c-7.06-3.13-19-10.82-19-12.23
	c0-2.55,8.08-11.15,14.11-15.01l6.39-4.09l83.25-0.6l83.25-0.6l4.75-2.45c7.89-4.06,14.2-11.04,15.92-17.58
	c1.02-3.86,0.94-4.84-0.49-6.9c-3.29-4.71-5.4-8.59-5.76-10.6c-0.51-2.84-21.35-23.72-30.97-31.04
	c-10.13-7.71-12.36-9.09-17.63-10.93C1432,950.85,1430.64,950.69,1429.67,951.67 M875.38,992c0,6.33,0.16,8.91,0.36,5.75
	s0.2-8.34,0-11.5S875.38,985.67,875.38,992 M688.31,1059.75c0.34,17.46,1.09,64.6,1.67,104.75c0.58,40.15,1.32,82.56,1.65,94.24
	l0.59,21.24l81.14,0.26l81.14,0.26v13c0,7.15-0.17,13.59-0.38,14.31c-0.21,0.72-1.33,1.23-2.5,1.14
	c-1.17-0.09-37.33-0.12-80.37-0.05L693,1309l0.04,115.75l0.05,115.75l5.2,4.44l5.21,4.43l-3.95-4.18l-3.95-4.19h40.7
	c27.98,0,40.7,0.33,40.7,1.06c0,0.61,0.53,0.72,1.25,0.25c0.69-0.44,4.4-0.83,8.25-0.86c3.85-0.03,19.54-0.14,34.86-0.25l27.86-0.2
	l-0.46-2.75c-0.65-3.86-1.18-5.67-1.81-6.25c-0.3-0.28-2.61-3.2-5.14-6.5c-2.52-3.3-9.93-11.22-16.45-17.59
	c-6.52-6.38-12.43-12.45-13.13-13.5c-1.14-1.7-1.16-1.67-0.21,0.34c1.18,2.53,0.77,2.87-1.19,0.99c-0.73-0.7-3.35-2.83-5.82-4.74
	c-2.47-1.91-4.65-3.82-4.83-4.24c-0.18-0.42-0.71-0.76-1.18-0.76c-0.47,0-3.56-1.8-6.87-4s-6.49-4-7.07-4
	c-0.58,0-1.05-0.42-1.05-0.93c0-0.51-0.84-1.2-1.87-1.53c-1.77-0.56-1.91-2.81-2.66-41.32c-0.44-22.4-0.83-42.3-0.88-44.22
	l-0.09-3.5l43.25-0.5l43.25-0.5l0.21,12l0.21,12l0.32-11.75c0.17-6.46,0.5-11.75,0.72-11.75c1.04,0,12.87,6.91,20.53,11.99
	c14.89,9.88,20.47,13.49,21.5,13.91c0.55,0.22,4.92,3.04,9.71,6.25c4.79,3.21,9.11,5.84,9.6,5.84s1.7,0.9,2.69,2
	c1.85,2.05,5.07,2.69,5.67,1.13c0.18-0.48,4.21-5.09,8.94-10.25c11.62-12.66,14.9-16.5,14.9-17.43c0-0.43,0.79-1.72,1.75-2.85
	c1.67-1.96,1.67-2,0-0.71c-1.66,1.28-1.75-0.04-1.75-24.71c0-16.3,0.38-26.3,1-26.68c0.55-0.34,0.99-1.15,0.98-1.81
	c-0.01-0.73-0.38-0.62-0.95,0.28c-0.51,0.81-1.14,1.26-1.4,1c-0.43-0.43-0.93-98.48-0.52-101.97c0.1-0.82-0.14-19.5-0.53-41.5
	c-0.49-27.79-0.39-39.54,0.34-38.5c0.64,0.92,1.05,1.04,1.06,0.31c0.01-0.65-0.46-1.49-1.05-1.85c-0.62-0.38-1.01-3.85-0.93-8.31
	c0.18-10.3,0.2-10.15-1.54-10.15c-4.72,0-28.97,10.66-36.59,16.09c-1.48,1.05-3.14,1.91-3.7,1.91s-1.16,0.36-1.35,0.81
	c-0.18,0.45-2.58,2.33-5.33,4.19c-8.59,5.8-23.65,18.36-32.27,26.89l-8.27,8.19l-45.48-0.29L778,1199.5v-24.05
	c0-17.85,0.32-24.4,1.25-25.4c1-1.08,1-1.2,0-0.64c-0.98,0.55-1.24-3.33-1.2-18.1l0.05-18.81l8.02-6.5c4.41-3.57,8.78-7.18,9.7-8
	c0.92-0.82,4.15-3.53,7.16-6c3.02-2.47,6.58-5.4,7.92-6.5c1.34-1.1,3.18-2.68,4.08-3.5c0.9-0.82,3.64-3.05,6.08-4.95
	c2.44-1.9,5.42-4.37,6.63-5.5c1.21-1.13,2.56-2.09,3-2.15c0.44-0.05,4.16-3.32,8.26-7.26l7.45-7.17l-4.95-5.22
	c-2.72-2.87-5.52-5.59-6.2-6.04c-0.69-0.45-1.25-1.47-1.25-2.27c0-0.8-0.42-1.45-0.93-1.45s-3.51-2.7-6.65-6l-5.72-6h-66.5h-66.5
	L688.31,1059.75 M941,1083.97c-1.92,0.39,1.67,0.49,8,0.23s11.69-0.64,11.92-0.84C961.66,1082.72,944.62,1083.24,941,1083.97
	 M496,1130.5c4.65,4.68,8.68,8.5,8.96,8.5s-3.3-3.82-7.96-8.5s-8.68-8.5-8.96-8.5S491.35,1125.82,496,1130.5 M1070.28,1126.01
	c2.51,2.21,7.61,7.27,11.33,11.25c3.72,3.98,5.83,5.89,4.68,4.24c-2.46-3.52-18.69-19.5-19.8-19.5
	C1066.06,1122,1067.77,1123.81,1070.28,1126.01 M803.66,1124.83c-0.91,1.01-1.66,2.13-1.66,2.49c0,0.69-1.21,2.28-7,9.2
	c-1.92,2.3-0.91,1.45,2.25-1.9s5.75-6.51,5.75-7.03c0-0.52,0.74-1.77,1.66-2.77c0.91-1.01,1.43-1.83,1.15-1.83
	S804.57,1123.82,803.66,1124.83 M545.86,1137.25c3.43,5.43,11.56,15.62,12.89,16.17c0.69,0.28-1.12-2.28-4.02-5.7
	c-2.9-3.42-6.31-7.91-7.58-9.97c-1.27-2.06-2.54-3.75-2.83-3.75S544.73,1135.46,545.86,1137.25 M510.21,1200.9
	c1.52,2.18,17.79,17.61,17.79,16.88c0-0.21-4.34-4.59-9.65-9.72C513.04,1202.93,509.38,1199.71,510.21,1200.9 M985.88,1223.5
	c1.69,2.2,5.6,6.7,8.7,10l5.63,6l-5.35-6.34c-2.95-3.49-6.86-7.99-8.7-10l-3.34-3.66L985.88,1223.5 M1268.76,1226.01
	c-8.33,0.81-22.18,5.99-28.76,10.75c-4,2.9-24,23.18-24,24.34c0,0.42-1.8,3.47-4,6.79s-4,6.27-4,6.57c0,0.3-0.93,1.48-2.06,2.61
	c-4.35,4.35-0.92,5.31,10.56,2.95c3.3-0.68,8.25-1.61,11-2.08c2.75-0.47,7.47-1.34,10.5-1.93c19.48-3.83,107.67-7.03,130-4.72
	c12.87,1.33,26.98,2.61,41,3.72c21.49,1.7,36.74,2.99,47.5,4.02c5.5,0.52,16.07,1.42,23.5,1.98c7.43,0.57,18.68,1.46,25,1.98
	c6.32,0.53,17.35,1.41,24.5,1.96c7.15,0.55,19.56,1.54,27.58,2.18c17.04,1.37,23.77,0.65,44.92-4.81
	c7.43-1.92,15.44-3.89,17.82-4.38c2.37-0.49,4.82-1.21,5.44-1.59c0.62-0.38,5.2-0.95,10.18-1.27l9.06-0.57l0.93-3.14
	c0.51-1.73,2.18-3.88,3.71-4.79c5.27-3.11,5.76-4.13,5.55-11.56c-0.28-10.06-0.63-10.29-17.44-11.17c-7.56-0.4-21.4-1.23-30.75-1.85
	c-9.35-0.62-26.45-1.51-38-1.97c-19.75-0.8-34.28-1.6-75-4.14c-9.35-0.58-27.13-1.46-39.5-1.94c-12.38-0.49-28.8-1.31-36.5-1.83
	c-7.7-0.52-27.05-1.64-43-2.49c-15.95-0.85-35.07-2-42.5-2.56C1313.57,1225.68,1278.19,1225.09,1268.76,1226.01 M478.5,1273
	c5.48,5.5,10.19,10,10.46,10s-3.98-4.5-9.46-10s-10.19-10-10.46-10S473.02,1267.5,478.5,1273 M667.58,1293.07
	c0.33,1.89,0.86,4.1,1.19,4.93c0.33,0.82,0.88,8.47,1.23,17l0.64,15.5l0.18-13c0.11-8.13-0.36-15.57-1.25-19.85
	C668.09,1290.59,666.51,1286.97,667.58,1293.07 M1274,1310.03c-4.68,0.45-10.53,1.31-13,1.92s-6.27,1.38-8.43,1.73
	s-5.76,1.86-8,3.37c-2.24,1.5-6.54,4.06-9.57,5.69c-12.03,6.46-22.73,28.35-21.69,44.4c0.7,10.88,3.47,21.1,7.94,29.36
	c5.77,10.65,7.32,13.2,8.77,14.5c0.93,0.82,2.47,3.03,3.44,4.91c2.32,4.5,2.26,4.44,15.54,17.74
	c21.04,21.08,34.07,30.86,51.12,38.36c5.16,2.27,10.28,4.53,11.38,5.03c16.04,7.2,22.64,8.93,34.1,8.95
	c7.57,0.01,14.4-1.33,14.4-2.84c0-0.36,1.46-1.29,3.25-2.07c1.79-0.78,6.11-3.14,9.6-5.24c3.49-2.11,6.55-3.83,6.79-3.83
	c0.24,0,4.51-2.81,9.49-6.25c4.98-3.44,9.8-6.7,10.71-7.25c0.91-0.55,1.88-1.27,2.16-1.61c0.28-0.33,3.43-3.01,7-5.94
	c8.52-6.99,17.94-16.63,18.89-19.31c0.41-1.17,0.7-10.46,0.65-20.64c-0.1-16.38-0.38-19.36-2.44-26
	c-5.83-18.73-18.25-37.59-30.09-45.69c-2.47-1.69-5.32-3.99-6.33-5.11c-1.01-1.12-4.38-3.06-7.5-4.31
	c-3.12-1.25-7.33-3.35-9.36-4.68c-2.03-1.32-5.18-2.78-7-3.23c-1.82-0.46-6.01-1.73-9.31-2.84c-12.02-4.02-16.45-5.15-20.29-5.15
	c-2.15,0-5.22-0.4-6.81-0.88C1319.57,1310.12,1290.1,1308.48,1274,1310.03 M1271.63,1346.25c-2.5,2.89-5.51,6.38-6.69,7.75
	c-2.31,2.69-11.77,16.92-13.91,20.94c-0.95,1.79-1.15,5.36-0.73,13.31c0.53,10.03,0.82,11.26,3.82,16.05
	c12.69,20.29,12.89,20.53,23.13,28.23c5.46,4.11,10.29,7.46,10.73,7.46c0.43,0,1.4,0.74,2.16,1.65c1.48,1.78,13.22,7.44,18.88,9.1
	c1.93,0.56,5.97,1.5,9,2.07c3.03,0.58,7.9,1.53,10.83,2.12c7.55,1.51,20.93,1.3,25.83-0.41c2.29-0.8,6.92-1.89,10.31-2.44
	c8.55-1.38,15.48-5.05,23.3-12.35c7.22-6.74,9.9-11.87,11.2-21.42c0.66-4.83,0.42-5.7-3.55-13c-2.34-4.3-6.09-10.24-8.33-13.2
	c-4.62-6.09-7.22-9.61-10.01-13.58c-1.06-1.51-4.64-5.29-7.95-8.39c-3.31-3.1-7.07-6.66-8.36-7.9c-1.29-1.24-2.66-2.25-3.05-2.26
	c-0.39,0-2.51-1.78-4.7-3.95c-2.2-2.17-4.38-3.97-4.85-3.99c-0.47-0.03-2.14-0.97-3.72-2.09c-4.04-2.88-12.62-3.53-16.05-1.22
	c-2.92,1.97-6.97,6.59-8.78,10.03c-1.63,3.09-8.44,7.23-11.91,7.23c-5.99,0-12.12-3.02-15.73-7.75c-1.91-2.5-3.46-5.17-3.46-5.93
	c0-2.44-4.23-7.23-8.21-9.31c-2.12-1.1-4.02-2.01-4.23-2.01C1276.34,1341,1274.12,1343.36,1271.63,1346.25 M623.39,1381.5
	c0,7.15,0.16,9.94,0.35,6.21c0.19-3.73,0.19-9.58,0-13C623.54,1371.29,623.39,1374.35,623.39,1381.5 M352.46,1401.25
	c-0.26,0.69-0.36,26-0.21,56.25l0.27,55l0.24-55.68l0.24-55.68l2.25-0.43l2.25-0.43l-2.28-0.14
	C353.96,1400.06,352.72,1400.56,352.46,1401.25 M366.67,1400.67c-0.37,0.37-0.67,3.74-0.67,7.5c0,5.41-0.31,6.83-1.5,6.83
	c-1.18,0-1.5-1.38-1.5-6.44c0-3.54-0.34-6.65-0.75-6.91s-0.6,2.87-0.42,6.94c0.31,7.04,0.45,7.41,2.71,7.41
	c2.26,0,2.39-0.37,2.67-7.21c0.27-6.73,0.46-7.25,2.79-7.9l2.5-0.69l-2.58-0.1C368.5,1400.05,367.03,1400.3,366.67,1400.67
	 M389.42,1401.14c-0.45,0.73-0.29,0.9,0.43,0.46c0.83-0.52,1.15,1.39,1.15,6.85v7.56l4.25-0.17l4.25-0.17l-3.75-0.39l-3.75-0.39
	V1408C392,1401.41,390.96,1398.64,389.42,1401.14 M452.75,1400.66l2.25,0.48v55.88c0,47.33,0.22,56,1.43,56.68
	c0.78,0.44,1.57,2.6,1.75,4.8c0.3,3.71,0.55,4,3.32,4c2.9,0,3-0.16,3.09-4.76l0.09-4.76l-0.4,4.51c-0.35,4.01-0.67,4.51-2.84,4.51
	c-2.23,0-2.45-0.39-2.45-4.5c0-3.32-0.39-4.5-1.49-4.5c-1.3,0-1.52-7.17-1.75-56.25l-0.26-56.25l-2.5-0.16
	C450.8,1400.19,450.77,1400.23,452.75,1400.66 M624.39,1412.5c0,7.15,0.16,9.94,0.35,6.21c0.19-3.73,0.19-9.58,0-13
	C624.54,1402.29,624.39,1405.35,624.39,1412.5 M381,1407.93c0,6.39-0.17,6.96-2.25,7.36c-1.98,0.38-1.93,0.45,0.42,0.57
	c2.64,0.14,2.68,0.05,3-7.37c0.18-4.13-0.01-7.5-0.42-7.5C381.34,1401,381,1404.12,381,1407.93 M415,1407.94v6.94l-3.25,0.4
	c-3.2,0.4-3.19,0.41,0.5,0.56L416,1416v-7.5c0-4.13-0.23-7.5-0.5-7.5S415,1404.12,415,1407.94 M448,1407.93
	c0,6.8-0.05,6.94-2.75,7.35c-2.56,0.39-2.52,0.43,0.5,0.57L449,1416v-7.5c0-4.13-0.23-7.5-0.5-7.5S448,1404.12,448,1407.93
	 M873.55,1427.5c2.22,3.91,5.98,7.94,10.95,11.76c2.45,1.88,1.45,0.59-2.57-3.34c-3.61-3.53-7.36-7.54-8.33-8.92
	C871.91,1424.58,871.9,1424.6,873.55,1427.5 M110.5,1433.51c-3.85,3.55-7.29,6.46-7.64,6.47c-0.35,0.01-1.43,1.25-2.41,2.77
	c-1.23,1.9-0.1,1.21,3.63-2.21c9.26-8.5,14.43-13.51,13.91-13.5C117.72,1427.05,114.35,1429.96,110.5,1433.51 M625.37,1446
	c0,5.78,0.16,8.14,0.37,5.25s0.2-7.61,0-10.5S625.37,1440.22,625.37,1446 M538.67,1463.67c-0.37,0.37-0.67,36.55-0.67,80.42
	c0,62.86-0.27,79.86-1.25,80.26c-0.75,0.3-0.54,0.54,0.5,0.58c1.65,0.07,1.75-4.39,1.75-80.35c0-75.76,0.1-80.45,1.75-80.88
	c1.4-0.37,1.43-0.48,0.17-0.57C540.05,1463.05,539.03,1463.3,538.67,1463.67 M548.71,1463.62c-0.39,0.39-0.71,3.84-0.71,7.66
	c0,6.87-0.03,6.95-2.5,6.47c-1.38-0.26-2.5-0.06-2.5,0.45s1.24,0.79,2.75,0.61c2.69-0.31,2.76-0.48,3.04-7.57l0.29-7.25h4.46H558
	v7.5c0,7.33,0.06,7.5,2.5,7.5c2.47,0,2.5-0.1,2.3-7.75l-0.2-7.75l-0.35,7.25c-0.26,5.42-0.7,7.25-1.76,7.25
	c-1.06,0-1.49-1.81-1.71-7.25l-0.29-7.25l-4.54-0.3C551.47,1463.04,549.1,1463.23,548.71,1463.62 M567.94,1463.71
	c3.88,0.4,3.96,0.48,4.35,4.85l0.39,4.45l-0.09-4.76l-0.09-4.76l-4.26-0.1l-4.26-0.1L567.94,1463.71 M577.67,1463.67
	c-0.37,0.37-0.67,3.74-0.67,7.5c0,6.08-0.21,6.83-1.93,6.83c-1.12,0-2.12-0.85-2.38-2.02c-0.38-1.68-0.43-1.64-0.32,0.25
	c0.1,1.69,0.84,2.35,2.88,2.58l2.75,0.32v-7.51v-7.51l4.25-0.38l4.25-0.38l-4.08-0.17C580.17,1463.08,578.03,1463.3,577.67,1463.67
	 M592.71,1463.62c-0.39,0.39-0.71,3.79-0.71,7.55c0,6.11-0.21,6.83-1.96,6.83c-1.73,0-2-0.84-2.3-7.25l-0.35-7.25l-0.2,7.82
	l-0.2,7.82l2.75-0.32c2.69-0.31,2.76-0.48,3.04-7.57l0.29-7.25H597h3.91l0.29,7.25c0.29,7.15,0.33,7.25,3.06,7.37
	c2.44,0.11,2.48,0.07,0.29-0.31c-2.32-0.41-2.49-0.86-2.76-7.62l-0.29-7.19l-4.04-0.3C595.24,1463.04,593.11,1463.23,592.71,1463.62
	 M607.69,1463.7c-0.27,0.44,1.49,0.65,3.91,0.45l4.41-0.35v89.99c0,81.14,0.16,90.05,1.58,90.6c2.51,0.96,2.94,0.71,1.11-0.64
	c-1.56-1.16-1.71-8.02-1.94-90.75l-0.25-89.5l-4.16-0.3C610.05,1463.03,607.96,1463.26,607.69,1463.7 M191.48,1553
	c0,49.22,0.12,69.36,0.27,44.75c0.15-24.61,0.15-64.89,0-89.5S191.48,1503.78,191.48,1553 M225.83,1472.09l0.33,7.91l4.67-0.18
	l4.67-0.17l-4.25-0.38l-4.25-0.38V1472c0-3.79-0.34-7.09-0.75-7.35S225.65,1467.74,225.83,1472.09 M269.48,1545.5
	c0,45.1,0.12,63.4,0.27,40.68c0.15-22.73,0.15-59.63,0-82C269.6,1481.8,269.48,1500.4,269.48,1545.5 M904.06,1518.5
	c4.62,4.68,8.66,8.5,8.98,8.5c0.32,0-3.19-3.82-7.79-8.5s-8.64-8.5-8.98-8.5C895.93,1510,899.44,1513.82,904.06,1518.5
	 M337.24,1564.68l-0.24,52.18l-2.25,0.43l-2.25,0.43l2.28,0.14c1.26,0.07,2.5-0.43,2.76-1.11c0.26-0.69,0.36-24.43,0.21-52.75
	l-0.27-51.5L337.24,1564.68 M351.17,1517.35l-0.17,4.85l-4.4-0.35c-2.42-0.19-4.2-0.01-3.94,0.4c0.26,0.41,2.25,0.75,4.44,0.75
	c4.53,0,5.23-0.99,4.64-6.65C351.36,1512.77,351.32,1512.84,351.17,1517.35 M676.39,1530.5c0,7.15,0.16,9.94,0.35,6.21
	c0.19-3.73,0.19-9.58,0-13C676.54,1520.29,676.39,1523.35,676.39,1530.5 M274.2,1534.25l0.2,7.25l0.35-6.75l0.35-6.75h3.45H282v7.5
	v7.5l2.75-0.14c2.36-0.12,2.43-0.2,0.5-0.57c-2.09-0.4-2.25-0.95-2.25-7.86V1527h-4.5H274L274.2,1534.25 M290.7,1527.73l4.2,0.38
	l0.35,6.2l0.35,6.19l0.19-6.75L296,1527l-4.75,0.18l-4.75,0.17L290.7,1527.73 M303.71,1527.73l4.21,0.38l0.29,7.11
	c0.2,4.78,0.71,7.2,1.57,7.37c0.7,0.14,0.81,0.03,0.25-0.25c-0.56-0.28-1.02-3.85-1.02-7.93V1527l-4.75,0.18l-4.75,0.17
	L303.71,1527.73 M316.71,1527.73l4.21,0.38l0.34,7.19l0.34,7.19l0.2-7.75l0.2-7.75l-4.75,0.18l-4.75,0.17L316.71,1527.73
	 M474.24,1571.75l0.24,44.75l0.27-44.19l0.27-44.19l4.24-0.38l4.24-0.38l-4.75-0.17L474,1527L474.24,1571.75 M487,1534.43
	c0,6.91-0.16,7.46-2.25,7.86c-1.93,0.37-1.86,0.45,0.5,0.57L488,1543v-7.5v-7.5h3.46h3.46l0.29,7.25c0.29,7.08,0.36,7.26,3.04,7.57
	c2.33,0.27,2.73-0.04,2.63-2c-0.08-1.69-0.24-1.85-0.57-0.57c-0.25,0.96-1.33,1.75-2.38,1.75c-1.73,0-1.93-0.76-1.93-7.5v-7.5h-4.5
	H487V1534.43 M513,1534.62c0,7.3-0.09,7.59-2.14,7.06c-1.53-0.4-1.84-0.25-1.07,0.52c0.59,0.59,1.78,0.81,2.64,0.47
	c1.22-0.47,1.57-2.17,1.57-7.57v-6.97l4.25-0.38l4.25-0.38l-4.75-0.17L513,1527V1534.62 M525.2,1534.75l0.2,7.75l0.35-7.25
	l0.35-7.25h3.45h3.45l0.27,48.25l0.27,48.25l0.24-48.75L534,1527h-4.5H525L525.2,1534.75 M628.36,1549c0,5.22,0.17,7.36,0.38,4.75
	s0.21-6.89,0-9.5S628.36,1543.78,628.36,1549 M274.46,1584.5c0,22.55,0.13,31.92,0.29,20.82c0.16-11.1,0.16-29.55,0-41
	C274.59,1552.87,274.46,1561.95,274.46,1584.5 M675.36,1553.5c0,5.5,0.17,7.62,0.37,4.72c0.2-2.9,0.2-7.4,0-10
	C675.53,1545.62,675.36,1548,675.36,1553.5 M1153.9,1549.31c-17.33,12.03-29.88,26.72-33.44,39.11c-2.13,7.43-1.63,19.33,1.06,25.08
	c3.16,6.75,12.99,16.18,19.39,18.58c10.89,4.09,25.88,1.5,46.58-8.03c7.18-3.31,14.92-5.99,19.15-6.63
	c13.91-2.12,24.13,12.31,19.33,27.29c-2.45,7.63-10.48,16.02-19.46,20.3c-8.57,4.09-14.46,4.06-23.12-0.12
	c-6.26-3.02-6.53-3.06-7.91-1.25c-0.78,1.03-1.44,2.17-1.45,2.52c-0.02,0.35,2.33,2.89,5.22,5.64
	c16.46,15.66,17.27,16.08,23.1,12.02c26.12-18.22,39.8-37.66,39.79-56.56c0-5.63-0.57-8.49-2.52-12.75
	c-3.4-7.43-11.42-15.72-17.92-18.54c-6.17-2.67-16.54-3.11-24.2-1.01c-4.93,1.35-19.64,7.08-24.5,9.55c-1.38,0.7-3.63,1.72-5,2.27
	c-1.38,0.55-3.79,1.52-5.36,2.15c-4.9,1.98-13.5,2.26-17.08,0.55c-5.28-2.5-9.67-7.8-11.13-13.39c-1.12-4.33-1.09-5.82,0.2-10.19
	c1.64-5.53,1.74-5.68,8.22-12.93c5.78-6.47,11.07-8.95,19.07-8.95c4.73,0,7.53,0.63,11.32,2.53c4.74,2.38,5.14,2.43,6.9,0.84
	c1.02-0.93,1.86-2.11,1.86-2.63c0-0.52-2.25-2.97-5-5.44c-2.75-2.47-4.71-4.97-4.35-5.56c0.36-0.58,0.21-0.79-0.33-0.45
	c-0.54,0.34-2.98-1.16-5.4-3.32c-2.43-2.16-5.32-3.92-6.42-3.9C1159.4,1546.1,1156.43,1547.55,1153.9,1549.31 M846,1553.1
	c1.38,0.39,7.9,0.69,14.5,0.68c6.6-0.01,11.33-0.17,10.5-0.35C867.91,1552.76,843.6,1552.43,846,1553.1 M926.35,1564.5
	c0,4.95,0.17,7.1,0.38,4.78c0.21-2.32,0.21-6.37,0.01-9C926.53,1557.65,926.36,1559.55,926.35,1564.5 M172,1560.97
	c-3.02,2.12-7.07,5.28-9,7.01l-3.5,3.14l3.49-2.31c1.92-1.27,3.94-2.81,4.5-3.42c0.56-0.61,3.15-2.54,5.75-4.29l4.74-3.18l3.26,3.68
	c1.79,2.02,3.62,4.29,4.06,5.04c0.44,0.75,1.29,1.37,1.89,1.37c0.94,0-7.77-10.17-9.17-10.7
	C177.73,1557.2,175.02,1558.85,172,1560.97 M629.38,1578.5c0,6.6,0.16,9.17,0.36,5.71c0.2-3.46,0.19-8.86,0-12
	C629.54,1569.07,629.38,1571.9,629.38,1578.5 M674.36,1576c0,5.22,0.17,7.36,0.38,4.75s0.21-6.89,0-9.5S674.36,1570.78,674.36,1576
	 M630.43,1615.5c0,12.1,0.14,16.91,0.32,10.69c0.18-6.22,0.17-16.12,0-22C630.57,1598.31,630.42,1603.4,630.43,1615.5
	 M1090.44,1609.75c-1.07,0.96-4.64,3.77-7.94,6.25c-3.3,2.47-6.22,4.75-6.5,5.05c-0.28,0.31-3.43,2.56-7,5
	c-3.57,2.45-7.09,5.01-7.81,5.69c-0.72,0.68-4.77,3.79-9,6.91c-8.83,6.52-28.19,25.16-28.19,27.15c0,0.74,0.72,2.06,1.6,2.94
	c1.38,1.38,1.91,1.41,3.75,0.24c5.82-3.68,7.47-4.15,10.02-2.79c1.35,0.72,4.67,4.23,7.38,7.8c4.45,5.89,30.85,41.44,37.11,50
	c1.41,1.93,3.03,4.01,3.6,4.63c0.57,0.62,1.71,2.13,2.54,3.35c2.17,3.22,11.01,15.08,14.43,19.35c3.05,3.82,5.5,4.57,7.75,2.38
	c0.73-0.71,3.55-2.84,6.28-4.75c2.73-1.91,5.65-4.01,6.5-4.68c6.52-5.15,19.31-14.28,20.01-14.28c0.47,0,1.01-0.34,1.2-0.75
	c0.31-0.71,10.18-8.34,16.48-12.75c4.65-3.26,8.36-7.23,8.36-8.96c0-2.36-9.49-22.91-12.67-27.42c-0.15-0.21-1.66,0.19-3.35,0.89
	c-2.2,0.91-2.91,1.74-2.46,2.88c1.1,2.85,2.48,11.27,2.46,14.99c-0.04,6.04-3.23,11.43-10.12,17.07
	c-8.11,6.64-8.64,7.05-13.11,10.04c-2.05,1.38-3.73,2.84-3.74,3.25c0,0.41-0.61,0.75-1.35,0.75s-2.16,0.9-3.16,2s-2.58,2-3.52,2
	c-1.05,0-6.37-6.28-13.77-16.25c-6.63-8.94-13.04-17.5-14.23-19.03c-2.64-3.37-2.11-5.09,2.22-7.31c1.82-0.93,3.53-2,3.8-2.38
	s6.46-4.66,13.75-9.52c8.32-5.55,13.25-9.46,13.25-10.53c0-2.68-4.36-8.46-6.64-8.79c-1.65-0.24-11.48,6.67-15.36,10.8
	c-0.43,0.45-6.68,5.62-13.32,11.01c-1.02,0.82-2.8,2.3-3.96,3.28c-2.04,1.73-2.17,1.7-4.53-1c-1.33-1.53-3.16-3.91-4.06-5.28
	c-3.44-5.27-19.53-26.52-20.31-26.83c-2.08-0.84-0.36-3.97,3.94-7.17c2.58-1.93,5.38-4.04,6.22-4.71
	c12.56-10,19.95-14.29,24.61-14.29c2.79,0,12.28,4.94,14.41,7.51c1.67,2.02,3.34,1.88,5.44-0.44c1.68-1.86,1.62-2.1-1.6-6.25
	c-8.15-10.52-15.36-18.81-16.37-18.81C1092.87,1608,1091.5,1608.79,1090.44,1609.75 M676.37,1620.5c0,6.05,0.17,8.4,0.37,5.21
	c0.2-3.18,0.2-8.13,0-11C676.53,1611.85,676.37,1614.45,676.37,1620.5 M84.08,1616.08c-0.04,0.87,0.96,2.55,2.24,3.75
	c1.98,1.86,3.48,2.17,10.3,2.17c7.68,0,10.43-0.92,10.36-3.45c-0.02-0.58-0.49-0.26-1.05,0.7c-0.84,1.44-2.47,1.75-9.31,1.75
	c-8.49,0-10.34-0.78-11.9-5C84.24,1614.71,84.15,1614.73,84.08,1616.08 M677.37,1642c0,5.78,0.16,8.14,0.37,5.25s0.2-7.61,0-10.5
	S677.37,1636.22,677.37,1642 M971.98,1650.25c-0.03,2.86-3.35,10.23-5.12,11.38c-0.74,0.48-6.85,1.11-13.57,1.41
	c-10.97,0.48-12.46,0.77-14.67,2.85c-4.01,3.76-6.42,10.73-6.79,19.61l-0.33,8l3.18,0.31c3.1,0.3,3.22,0.16,4.88-5.75
	c2.76-9.83,3.15-10.06,17.2-10.06c11.8,0,12.08-0.05,15.03-2.81c3.69-3.44,7.21-14.09,7.21-21.8v-5.4h-3.5
	C972.54,1648,972,1648.35,971.98,1650.25 M173.75,1652.3c-2.71,1.07-2.75,1.21-2.55,9.14l0.2,8.06l0.34-7.59
	c0.33-7.41,0.41-7.62,3.55-9.19C178.91,1650.92,177.93,1650.65,173.75,1652.3 M63,1662.03c0,0.84,0.7,2.53,1.56,3.75l1.56,2.22
	h-8.61c-5.76,0-9.58-0.51-11.56-1.53c-1.62-0.84-2.95-1.3-2.95-1.03s1.33,1.19,2.95,2.03c3.09,1.6,19.59,2.23,20.3,0.78
	c0.2-0.41-0.44-2.32-1.44-4.25C63.82,1662.07,63,1661.19,63,1662.03 M774.63,1675.6c-4.74,3.63-8.63,6.84-8.63,7.12
	c0,0.29,0.56,0.08,1.25-0.45c0.69-0.53,4.4-3.37,8.25-6.3c8.33-6.34,9.08-6.97,8.33-6.97C783.51,1669,779.37,1671.97,774.63,1675.6
	 M432.25,1685.74c4.81,0.18,12.69,0.18,17.5,0c4.81-0.18,0.88-0.33-8.75-0.33S427.44,1685.56,432.25,1685.74 M959.75,1690.68
	c-3.71,2.53-6.75,5.3-6.75,6.16c0,0.86,1.35,2.95,2.99,4.65c2.84,2.93,3.05,3.72,4.05,15.55c2.29,27.03,2.98,34.84,3.93,44.46
	c4.18,42.45,5.97,62.65,6,67.78c0.02,3.03,0.52,4.97,1.36,5.29c1.9,0.73,5.65-0.96,9.46-4.24l3.28-2.83l-1.59-10
	c-0.87-5.5-2-14.05-2.5-19c-0.5-4.95-1.21-11.56-1.58-14.69l-0.67-5.69l5.88-2.89c3.24-1.59,7.57-3.87,9.63-5.06
	c7.03-4.06,11.24-6.43,16.46-9.27c2.86-1.56,6.09-3.38,7.18-4.06c1.67-1.04,2.26-0.92,3.79,0.82c1,1.13,4.73,4.48,8.29,7.45
	c3.56,2.97,7.16,6.12,8,7c0.84,0.88,4.46,4.03,8.03,7c3.57,2.97,7.17,6.07,8,6.9c3.99,3.99,4.72,4.22,7.68,2.39
	c15.02-9.28,15.99-10.38,12.11-13.74c-1.37-1.19-5.12-4.41-8.34-7.16c-7.03-6-13.53-11.63-15.02-13
	c-5.69-5.22-26.3-23.15-32.27-28.07c-4.92-4.06-6.81-5.72-11.17-9.78c-2.47-2.31-5.85-5.24-7.5-6.51s-5.7-4.68-9-7.58
	c-16.26-14.29-19.13-16.55-20.99-16.52C967.4,1686.06,963.46,1688.15,959.75,1690.68 M969.03,1714.13c0.02,0.76,0.48,4.75,1.04,8.87
	c1.5,11.13,2.68,20.43,3.88,30.5c0.59,4.95,1.32,10.2,1.62,11.67l0.55,2.67l7.69-4.12c30.32-16.24,27.41-14.08,23.52-17.47
	c-6.96-6.06-15.98-13.97-20.28-17.81C974.21,1717.02,969,1712.89,969.03,1714.13 M584.28,1725.74c2.63,0.21,6.68,0.2,9-0.01
	c2.32-0.21,0.17-0.38-4.78-0.38C583.55,1725.36,581.65,1725.53,584.28,1725.74 M652.25,1725.74c3.16,0.2,8.34,0.2,11.5,0
	s0.58-0.36-5.75-0.36S649.09,1725.54,652.25,1725.74 M615.75,1726.74c3.44,0.2,9.06,0.2,12.5,0c3.44-0.19,0.63-0.35-6.25-0.35
	S612.31,1726.55,615.75,1726.74 M867,1733.95c-8.39,1.56-23.35,6.9-36.5,13.02c-3.3,1.54-6.67,3.07-7.5,3.41
	c-4.97,2.03-15.54,8.57-15.78,9.75c-0.15,0.77,0.32,2.23,1.05,3.23c1.18,1.62,1.82,1.69,5.66,0.66c7.62-2.05,8.36-1.41,13.41,11.73
	c2.48,6.46,5.2,13.78,6.04,16.25c1.65,4.87,9.03,25.32,11.19,31c0.73,1.93,3.19,8.68,5.47,15c4.09,11.36,9.59,26.44,11.94,32.75
	c1.28,3.41,4.12,4.27,7.78,2.33c0.96-0.5,3.19-1.45,4.96-2.11c1.77-0.66,4.36-2.25,5.75-3.54c2.4-2.23,2.46-2.52,1.11-5.64
	c-1.84-4.25-4.46-11.41-9.61-26.29c-2.29-6.6-4.97-14.03-5.96-16.5c-1.84-4.59-9.17-24.69-16.24-44.5
	c-7.63-21.38-7.65-21.56-2.7-23.41c1.61-0.6,4.39-1.65,6.18-2.34c5.09-1.96,18.56-1.59,22.75,0.63c6.32,3.34,11.04,10.04,13,18.46
	c2.58,11.08-0.96,19.81-10.94,26.98c-3.59,2.58-7.77,5.23-9.29,5.89c-3.08,1.34-3.66,4.31-1.23,6.32c1.2,0.99,2.37,1.02,5.37,0.12
	c2.11-0.63,4.88-1.15,6.15-1.15c1.27,0,3.7-0.49,5.38-1.09c2.53-0.9,3.9-0.73,7.78,0.95c5.06,2.19,7.47,4.94,22.29,25.41
	c10.53,14.55,13.84,17.21,21.32,17.16c4.54-0.03,7.08-0.78,12.68-3.69c10.15-5.29,9.81-4.96,8.36-8.13
	c-1.12-2.46-1.6-2.66-5.01-2.08c-5.32,0.9-8.08-1.1-16.35-11.84c-20.38-26.45-22.5-28.29-33.85-29.35l-6.58-0.61l4.55-5.06
	c6.32-7.03,9.54-13.81,10.15-21.37c0.78-9.66-2.67-20.06-8.43-25.44c-5.99-5.59-10.15-7.11-20.34-7.43
	C875.78,1733.25,869.47,1733.49,867,1733.95 M747,1766.91c-0.83,0.49-3.9,1.68-6.84,2.64s-5.59,2.39-5.89,3.18
	c-0.3,0.79,0.36,3.09,1.48,5.11c2.13,3.84,2,5.65-2.13,29.17c-3.13,17.82-11.93,70.7-14.06,84.5c-0.93,6.05-2.06,12.65-2.51,14.67
	c-0.99,4.49,0.16,5.96,3.8,4.82c1.45-0.45,3.77-1.08,5.14-1.4c4.63-1.06,5.15-2.03,6.05-11.21c1.77-18.18,4.63-38.45,5.52-39.23
	c0.91-0.79,5.86-2.31,13.93-4.3c2.2-0.54,5.35-1.36,7-1.82c1.65-0.46,5.47-1.4,8.5-2.08c3.03-0.68,7.57-1.8,10.1-2.49
	c2.53-0.69,5.04-0.96,5.57-0.6c0.53,0.36,6.3,8.53,12.82,18.15c17.17,25.35,15.26,23.22,19.98,22.43c5.19-0.86,14.82-4.42,15.72-5.8
	c0.81-1.24-0.95-4.24-10.91-18.63c-4-5.78-7.74-11.18-8.31-12c-0.57-0.82-4.54-6.68-8.83-13c-14.72-21.72-22.76-33.51-26.27-38.5
	c-1.93-2.75-5.83-8.38-8.65-12.5c-13.62-19.87-14.91-21.5-17.32-21.74C749.58,1766.12,747.83,1766.42,747,1766.91 M653.78,1786.92
	c-4.24,0.87-8.17,2.04-8.72,2.6c-0.67,0.68-0.55,2.74,0.37,6.25c1.52,5.77,1.69,4.9-5.02,26.23c-1.82,5.78-4.94,15.9-6.94,22.5
	c-2,6.6-5.62,18.36-8.05,26.13c-2.43,7.77-4.46,14.75-4.5,15.5c-0.04,0.76-0.87,3.17-1.85,5.37l-1.77,4l-2.29-4.5
	c-8.49-16.68-20.7-40.3-23-44.5c-1.51-2.75-7.77-14.97-13.92-27.16c-6.15-12.19-11.85-22.42-12.67-22.73
	c-0.82-0.31-4.19,0.06-7.48,0.82c-13.51,3.15-13.64,3.29-9.38,10.91c2.37,4.25,2.52,5.23,1.95,12.88
	c-4.74,63.42-7.77,110.86-7.13,111.5c0.29,0.29,3.58,0.13,7.32-0.35l6.79-0.87l0.62-31.5c0.34-17.32,0.68-40.03,0.75-50.45
	c0.07-10.65,0.51-18.53,0.99-18c0.47,0.52,7.64,14.22,15.92,30.45c8.28,16.22,18.92,36.93,23.63,46c4.72,9.07,8.58,16.9,8.58,17.38
	c0.01,1.25,12.26-0.26,13.69-1.69c0.65-0.65,2.32-5.46,3.7-10.69c4.64-17.53,12.84-46.72,16.98-60.5c0.83-2.75,2.9-10.18,4.6-16.5
	s3.37-12.18,3.71-13c0.67-1.63,2.35,4.58,7.8,29c1.91,8.53,3.9,17.07,4.43,19c0.53,1.93,2.37,9.57,4.08,17
	c5.6,24.24,6.99,29.37,8.17,30.1c1.7,1.05,7.47,0.17,17.61-2.7c2.2-0.62,2.47-3.19,0.91-8.64c-0.83-2.9-2.97-11.57-4.75-19.27
	c-1.78-7.7-4.71-20.07-6.5-27.5s-3.56-15.07-3.92-17c-0.36-1.93-1.94-8.9-3.51-15.5c-10.51-44.11-9.68-41.18-11.76-41.72
	C662.28,1785.53,658.03,1786.04,653.78,1786.92 M744.51,1798.67c-0.37,3.76-1.57,13.11-2.67,20.79c-1.1,7.68-1.84,15.63-1.65,17.67
	c0.19,2.04,0.01,3.49-0.42,3.23c-0.42-0.26-0.77,1.18-0.77,3.2c0,3.34,0.2,3.61,2.25,3.01c1.24-0.37,5.4-1.27,9.25-2
	c15.65-2.98,25.62-5.82,25.11-7.15c-0.27-0.72-2.68-4.59-5.35-8.61c-4.8-7.22-24.28-36-24.81-36.64
	C745.3,1791.99,744.88,1794.92,744.51,1798.67 M264.5,1794.68c-15.5,3.45-28.62,8.35-31.45,11.76c-0.71,0.86-1.82,1.56-2.46,1.56
	c-1.19,0-8.17,6.92-12.79,12.68c-3.38,4.21-8.73,17.2-10.43,25.32c-1.87,8.91-1.74,25.35,0.25,33.17c0.89,3.48,2.96,9,4.61,12.27
	c2.99,5.94,10.46,16.56,11.64,16.57c0.35,0,2.07,1.35,3.83,3c1.76,1.65,3.63,2.99,4.17,2.99s1.12,0.35,1.31,0.77
	c0.52,1.2,13.86,7.89,18.33,9.19c10.04,2.92,17.99,4.14,30.5,4.69c12.22,0.54,30.38-0.7,31.85-2.17c0.69-0.69,5.99-54.72,5.46-55.7
	c-0.93-1.72-8.74-2.78-20.56-2.78L286,1868v3.03c0,3.21,0.35,3.45,6.24,4.43c2.89,0.48,3.88,1.18,4.36,3.09
	c0.55,2.19-0.48,18.02-2.26,34.81l-0.62,5.87l-8.11-0.68c-13.52-1.13-23.29-4.31-32.84-10.71c-7.89-5.28-12.18-10.13-16.26-18.35
	c-4.87-9.8-6.51-17.17-6.51-29.25c0-24.36,8.37-42.64,23.21-50.68c7.39-4,13.93-5.55,23.6-5.56c18.33-0.03,31.98,6.7,37.28,18.36
	c1.03,2.27,1.88,5.36,1.89,6.87c0.02,2.46,0.39,2.75,3.42,2.75c3.26,0,3.41-0.17,3.83-4.25c0.24-2.34,0.4-8.97,0.35-14.74
	l-0.08-10.49l-4-1.34c-4.62-1.55-13.6-3.58-25-5.67C287.09,1794.14,269.12,1793.65,264.5,1794.68 M361.5,1802.02
	c-15.04,1.5-20.58,2.3-21.03,3.02c-0.25,0.41-0.19,2.12,0.15,3.8c0.58,2.87,0.91,3.07,5.71,3.35c8.54,0.5,8.27-1.5,6.82,49.52
	c-1.3,45.89-1.13,49.51,2.77,57.12c2.06,4.04,8.18,10.02,12.08,11.81c7.26,3.34,10.03,3.84,21,3.84c14.48,0,21.75-1.6,34.69-7.61
	c3.4-1.58,6.66-2.88,7.25-2.88c0.61,0,1.06,2.14,1.06,5c0,4.05,0.33,5.02,1.75,5.11c4.08,0.25,17.79-0.33,18.24-0.77
	c0.27-0.27,0.82-14.06,1.24-30.66c0.41-16.6,1.17-45.03,1.68-63.18c0.64-22.86,0.61-33.39-0.12-34.26
	c-1.14-1.37-15.83-0.71-18.87,0.84c-1.37,0.7-1.68,4.83-2.25,30.61c-0.37,16.39-0.96,40.29-1.32,53.1l-0.65,23.3l-3.12,1.3
	c-12.78,5.34-15.99,6.06-26.42,5.93c-11.89-0.15-16.77-1.97-22.58-8.4c-6.02-6.67-6.5-14.68-4.5-74.93
	c0.77-23.09,0.76-32.48-0.04-33.96C373.85,1800.85,373.5,1800.82,361.5,1802.02 M496.5,1802.09c-3.85,0.44-9.02,1.23-11.49,1.76
	c-2.47,0.53-4.8,0.78-5.18,0.54c-0.38-0.23-0.97,0.03-1.32,0.59c-0.35,0.56-1.53,1.02-2.63,1.02c-1.66,0-1.95,0.56-1.69,3.25
	c0.28,2.93,0.66,3.28,3.81,3.52c6.05,0.47,7.63,1.11,8.76,3.6c0.61,1.33,1.6,14.28,2.2,28.77c0.6,14.5,1.54,35.81,2.07,47.36
	c0.54,11.55,0.97,25.11,0.97,30.13c0,6.11,0.41,9.45,1.25,10.1c0.81,0.63,4.32,0.63,10.01,0c7.69-0.86,8.83-1.24,9.3-3.11
	c0.52-2.09-0.52-42.14-2.58-98.58c-0.74-20.37-1.38-28.68-2.26-29.23C506.38,1800.95,506.52,1800.95,496.5,1802.09"/>
</svg>
